<mxfile host="app.diagrams.net" agent="Mozilla/5.0 (Windows NT 10.0; Win64; x64) AppleWebKit/537.36 (KHTML, like Gecko) Chrome/131.0.0.0 Safari/537.36" version="25.0.3">
  <diagram id="BT_9d3tybcS5t6vmlCDs" name="第 1 页">
    <mxGraphModel dx="1195" dy="2953" grid="1" gridSize="10" guides="1" tooltips="1" connect="1" arrows="1" fold="1" page="1" pageScale="1" pageWidth="827" pageHeight="1169" math="0" shadow="0">
      <root>
        <mxCell id="0" />
        <mxCell id="1" parent="0" />
        <mxCell id="AqnHFbRL65N22WnZ4822-52" value="" style="rounded=0;whiteSpace=wrap;html=1;fillColor=none;dashed=1;" parent="1" vertex="1">
          <mxGeometry x="5560" y="-640" width="150" height="179.12" as="geometry" />
        </mxCell>
        <mxCell id="AqnHFbRL65N22WnZ4822-51" value="" style="rounded=0;whiteSpace=wrap;html=1;fillColor=none;dashed=1;" parent="1" vertex="1">
          <mxGeometry x="5560" y="-400" width="150" height="179.12" as="geometry" />
        </mxCell>
        <mxCell id="Rwd-Yh-OvxQPfiBLRn_k-1" value="" style="rounded=0;whiteSpace=wrap;html=1;fillColor=none;dashed=1;fontStyle=1" parent="1" vertex="1">
          <mxGeometry x="3860" y="1160" width="215" height="109.5" as="geometry" />
        </mxCell>
        <mxCell id="i71nDBgFTF4gcoMyqBb0-5" value="" style="rounded=0;whiteSpace=wrap;html=1;fillColor=none;dashed=1;fontStyle=1" parent="1" vertex="1">
          <mxGeometry x="4240" y="1074.75" width="100" height="280" as="geometry" />
        </mxCell>
        <mxCell id="CYLU-5RYoMURPyQihZAW-10" value="" style="rounded=0;whiteSpace=wrap;html=1;fillColor=none;dashed=1;fontStyle=1" parent="1" vertex="1">
          <mxGeometry x="3095" y="680" width="275" height="240" as="geometry" />
        </mxCell>
        <mxCell id="xg06a3iDjOgLRZ0BCeSt-10" value="" style="rounded=0;whiteSpace=wrap;html=1;fillColor=none;dashed=1;fontStyle=1" parent="1" vertex="1">
          <mxGeometry x="1950" y="530" width="130" height="150" as="geometry" />
        </mxCell>
        <mxCell id="se93l_hdjBHq4H-M8QWh-1" value="" style="rounded=0;whiteSpace=wrap;html=1;fillColor=none;dashed=1;fontStyle=1" parent="1" vertex="1">
          <mxGeometry x="1340" y="530" width="420" height="150" as="geometry" />
        </mxCell>
        <mxCell id="vEdsJQJvJET6jsOQPGxz-9" value="" style="rounded=0;whiteSpace=wrap;html=1;fillColor=none;dashed=1;fontStyle=1" parent="1" vertex="1">
          <mxGeometry x="1310" y="172.5" width="240" height="97.5" as="geometry" />
        </mxCell>
        <mxCell id="UefwI9e2Om12DkF_jqyX-5" value="" style="rounded=0;whiteSpace=wrap;html=1;fillColor=none;dashed=1;fontStyle=1" parent="1" vertex="1">
          <mxGeometry x="205" y="120" width="295" height="250" as="geometry" />
        </mxCell>
        <mxCell id="UefwI9e2Om12DkF_jqyX-3" value="Phone Number" style="rounded=1;whiteSpace=wrap;html=1;fillColor=none;fontStyle=1" parent="1" vertex="1">
          <mxGeometry x="230" y="140" width="240" height="20" as="geometry" />
        </mxCell>
        <mxCell id="UefwI9e2Om12DkF_jqyX-4" value="SMS verification code" style="rounded=1;whiteSpace=wrap;html=1;fillColor=#dae8fc;strokeColor=#000000;fontStyle=1" parent="1" vertex="1">
          <mxGeometry x="230" y="220" width="140" height="20" as="geometry" />
        </mxCell>
        <mxCell id="UefwI9e2Om12DkF_jqyX-6" value="input" style="rounded=1;whiteSpace=wrap;html=1;fillColor=none;fontStyle=1" parent="1" vertex="1">
          <mxGeometry x="380" y="180" width="90" height="20" as="geometry" />
        </mxCell>
        <mxCell id="UefwI9e2Om12DkF_jqyX-8" value="Graphic verification code" style="rounded=1;whiteSpace=wrap;html=1;fillColor=#d5e8d4;strokeColor=#000000;fontStyle=1" parent="1" vertex="1">
          <mxGeometry x="230" y="180" width="140" height="20" as="geometry" />
        </mxCell>
        <mxCell id="UefwI9e2Om12DkF_jqyX-9" value="input" style="rounded=1;whiteSpace=wrap;html=1;fillColor=none;fontStyle=1" parent="1" vertex="1">
          <mxGeometry x="380" y="220" width="90" height="20" as="geometry" />
        </mxCell>
        <mxCell id="UefwI9e2Om12DkF_jqyX-10" value="Sign up" style="rounded=1;whiteSpace=wrap;html=1;fillColor=none;fontStyle=1" parent="1" vertex="1">
          <mxGeometry x="290" y="315" width="180" height="20" as="geometry" />
        </mxCell>
        <mxCell id="UefwI9e2Om12DkF_jqyX-12" value="Get SMS verification code" style="rounded=1;whiteSpace=wrap;html=1;fillColor=#A9C4EB;fontStyle=1" parent="1" vertex="1">
          <mxGeometry x="230" y="260" width="240" height="20" as="geometry" />
        </mxCell>
        <mxCell id="UefwI9e2Om12DkF_jqyX-13" value="avatar" style="ellipse;whiteSpace=wrap;html=1;aspect=fixed;fillColor=#9AC7BF;fontStyle=1" parent="1" vertex="1">
          <mxGeometry x="230" y="300" width="50" height="50" as="geometry" />
        </mxCell>
        <mxCell id="pRPVaADtkpWoiS7Lqduv-14" style="edgeStyle=orthogonalEdgeStyle;rounded=0;orthogonalLoop=1;jettySize=auto;html=1;entryX=1;entryY=0.5;entryDx=0;entryDy=0;fontStyle=1" parent="1" source="pRPVaADtkpWoiS7Lqduv-1" target="pRPVaADtkpWoiS7Lqduv-6" edge="1">
          <mxGeometry relative="1" as="geometry" />
        </mxCell>
        <mxCell id="pRPVaADtkpWoiS7Lqduv-1" value="application.yaml" style="rounded=1;whiteSpace=wrap;html=1;fillColor=#D5E8D4;fontStyle=1" parent="1" vertex="1">
          <mxGeometry x="940" y="190" width="110" height="20" as="geometry" />
        </mxCell>
        <mxCell id="pRPVaADtkpWoiS7Lqduv-12" style="edgeStyle=orthogonalEdgeStyle;rounded=0;orthogonalLoop=1;jettySize=auto;html=1;entryX=1;entryY=0.5;entryDx=0;entryDy=0;fontStyle=1" parent="1" source="pRPVaADtkpWoiS7Lqduv-3" target="pRPVaADtkpWoiS7Lqduv-7" edge="1">
          <mxGeometry relative="1" as="geometry" />
        </mxCell>
        <mxCell id="pRPVaADtkpWoiS7Lqduv-3" value="RestTempLate" style="rounded=1;whiteSpace=wrap;html=1;fillColor=none;fontStyle=1" parent="1" vertex="1">
          <mxGeometry x="810" y="120" width="110" height="20" as="geometry" />
        </mxCell>
        <mxCell id="pRPVaADtkpWoiS7Lqduv-13" style="edgeStyle=orthogonalEdgeStyle;rounded=0;orthogonalLoop=1;jettySize=auto;html=1;entryX=1;entryY=0.5;entryDx=0;entryDy=0;fontStyle=1" parent="1" source="pRPVaADtkpWoiS7Lqduv-6" target="pRPVaADtkpWoiS7Lqduv-7" edge="1">
          <mxGeometry relative="1" as="geometry" />
        </mxCell>
        <mxCell id="pRPVaADtkpWoiS7Lqduv-6" value="SmsConfig" style="rounded=1;whiteSpace=wrap;html=1;fillColor=none;fontStyle=1" parent="1" vertex="1">
          <mxGeometry x="810" y="190" width="90" height="20" as="geometry" />
        </mxCell>
        <mxCell id="pRPVaADtkpWoiS7Lqduv-16" style="edgeStyle=orthogonalEdgeStyle;rounded=0;orthogonalLoop=1;jettySize=auto;html=1;entryX=0.5;entryY=0;entryDx=0;entryDy=0;fontStyle=1" parent="1" source="pRPVaADtkpWoiS7Lqduv-7" target="pRPVaADtkpWoiS7Lqduv-15" edge="1">
          <mxGeometry relative="1" as="geometry" />
        </mxCell>
        <mxCell id="pRPVaADtkpWoiS7Lqduv-7" value="SmsComponent" style="rounded=1;whiteSpace=wrap;html=1;fillColor=none;fontStyle=1" parent="1" vertex="1">
          <mxGeometry x="660" y="150" width="110" height="20" as="geometry" />
        </mxCell>
        <mxCell id="pRPVaADtkpWoiS7Lqduv-10" style="edgeStyle=orthogonalEdgeStyle;rounded=0;orthogonalLoop=1;jettySize=auto;html=1;fontStyle=1" parent="1" source="pRPVaADtkpWoiS7Lqduv-8" target="pRPVaADtkpWoiS7Lqduv-7" edge="1">
          <mxGeometry relative="1" as="geometry" />
        </mxCell>
        <mxCell id="pRPVaADtkpWoiS7Lqduv-8" value="Start" style="rounded=1;whiteSpace=wrap;html=1;fillColor=none;fontStyle=1" parent="1" vertex="1">
          <mxGeometry x="660" y="70" width="110" height="20" as="geometry" />
        </mxCell>
        <mxCell id="pRPVaADtkpWoiS7Lqduv-21" style="edgeStyle=orthogonalEdgeStyle;rounded=0;orthogonalLoop=1;jettySize=auto;html=1;entryX=0.5;entryY=0;entryDx=0;entryDy=0;fontStyle=1" parent="1" source="pRPVaADtkpWoiS7Lqduv-15" target="pRPVaADtkpWoiS7Lqduv-20" edge="1">
          <mxGeometry relative="1" as="geometry" />
        </mxCell>
        <mxCell id="pRPVaADtkpWoiS7Lqduv-15" value="send verification code" style="rounded=1;whiteSpace=wrap;html=1;fillColor=none;fontStyle=1" parent="1" vertex="1">
          <mxGeometry x="660" y="200" width="110" height="40" as="geometry" />
        </mxCell>
        <mxCell id="pRPVaADtkpWoiS7Lqduv-20" value="End" style="rounded=1;whiteSpace=wrap;html=1;fillColor=none;fontStyle=1" parent="1" vertex="1">
          <mxGeometry x="660" y="270" width="110" height="20" as="geometry" />
        </mxCell>
        <mxCell id="1INNWkqEgoHzFdm2mWcg-7" style="edgeStyle=orthogonalEdgeStyle;rounded=0;orthogonalLoop=1;jettySize=auto;html=1;entryX=0.5;entryY=0;entryDx=0;entryDy=0;fontStyle=1" parent="1" source="1INNWkqEgoHzFdm2mWcg-8" target="1INNWkqEgoHzFdm2mWcg-12" edge="1">
          <mxGeometry relative="1" as="geometry" />
        </mxCell>
        <mxCell id="1INNWkqEgoHzFdm2mWcg-8" value="Create Threads Group" style="rounded=1;whiteSpace=wrap;html=1;fillColor=none;fontStyle=1" parent="1" vertex="1">
          <mxGeometry x="645" y="480" width="140" height="20" as="geometry" />
        </mxCell>
        <mxCell id="1INNWkqEgoHzFdm2mWcg-9" style="edgeStyle=orthogonalEdgeStyle;rounded=0;orthogonalLoop=1;jettySize=auto;html=1;fontStyle=1" parent="1" source="1INNWkqEgoHzFdm2mWcg-10" target="1INNWkqEgoHzFdm2mWcg-8" edge="1">
          <mxGeometry relative="1" as="geometry" />
        </mxCell>
        <mxCell id="1INNWkqEgoHzFdm2mWcg-10" value="Start" style="rounded=1;whiteSpace=wrap;html=1;fillColor=none;fontStyle=1" parent="1" vertex="1">
          <mxGeometry x="660" y="430" width="110" height="20" as="geometry" />
        </mxCell>
        <mxCell id="1INNWkqEgoHzFdm2mWcg-11" style="edgeStyle=orthogonalEdgeStyle;rounded=0;orthogonalLoop=1;jettySize=auto;html=1;entryX=0.5;entryY=0;entryDx=0;entryDy=0;fontStyle=1" parent="1" source="1INNWkqEgoHzFdm2mWcg-12" target="1INNWkqEgoHzFdm2mWcg-13" edge="1">
          <mxGeometry relative="1" as="geometry" />
        </mxCell>
        <mxCell id="1INNWkqEgoHzFdm2mWcg-19" style="edgeStyle=orthogonalEdgeStyle;rounded=0;orthogonalLoop=1;jettySize=auto;html=1;fontStyle=1" parent="1" source="1INNWkqEgoHzFdm2mWcg-12" target="1INNWkqEgoHzFdm2mWcg-17" edge="1">
          <mxGeometry relative="1" as="geometry" />
        </mxCell>
        <mxCell id="1INNWkqEgoHzFdm2mWcg-20" value="call" style="edgeLabel;html=1;align=center;verticalAlign=middle;resizable=0;points=[];fontStyle=1" parent="1INNWkqEgoHzFdm2mWcg-19" vertex="1" connectable="0">
          <mxGeometry x="-0.1338" y="2" relative="1" as="geometry">
            <mxPoint as="offset" />
          </mxGeometry>
        </mxCell>
        <mxCell id="1INNWkqEgoHzFdm2mWcg-12" value="Add sample" style="rounded=1;whiteSpace=wrap;html=1;fillColor=none;fontStyle=1" parent="1" vertex="1">
          <mxGeometry x="660" y="530" width="110" height="20" as="geometry" />
        </mxCell>
        <mxCell id="1INNWkqEgoHzFdm2mWcg-16" style="edgeStyle=orthogonalEdgeStyle;rounded=0;orthogonalLoop=1;jettySize=auto;html=1;entryX=0.5;entryY=0;entryDx=0;entryDy=0;fontStyle=1" parent="1" source="1INNWkqEgoHzFdm2mWcg-13" target="1INNWkqEgoHzFdm2mWcg-15" edge="1">
          <mxGeometry relative="1" as="geometry" />
        </mxCell>
        <mxCell id="1INNWkqEgoHzFdm2mWcg-21" value="" style="edgeStyle=orthogonalEdgeStyle;rounded=0;orthogonalLoop=1;jettySize=auto;html=1;fontStyle=1" parent="1" source="1INNWkqEgoHzFdm2mWcg-13" target="1INNWkqEgoHzFdm2mWcg-17" edge="1">
          <mxGeometry relative="1" as="geometry" />
        </mxCell>
        <mxCell id="1INNWkqEgoHzFdm2mWcg-22" value="optimization" style="edgeLabel;html=1;align=center;verticalAlign=middle;resizable=0;points=[];fontStyle=1" parent="1INNWkqEgoHzFdm2mWcg-21" vertex="1" connectable="0">
          <mxGeometry x="-0.3774" y="1" relative="1" as="geometry">
            <mxPoint as="offset" />
          </mxGeometry>
        </mxCell>
        <mxCell id="1INNWkqEgoHzFdm2mWcg-13" value="Add Aggregate Report" style="rounded=1;whiteSpace=wrap;html=1;fillColor=none;fontStyle=1" parent="1" vertex="1">
          <mxGeometry x="650" y="574.5" width="130" height="20" as="geometry" />
        </mxCell>
        <mxCell id="1INNWkqEgoHzFdm2mWcg-15" value="End" style="rounded=1;whiteSpace=wrap;html=1;fillColor=none;fontStyle=1" parent="1" vertex="1">
          <mxGeometry x="660" y="620" width="110" height="20" as="geometry" />
        </mxCell>
        <mxCell id="1INNWkqEgoHzFdm2mWcg-17" value="SMS API" style="rounded=1;whiteSpace=wrap;html=1;fillColor=#D5E8D4;fontStyle=1" parent="1" vertex="1">
          <mxGeometry x="870" y="530" width="110" height="20" as="geometry" />
        </mxCell>
        <mxCell id="4dT-DWwZLFFdWcqSDPXJ-8" style="edgeStyle=orthogonalEdgeStyle;rounded=0;orthogonalLoop=1;jettySize=auto;html=1;entryX=0;entryY=0.5;entryDx=0;entryDy=0;fontStyle=1" parent="1" source="vEdsJQJvJET6jsOQPGxz-10" target="4dT-DWwZLFFdWcqSDPXJ-7" edge="1">
          <mxGeometry relative="1" as="geometry" />
        </mxCell>
        <mxCell id="vEdsJQJvJET6jsOQPGxz-10" value="" style="shape=cylinder3;whiteSpace=wrap;html=1;boundedLbl=1;backgroundOutline=1;size=15;rotation=90;fillColor=#F19C99;fontStyle=1" parent="1" vertex="1">
          <mxGeometry x="1397.5" y="135" width="45" height="170" as="geometry" />
        </mxCell>
        <mxCell id="vEdsJQJvJET6jsOQPGxz-19" value="" style="ellipse;whiteSpace=wrap;html=1;fillColor=#A9C4EB;fontStyle=1" parent="1" vertex="1">
          <mxGeometry x="1350" y="205" width="20" height="30" as="geometry" />
        </mxCell>
        <mxCell id="vEdsJQJvJET6jsOQPGxz-20" value="" style="ellipse;whiteSpace=wrap;html=1;fillColor=#A9C4EB;fontStyle=1" parent="1" vertex="1">
          <mxGeometry x="1360" y="205" width="20" height="30" as="geometry" />
        </mxCell>
        <mxCell id="vEdsJQJvJET6jsOQPGxz-21" value="" style="ellipse;whiteSpace=wrap;html=1;fillColor=#A9C4EB;fontStyle=1" parent="1" vertex="1">
          <mxGeometry x="1370" y="205" width="20" height="30" as="geometry" />
        </mxCell>
        <mxCell id="vEdsJQJvJET6jsOQPGxz-22" value="" style="ellipse;whiteSpace=wrap;html=1;fillColor=#A9C4EB;fontStyle=1" parent="1" vertex="1">
          <mxGeometry x="1380" y="205" width="20" height="30" as="geometry" />
        </mxCell>
        <mxCell id="vEdsJQJvJET6jsOQPGxz-23" value="" style="ellipse;whiteSpace=wrap;html=1;fillColor=#A9C4EB;fontStyle=1" parent="1" vertex="1">
          <mxGeometry x="1390" y="205" width="20" height="30" as="geometry" />
        </mxCell>
        <mxCell id="vEdsJQJvJET6jsOQPGxz-26" value="" style="ellipse;whiteSpace=wrap;html=1;fillColor=#A9C4EB;fontStyle=1" parent="1" vertex="1">
          <mxGeometry x="1400" y="205" width="20" height="30" as="geometry" />
        </mxCell>
        <mxCell id="vEdsJQJvJET6jsOQPGxz-32" value="" style="ellipse;whiteSpace=wrap;html=1;fillColor=#A9C4EB;fontStyle=1" parent="1" vertex="1">
          <mxGeometry x="1410" y="205" width="20" height="30" as="geometry" />
        </mxCell>
        <mxCell id="vEdsJQJvJET6jsOQPGxz-41" value="" style="shape=umlActor;verticalLabelPosition=bottom;verticalAlign=top;html=1;outlineConnect=0;fontStyle=1" parent="1" vertex="1">
          <mxGeometry x="1200" y="202.5" width="20" height="35" as="geometry" />
        </mxCell>
        <mxCell id="vEdsJQJvJET6jsOQPGxz-42" value="" style="shape=umlActor;verticalLabelPosition=bottom;verticalAlign=top;html=1;outlineConnect=0;fontStyle=1" parent="1" vertex="1">
          <mxGeometry x="1200" y="315" width="20" height="35" as="geometry" />
        </mxCell>
        <mxCell id="vEdsJQJvJET6jsOQPGxz-45" value="&lt;span&gt;............&lt;/span&gt;" style="text;html=1;align=center;verticalAlign=middle;resizable=0;points=[];autosize=1;strokeColor=none;fillColor=none;fontStyle=1" parent="1" vertex="1">
          <mxGeometry x="1170" y="250" width="60" height="30" as="geometry" />
        </mxCell>
        <mxCell id="vEdsJQJvJET6jsOQPGxz-46" value="" style="shape=umlActor;verticalLabelPosition=bottom;verticalAlign=top;html=1;outlineConnect=0;fontStyle=1" parent="1" vertex="1">
          <mxGeometry x="1200" y="120" width="20" height="35" as="geometry" />
        </mxCell>
        <mxCell id="vEdsJQJvJET6jsOQPGxz-47" style="edgeStyle=orthogonalEdgeStyle;rounded=0;orthogonalLoop=1;jettySize=auto;html=1;entryX=0.5;entryY=1;entryDx=0;entryDy=0;entryPerimeter=0;fontStyle=1" parent="1" source="vEdsJQJvJET6jsOQPGxz-46" target="vEdsJQJvJET6jsOQPGxz-10" edge="1">
          <mxGeometry relative="1" as="geometry">
            <Array as="points">
              <mxPoint x="1280" y="150" />
              <mxPoint x="1280" y="220" />
            </Array>
          </mxGeometry>
        </mxCell>
        <mxCell id="vEdsJQJvJET6jsOQPGxz-48" style="edgeStyle=orthogonalEdgeStyle;rounded=0;orthogonalLoop=1;jettySize=auto;html=1;entryX=0.5;entryY=1;entryDx=0;entryDy=0;entryPerimeter=0;fontStyle=1" parent="1" source="vEdsJQJvJET6jsOQPGxz-41" target="vEdsJQJvJET6jsOQPGxz-10" edge="1">
          <mxGeometry relative="1" as="geometry" />
        </mxCell>
        <mxCell id="vEdsJQJvJET6jsOQPGxz-49" style="edgeStyle=orthogonalEdgeStyle;rounded=0;orthogonalLoop=1;jettySize=auto;html=1;entryX=0.5;entryY=1;entryDx=0;entryDy=0;entryPerimeter=0;fontStyle=1" parent="1" source="vEdsJQJvJET6jsOQPGxz-42" target="vEdsJQJvJET6jsOQPGxz-10" edge="1">
          <mxGeometry relative="1" as="geometry">
            <Array as="points">
              <mxPoint x="1280" y="333" />
              <mxPoint x="1280" y="220" />
            </Array>
          </mxGeometry>
        </mxCell>
        <mxCell id="vEdsJQJvJET6jsOQPGxz-52" value="" style="ellipse;whiteSpace=wrap;html=1;fillColor=#A9C4EB;fontStyle=1" parent="1" vertex="1">
          <mxGeometry x="1420" y="205" width="20" height="30" as="geometry" />
        </mxCell>
        <mxCell id="vEdsJQJvJET6jsOQPGxz-54" value="" style="ellipse;whiteSpace=wrap;html=1;fillColor=#A9C4EB;fontStyle=1" parent="1" vertex="1">
          <mxGeometry x="1430" y="205" width="20" height="30" as="geometry" />
        </mxCell>
        <mxCell id="vEdsJQJvJET6jsOQPGxz-55" value="" style="ellipse;whiteSpace=wrap;html=1;fillColor=#A9C4EB;fontStyle=1" parent="1" vertex="1">
          <mxGeometry x="1440" y="205" width="20" height="30" as="geometry" />
        </mxCell>
        <mxCell id="vEdsJQJvJET6jsOQPGxz-57" value="" style="ellipse;whiteSpace=wrap;html=1;fillColor=#A9C4EB;fontStyle=1" parent="1" vertex="1">
          <mxGeometry x="1450" y="205" width="20" height="30" as="geometry" />
        </mxCell>
        <mxCell id="vEdsJQJvJET6jsOQPGxz-58" style="edgeStyle=orthogonalEdgeStyle;rounded=0;orthogonalLoop=1;jettySize=auto;html=1;entryX=0.5;entryY=1;entryDx=0;entryDy=0;entryPerimeter=0;fontStyle=1" parent="1" source="vEdsJQJvJET6jsOQPGxz-45" target="vEdsJQJvJET6jsOQPGxz-10" edge="1">
          <mxGeometry relative="1" as="geometry">
            <Array as="points">
              <mxPoint x="1280" y="265" />
              <mxPoint x="1280" y="220" />
            </Array>
          </mxGeometry>
        </mxCell>
        <mxCell id="se93l_hdjBHq4H-M8QWh-3" value="Send SMS" style="rounded=1;whiteSpace=wrap;html=1;fillColor=#D5E8D4;fontStyle=1" parent="1" vertex="1">
          <mxGeometry x="1980" y="569.5" width="80" height="20" as="geometry" />
        </mxCell>
        <mxCell id="se93l_hdjBHq4H-M8QWh-29" value="SMS API" style="rounded=1;whiteSpace=wrap;html=1;fillColor=#D5E8D4;fontStyle=1" parent="1" vertex="1">
          <mxGeometry x="1390" y="539" width="130" height="81" as="geometry" />
        </mxCell>
        <mxCell id="se93l_hdjBHq4H-M8QWh-48" value="" style="group;fontStyle=1" parent="1" vertex="1" connectable="0">
          <mxGeometry x="1560" y="557" width="170" height="45" as="geometry" />
        </mxCell>
        <mxCell id="se93l_hdjBHq4H-M8QWh-31" value="" style="shape=cylinder3;whiteSpace=wrap;html=1;boundedLbl=1;backgroundOutline=1;size=15;rotation=90;fillColor=#F19C99;fontStyle=1" parent="se93l_hdjBHq4H-M8QWh-48" vertex="1">
          <mxGeometry x="62.5" y="-62.5" width="45" height="170" as="geometry" />
        </mxCell>
        <mxCell id="se93l_hdjBHq4H-M8QWh-32" value="" style="ellipse;whiteSpace=wrap;html=1;fillColor=#A9C4EB;fontStyle=1" parent="se93l_hdjBHq4H-M8QWh-48" vertex="1">
          <mxGeometry x="15" y="7.5" width="20" height="30" as="geometry" />
        </mxCell>
        <mxCell id="se93l_hdjBHq4H-M8QWh-33" value="" style="ellipse;whiteSpace=wrap;html=1;fillColor=#A9C4EB;fontStyle=1" parent="se93l_hdjBHq4H-M8QWh-48" vertex="1">
          <mxGeometry x="25" y="7.5" width="20" height="30" as="geometry" />
        </mxCell>
        <mxCell id="se93l_hdjBHq4H-M8QWh-34" value="" style="ellipse;whiteSpace=wrap;html=1;fillColor=#A9C4EB;fontStyle=1" parent="se93l_hdjBHq4H-M8QWh-48" vertex="1">
          <mxGeometry x="35" y="7.5" width="20" height="30" as="geometry" />
        </mxCell>
        <mxCell id="se93l_hdjBHq4H-M8QWh-35" value="" style="ellipse;whiteSpace=wrap;html=1;fillColor=#A9C4EB;fontStyle=1" parent="se93l_hdjBHq4H-M8QWh-48" vertex="1">
          <mxGeometry x="45" y="7.5" width="20" height="30" as="geometry" />
        </mxCell>
        <mxCell id="se93l_hdjBHq4H-M8QWh-36" value="" style="ellipse;whiteSpace=wrap;html=1;fillColor=#A9C4EB;fontStyle=1" parent="se93l_hdjBHq4H-M8QWh-48" vertex="1">
          <mxGeometry x="55" y="7.5" width="20" height="30" as="geometry" />
        </mxCell>
        <mxCell id="se93l_hdjBHq4H-M8QWh-37" value="" style="ellipse;whiteSpace=wrap;html=1;fillColor=#A9C4EB;fontStyle=1" parent="se93l_hdjBHq4H-M8QWh-48" vertex="1">
          <mxGeometry x="65" y="7.5" width="20" height="30" as="geometry" />
        </mxCell>
        <mxCell id="se93l_hdjBHq4H-M8QWh-38" value="" style="ellipse;whiteSpace=wrap;html=1;fillColor=#A9C4EB;fontStyle=1" parent="se93l_hdjBHq4H-M8QWh-48" vertex="1">
          <mxGeometry x="75" y="7.5" width="20" height="30" as="geometry" />
        </mxCell>
        <mxCell id="se93l_hdjBHq4H-M8QWh-39" value="" style="ellipse;whiteSpace=wrap;html=1;fillColor=#A9C4EB;fontStyle=1" parent="se93l_hdjBHq4H-M8QWh-48" vertex="1">
          <mxGeometry x="85" y="7.5" width="20" height="30" as="geometry" />
        </mxCell>
        <mxCell id="se93l_hdjBHq4H-M8QWh-40" value="" style="ellipse;whiteSpace=wrap;html=1;fillColor=#A9C4EB;fontStyle=1" parent="se93l_hdjBHq4H-M8QWh-48" vertex="1">
          <mxGeometry x="95" y="7.5" width="20" height="30" as="geometry" />
        </mxCell>
        <mxCell id="se93l_hdjBHq4H-M8QWh-41" value="" style="ellipse;whiteSpace=wrap;html=1;fillColor=#A9C4EB;fontStyle=1" parent="se93l_hdjBHq4H-M8QWh-48" vertex="1">
          <mxGeometry x="105" y="7.5" width="20" height="30" as="geometry" />
        </mxCell>
        <mxCell id="se93l_hdjBHq4H-M8QWh-42" value="" style="ellipse;whiteSpace=wrap;html=1;fillColor=#A9C4EB;fontStyle=1" parent="se93l_hdjBHq4H-M8QWh-48" vertex="1">
          <mxGeometry x="115" y="7.5" width="20" height="30" as="geometry" />
        </mxCell>
        <mxCell id="se93l_hdjBHq4H-M8QWh-54" value="" style="group;fontStyle=1" parent="1" vertex="1" connectable="0">
          <mxGeometry x="1120" y="439.75" width="110" height="258.5" as="geometry" />
        </mxCell>
        <mxCell id="se93l_hdjBHq4H-M8QWh-49" value="" style="shape=umlActor;verticalLabelPosition=bottom;verticalAlign=top;html=1;outlineConnect=0;fontStyle=1" parent="se93l_hdjBHq4H-M8QWh-54" vertex="1">
          <mxGeometry x="45" y="91.5" width="20" height="35" as="geometry" />
        </mxCell>
        <mxCell id="se93l_hdjBHq4H-M8QWh-50" value="" style="shape=umlActor;verticalLabelPosition=bottom;verticalAlign=top;html=1;outlineConnect=0;fontStyle=1" parent="se93l_hdjBHq4H-M8QWh-54" vertex="1">
          <mxGeometry x="45" y="204" width="20" height="35" as="geometry" />
        </mxCell>
        <mxCell id="se93l_hdjBHq4H-M8QWh-51" value="&lt;span&gt;............&lt;/span&gt;" style="text;html=1;align=center;verticalAlign=middle;resizable=0;points=[];autosize=1;strokeColor=none;fillColor=none;fontStyle=1" parent="se93l_hdjBHq4H-M8QWh-54" vertex="1">
          <mxGeometry x="15" y="139" width="60" height="30" as="geometry" />
        </mxCell>
        <mxCell id="se93l_hdjBHq4H-M8QWh-52" value="" style="shape=umlActor;verticalLabelPosition=bottom;verticalAlign=top;html=1;outlineConnect=0;fontStyle=1" parent="se93l_hdjBHq4H-M8QWh-54" vertex="1">
          <mxGeometry x="45" y="9" width="20" height="35" as="geometry" />
        </mxCell>
        <mxCell id="se93l_hdjBHq4H-M8QWh-53" value="" style="rounded=0;whiteSpace=wrap;html=1;fillColor=none;dashed=1;fontStyle=1" parent="se93l_hdjBHq4H-M8QWh-54" vertex="1">
          <mxGeometry width="110" height="258.5" as="geometry" />
        </mxCell>
        <mxCell id="se93l_hdjBHq4H-M8QWh-56" style="edgeStyle=orthogonalEdgeStyle;rounded=0;orthogonalLoop=1;jettySize=auto;html=1;entryX=0;entryY=0.25;entryDx=0;entryDy=0;fontStyle=1" parent="1" source="se93l_hdjBHq4H-M8QWh-53" target="se93l_hdjBHq4H-M8QWh-29" edge="1">
          <mxGeometry relative="1" as="geometry">
            <Array as="points">
              <mxPoint x="1310" y="560" />
            </Array>
          </mxGeometry>
        </mxCell>
        <mxCell id="se93l_hdjBHq4H-M8QWh-57" style="edgeStyle=orthogonalEdgeStyle;rounded=0;orthogonalLoop=1;jettySize=auto;html=1;strokeColor=#97D077;fontStyle=1" parent="1" source="se93l_hdjBHq4H-M8QWh-29" edge="1">
          <mxGeometry relative="1" as="geometry">
            <mxPoint x="1230" y="600" as="targetPoint" />
            <Array as="points">
              <mxPoint x="1230" y="600" />
            </Array>
          </mxGeometry>
        </mxCell>
        <mxCell id="se93l_hdjBHq4H-M8QWh-58" value="Response" style="edgeLabel;html=1;align=center;verticalAlign=middle;resizable=0;points=[];fontStyle=1" parent="se93l_hdjBHq4H-M8QWh-57" vertex="1" connectable="0">
          <mxGeometry x="0.1335" y="-1" relative="1" as="geometry">
            <mxPoint as="offset" />
          </mxGeometry>
        </mxCell>
        <mxCell id="KKwOv5Il1TyTHY13jNfH-2" value="用户会立即收到响应" style="text;html=1;align=left;verticalAlign=middle;resizable=0;points=[];autosize=1;strokeColor=none;fillColor=none;fontStyle=1" parent="1" vertex="1">
          <mxGeometry x="1395" y="630" width="130" height="30" as="geometry" />
        </mxCell>
        <mxCell id="KKwOv5Il1TyTHY13jNfH-8" style="edgeStyle=orthogonalEdgeStyle;rounded=0;orthogonalLoop=1;jettySize=auto;html=1;entryX=0.5;entryY=1;entryDx=0;entryDy=0;entryPerimeter=0;fontStyle=1" parent="1" source="se93l_hdjBHq4H-M8QWh-29" target="se93l_hdjBHq4H-M8QWh-31" edge="1">
          <mxGeometry relative="1" as="geometry" />
        </mxCell>
        <mxCell id="KKwOv5Il1TyTHY13jNfH-11" value="阻塞队列" style="text;html=1;align=left;verticalAlign=middle;resizable=0;points=[];autosize=1;strokeColor=none;fillColor=none;fontStyle=1" parent="1" vertex="1">
          <mxGeometry x="1610" y="610" width="70" height="30" as="geometry" />
        </mxCell>
        <mxCell id="xg06a3iDjOgLRZ0BCeSt-1" value="&lt;div class=&quot;lake-content&quot;&gt;&lt;span class=&quot;ne-text&quot;&gt;Executor&lt;/span&gt;&lt;/div&gt;" style="rounded=1;whiteSpace=wrap;html=1;fillColor=none;fontStyle=1" parent="1" vertex="1">
          <mxGeometry x="1105" y="900" width="110" height="20" as="geometry" />
        </mxCell>
        <mxCell id="xg06a3iDjOgLRZ0BCeSt-7" value="" style="edgeStyle=orthogonalEdgeStyle;rounded=0;orthogonalLoop=1;jettySize=auto;html=1;fontStyle=1" parent="1" source="xg06a3iDjOgLRZ0BCeSt-2" target="xg06a3iDjOgLRZ0BCeSt-3" edge="1">
          <mxGeometry relative="1" as="geometry" />
        </mxCell>
        <mxCell id="xg06a3iDjOgLRZ0BCeSt-9" value="简化、封装" style="edgeLabel;html=1;align=center;verticalAlign=middle;resizable=0;points=[];fontStyle=1" parent="xg06a3iDjOgLRZ0BCeSt-7" vertex="1" connectable="0">
          <mxGeometry x="-0.0167" relative="1" as="geometry">
            <mxPoint as="offset" />
          </mxGeometry>
        </mxCell>
        <mxCell id="xg06a3iDjOgLRZ0BCeSt-8" style="edgeStyle=orthogonalEdgeStyle;rounded=0;orthogonalLoop=1;jettySize=auto;html=1;entryX=1;entryY=0.5;entryDx=0;entryDy=0;fontStyle=1" parent="1" source="xg06a3iDjOgLRZ0BCeSt-2" target="xg06a3iDjOgLRZ0BCeSt-1" edge="1">
          <mxGeometry relative="1" as="geometry">
            <Array as="points">
              <mxPoint x="1250" y="1035" />
              <mxPoint x="1250" y="910" />
            </Array>
          </mxGeometry>
        </mxCell>
        <mxCell id="xg06a3iDjOgLRZ0BCeSt-2" value="&lt;div class=&quot;lake-content&quot;&gt;&lt;div class=&quot;lake-content&quot;&gt;&lt;div class=&quot;lake-content&quot;&gt;&lt;span class=&quot;ne-text&quot;&gt;ThreadPoolTaskExecutor&lt;/span&gt;&lt;/div&gt;&lt;/div&gt;&lt;/div&gt;" style="rounded=1;whiteSpace=wrap;html=1;fillColor=#B9E0A5;fontStyle=1" parent="1" vertex="1">
          <mxGeometry x="1090" y="1020" width="140" height="30" as="geometry" />
        </mxCell>
        <mxCell id="xg06a3iDjOgLRZ0BCeSt-5" value="" style="edgeStyle=orthogonalEdgeStyle;rounded=0;orthogonalLoop=1;jettySize=auto;html=1;fontStyle=1" parent="1" source="xg06a3iDjOgLRZ0BCeSt-3" target="xg06a3iDjOgLRZ0BCeSt-1" edge="1">
          <mxGeometry relative="1" as="geometry" />
        </mxCell>
        <mxCell id="xg06a3iDjOgLRZ0BCeSt-3" value="&lt;div class=&quot;lake-content&quot;&gt;&lt;div class=&quot;lake-content&quot;&gt;&lt;span class=&quot;ne-text&quot;&gt;ThreadPoolExecutor&lt;/span&gt;&lt;/div&gt;&lt;/div&gt;" style="rounded=1;whiteSpace=wrap;html=1;fillColor=#FFCCCC;fontStyle=1" parent="1" vertex="1">
          <mxGeometry x="1090" y="950" width="140" height="30" as="geometry" />
        </mxCell>
        <mxCell id="4dT-DWwZLFFdWcqSDPXJ-1" value="" style="rounded=0;whiteSpace=wrap;html=1;fillColor=none;dashed=1;fontStyle=1" parent="1" vertex="1">
          <mxGeometry x="1720" y="170" width="130" height="110" as="geometry" />
        </mxCell>
        <mxCell id="4dT-DWwZLFFdWcqSDPXJ-2" value="Send SMS" style="rounded=1;whiteSpace=wrap;html=1;fillColor=#D5E8D4;fontStyle=1" parent="1" vertex="1">
          <mxGeometry x="1745" y="210" width="80" height="20" as="geometry" />
        </mxCell>
        <mxCell id="4dT-DWwZLFFdWcqSDPXJ-9" style="edgeStyle=orthogonalEdgeStyle;rounded=0;orthogonalLoop=1;jettySize=auto;html=1;entryX=0;entryY=0.5;entryDx=0;entryDy=0;fontStyle=1" parent="1" source="4dT-DWwZLFFdWcqSDPXJ-7" target="4dT-DWwZLFFdWcqSDPXJ-2" edge="1">
          <mxGeometry relative="1" as="geometry" />
        </mxCell>
        <mxCell id="4dT-DWwZLFFdWcqSDPXJ-7" value="http连接池" style="ellipse;whiteSpace=wrap;html=1;fillColor=none;fontStyle=1" parent="1" vertex="1">
          <mxGeometry x="1580" y="180" width="120" height="80" as="geometry" />
        </mxCell>
        <mxCell id="4dT-DWwZLFFdWcqSDPXJ-12" value="每次TCP连接后，不需要再重新建立&lt;div&gt;&lt;span style=&quot;font-size: 14px; color: rgb(38, 38, 38); line-height: 1.74; letter-spacing: 0.05em; outline-style: none; overflow-wrap: break-word;&quot;&gt;池化可以避免频繁地创建和销毁对象、连接或线程&lt;/span&gt;&lt;br&gt;&lt;/div&gt;" style="text;html=1;align=center;verticalAlign=middle;resizable=0;points=[];autosize=1;strokeColor=none;fillColor=none;fontStyle=1" parent="1" vertex="1">
          <mxGeometry x="1450" y="120" width="350" height="50" as="geometry" />
        </mxCell>
        <mxCell id="4dT-DWwZLFFdWcqSDPXJ-15" style="edgeStyle=orthogonalEdgeStyle;rounded=0;orthogonalLoop=1;jettySize=auto;html=1;entryX=0;entryY=0.5;entryDx=0;entryDy=0;fontStyle=1" parent="1" source="4dT-DWwZLFFdWcqSDPXJ-13" target="se93l_hdjBHq4H-M8QWh-3" edge="1">
          <mxGeometry relative="1" as="geometry" />
        </mxCell>
        <mxCell id="4dT-DWwZLFFdWcqSDPXJ-13" value="http连接池" style="ellipse;whiteSpace=wrap;html=1;fillColor=none;fontStyle=1" parent="1" vertex="1">
          <mxGeometry x="1800" y="539" width="120" height="80" as="geometry" />
        </mxCell>
        <mxCell id="4dT-DWwZLFFdWcqSDPXJ-14" style="edgeStyle=orthogonalEdgeStyle;rounded=0;orthogonalLoop=1;jettySize=auto;html=1;fontStyle=1" parent="1" source="se93l_hdjBHq4H-M8QWh-31" target="4dT-DWwZLFFdWcqSDPXJ-13" edge="1">
          <mxGeometry relative="1" as="geometry" />
        </mxCell>
        <mxCell id="K-JyI_M0FiB9nO0yxgkt-4" style="edgeStyle=orthogonalEdgeStyle;rounded=0;orthogonalLoop=1;jettySize=auto;html=1;fontStyle=1" parent="1" source="K-JyI_M0FiB9nO0yxgkt-1" target="K-JyI_M0FiB9nO0yxgkt-3" edge="1">
          <mxGeometry relative="1" as="geometry" />
        </mxCell>
        <mxCell id="K-JyI_M0FiB9nO0yxgkt-7" value="共用同一个IP" style="edgeLabel;html=1;align=center;verticalAlign=middle;resizable=0;points=[];fontStyle=1" parent="K-JyI_M0FiB9nO0yxgkt-4" vertex="1" connectable="0">
          <mxGeometry x="-0.2222" y="2" relative="1" as="geometry">
            <mxPoint as="offset" />
          </mxGeometry>
        </mxCell>
        <mxCell id="K-JyI_M0FiB9nO0yxgkt-1" value="" style="ellipse;shape=cloud;whiteSpace=wrap;html=1;fillColor=none;fontStyle=1" parent="1" vertex="1">
          <mxGeometry x="320" y="745" width="380" height="190" as="geometry" />
        </mxCell>
        <mxCell id="K-JyI_M0FiB9nO0yxgkt-2" value="IP3" style="shape=umlActor;verticalLabelPosition=bottom;verticalAlign=top;html=1;outlineConnect=0;fontStyle=1" parent="1" vertex="1">
          <mxGeometry x="560" y="820" width="30" height="60" as="geometry" />
        </mxCell>
        <mxCell id="K-JyI_M0FiB9nO0yxgkt-3" value="Traditional&#xa;server" style="sketch=0;outlineConnect=0;fontColor=#232F3E;gradientColor=none;strokeColor=#232F3E;fillColor=#ffffff;dashed=0;verticalLabelPosition=bottom;verticalAlign=top;align=center;html=1;fontSize=12;fontStyle=1;aspect=fixed;shape=mxgraph.aws4.resourceIcon;resIcon=mxgraph.aws4.traditional_server;" parent="1" vertex="1">
          <mxGeometry x="870" y="810" width="60" height="60" as="geometry" />
        </mxCell>
        <mxCell id="K-JyI_M0FiB9nO0yxgkt-5" value="IP1" style="shape=umlActor;verticalLabelPosition=bottom;verticalAlign=top;html=1;outlineConnect=0;fontStyle=1" parent="1" vertex="1">
          <mxGeometry x="409" y="820" width="30" height="60" as="geometry" />
        </mxCell>
        <mxCell id="K-JyI_M0FiB9nO0yxgkt-6" value="IP2" style="shape=umlActor;verticalLabelPosition=bottom;verticalAlign=top;html=1;outlineConnect=0;fontStyle=1" parent="1" vertex="1">
          <mxGeometry x="485" y="800" width="30" height="60" as="geometry" />
        </mxCell>
        <mxCell id="K-JyI_M0FiB9nO0yxgkt-58" value="" style="edgeStyle=orthogonalEdgeStyle;rounded=0;orthogonalLoop=1;jettySize=auto;html=1;fontStyle=1" parent="1" source="K-JyI_M0FiB9nO0yxgkt-54" target="K-JyI_M0FiB9nO0yxgkt-57" edge="1">
          <mxGeometry relative="1" as="geometry" />
        </mxCell>
        <mxCell id="K-JyI_M0FiB9nO0yxgkt-54" value="获取图片验证码" style="rounded=1;whiteSpace=wrap;html=1;fillColor=none;fontStyle=1" parent="1" vertex="1">
          <mxGeometry x="2220" y="185" width="100" height="35" as="geometry" />
        </mxCell>
        <mxCell id="K-JyI_M0FiB9nO0yxgkt-56" value="" style="edgeStyle=orthogonalEdgeStyle;rounded=0;orthogonalLoop=1;jettySize=auto;html=1;fontStyle=1" parent="1" source="K-JyI_M0FiB9nO0yxgkt-55" target="K-JyI_M0FiB9nO0yxgkt-54" edge="1">
          <mxGeometry relative="1" as="geometry" />
        </mxCell>
        <mxCell id="K-JyI_M0FiB9nO0yxgkt-55" value="开始" style="rounded=1;whiteSpace=wrap;html=1;fillColor=none;fontStyle=1" parent="1" vertex="1">
          <mxGeometry x="2230" y="130" width="80" height="20" as="geometry" />
        </mxCell>
        <mxCell id="K-JyI_M0FiB9nO0yxgkt-60" style="edgeStyle=orthogonalEdgeStyle;rounded=0;orthogonalLoop=1;jettySize=auto;html=1;fontStyle=1" parent="1" source="K-JyI_M0FiB9nO0yxgkt-57" target="K-JyI_M0FiB9nO0yxgkt-59" edge="1">
          <mxGeometry relative="1" as="geometry" />
        </mxCell>
        <mxCell id="K-JyI_M0FiB9nO0yxgkt-63" value="" style="edgeStyle=orthogonalEdgeStyle;rounded=0;orthogonalLoop=1;jettySize=auto;html=1;fontStyle=1" parent="1" source="K-JyI_M0FiB9nO0yxgkt-57" target="K-JyI_M0FiB9nO0yxgkt-61" edge="1">
          <mxGeometry relative="1" as="geometry" />
        </mxCell>
        <mxCell id="K-JyI_M0FiB9nO0yxgkt-57" value="存储验证码" style="rounded=1;whiteSpace=wrap;html=1;fillColor=none;fontStyle=1" parent="1" vertex="1">
          <mxGeometry x="2220" y="255" width="100" height="35" as="geometry" />
        </mxCell>
        <mxCell id="K-JyI_M0FiB9nO0yxgkt-59" value="" style="image;sketch=0;aspect=fixed;html=1;points=[];align=center;fontSize=12;image=img/lib/mscae/Cache_Redis_Product.svg;fontStyle=1" parent="1" vertex="1">
          <mxGeometry x="2370" y="251.5" width="50" height="42" as="geometry" />
        </mxCell>
        <mxCell id="K-JyI_M0FiB9nO0yxgkt-65" value="" style="edgeStyle=orthogonalEdgeStyle;rounded=0;orthogonalLoop=1;jettySize=auto;html=1;fontStyle=1" parent="1" source="K-JyI_M0FiB9nO0yxgkt-61" target="K-JyI_M0FiB9nO0yxgkt-64" edge="1">
          <mxGeometry relative="1" as="geometry" />
        </mxCell>
        <mxCell id="K-JyI_M0FiB9nO0yxgkt-61" value="返回图片数据" style="rounded=1;whiteSpace=wrap;html=1;fillColor=none;fontStyle=1" parent="1" vertex="1">
          <mxGeometry x="2220" y="315" width="100" height="35" as="geometry" />
        </mxCell>
        <mxCell id="K-JyI_M0FiB9nO0yxgkt-64" value="结束" style="rounded=1;whiteSpace=wrap;html=1;fillColor=none;fontStyle=1" parent="1" vertex="1">
          <mxGeometry x="2230" y="380" width="80" height="20" as="geometry" />
        </mxCell>
        <mxCell id="K-JyI_M0FiB9nO0yxgkt-78" value="" style="edgeStyle=orthogonalEdgeStyle;rounded=0;orthogonalLoop=1;jettySize=auto;html=1;fontStyle=1" parent="1" source="K-JyI_M0FiB9nO0yxgkt-69" target="K-JyI_M0FiB9nO0yxgkt-77" edge="1">
          <mxGeometry relative="1" as="geometry" />
        </mxCell>
        <mxCell id="K-JyI_M0FiB9nO0yxgkt-69" value="开始" style="rounded=1;whiteSpace=wrap;html=1;fillColor=none;fontStyle=1" parent="1" vertex="1">
          <mxGeometry x="2510" y="60" width="80" height="20" as="geometry" />
        </mxCell>
        <mxCell id="K-JyI_M0FiB9nO0yxgkt-80" value="" style="edgeStyle=orthogonalEdgeStyle;rounded=0;orthogonalLoop=1;jettySize=auto;html=1;strokeColor=#EA6B66;fontStyle=1" parent="1" source="K-JyI_M0FiB9nO0yxgkt-73" target="K-JyI_M0FiB9nO0yxgkt-77" edge="1">
          <mxGeometry relative="1" as="geometry" />
        </mxCell>
        <mxCell id="K-JyI_M0FiB9nO0yxgkt-73" value="" style="image;sketch=0;aspect=fixed;html=1;points=[];align=center;fontSize=12;image=img/lib/mscae/Cache_Redis_Product.svg;fontStyle=1" parent="1" vertex="1">
          <mxGeometry x="2680" y="139" width="50" height="42" as="geometry" />
        </mxCell>
        <mxCell id="K-JyI_M0FiB9nO0yxgkt-76" value="结束" style="rounded=1;whiteSpace=wrap;html=1;fillColor=none;fontStyle=1" parent="1" vertex="1">
          <mxGeometry x="2510" y="460" width="80" height="20" as="geometry" />
        </mxCell>
        <mxCell id="K-JyI_M0FiB9nO0yxgkt-96" value="Y" style="edgeStyle=orthogonalEdgeStyle;rounded=0;orthogonalLoop=1;jettySize=auto;html=1;fontStyle=1" parent="1" source="K-JyI_M0FiB9nO0yxgkt-77" target="K-JyI_M0FiB9nO0yxgkt-90" edge="1">
          <mxGeometry relative="1" as="geometry" />
        </mxCell>
        <mxCell id="K-JyI_M0FiB9nO0yxgkt-102" value="N" style="edgeStyle=orthogonalEdgeStyle;rounded=0;orthogonalLoop=1;jettySize=auto;html=1;entryX=0;entryY=0.5;entryDx=0;entryDy=0;fontStyle=1" parent="1" source="K-JyI_M0FiB9nO0yxgkt-77" target="K-JyI_M0FiB9nO0yxgkt-76" edge="1">
          <mxGeometry relative="1" as="geometry">
            <Array as="points">
              <mxPoint x="2450" y="160" />
              <mxPoint x="2450" y="470" />
            </Array>
          </mxGeometry>
        </mxCell>
        <mxCell id="K-JyI_M0FiB9nO0yxgkt-77" value="校验图形验证码&lt;br&gt;是否正确" style="rhombus;whiteSpace=wrap;html=1;fillColor=none;fontStyle=1" parent="1" vertex="1">
          <mxGeometry x="2490" y="120" width="120" height="80" as="geometry" />
        </mxCell>
        <mxCell id="K-JyI_M0FiB9nO0yxgkt-97" value="" style="edgeStyle=orthogonalEdgeStyle;rounded=0;orthogonalLoop=1;jettySize=auto;html=1;fontStyle=1" parent="1" source="K-JyI_M0FiB9nO0yxgkt-90" target="K-JyI_M0FiB9nO0yxgkt-95" edge="1">
          <mxGeometry relative="1" as="geometry" />
        </mxCell>
        <mxCell id="K-JyI_M0FiB9nO0yxgkt-90" value="删除图像验证码" style="rounded=1;whiteSpace=wrap;html=1;fillColor=none;fontStyle=1" parent="1" vertex="1">
          <mxGeometry x="2500" y="237.5" width="100" height="35" as="geometry" />
        </mxCell>
        <mxCell id="K-JyI_M0FiB9nO0yxgkt-93" style="edgeStyle=orthogonalEdgeStyle;rounded=0;orthogonalLoop=1;jettySize=auto;html=1;entryX=0.468;entryY=0.959;entryDx=0;entryDy=0;entryPerimeter=0;strokeColor=#EA6B66;fontStyle=1" parent="1" source="K-JyI_M0FiB9nO0yxgkt-90" target="K-JyI_M0FiB9nO0yxgkt-73" edge="1">
          <mxGeometry relative="1" as="geometry" />
        </mxCell>
        <mxCell id="K-JyI_M0FiB9nO0yxgkt-99" value="" style="edgeStyle=orthogonalEdgeStyle;rounded=0;orthogonalLoop=1;jettySize=auto;html=1;fontStyle=1" parent="1" source="K-JyI_M0FiB9nO0yxgkt-94" target="K-JyI_M0FiB9nO0yxgkt-76" edge="1">
          <mxGeometry relative="1" as="geometry" />
        </mxCell>
        <mxCell id="K-JyI_M0FiB9nO0yxgkt-94" value="生成随机验证码&lt;br&gt;发送短信" style="rounded=1;whiteSpace=wrap;html=1;fillColor=none;fontStyle=1" parent="1" vertex="1">
          <mxGeometry x="2500" y="400" width="100" height="35" as="geometry" />
        </mxCell>
        <mxCell id="K-JyI_M0FiB9nO0yxgkt-98" value="" style="edgeStyle=orthogonalEdgeStyle;rounded=0;orthogonalLoop=1;jettySize=auto;html=1;fontStyle=1" parent="1" source="K-JyI_M0FiB9nO0yxgkt-95" target="K-JyI_M0FiB9nO0yxgkt-94" edge="1">
          <mxGeometry relative="1" as="geometry" />
        </mxCell>
        <mxCell id="K-JyI_M0FiB9nO0yxgkt-95" value="校验是手机号&lt;br&gt;或邮箱" style="rhombus;whiteSpace=wrap;html=1;fillColor=none;fontStyle=1" parent="1" vertex="1">
          <mxGeometry x="2490" y="293.5" width="120" height="80" as="geometry" />
        </mxCell>
        <mxCell id="K-JyI_M0FiB9nO0yxgkt-118" value="" style="edgeStyle=orthogonalEdgeStyle;rounded=0;orthogonalLoop=1;jettySize=auto;html=1;fontStyle=1" parent="1" source="K-JyI_M0FiB9nO0yxgkt-104" target="K-JyI_M0FiB9nO0yxgkt-112" edge="1">
          <mxGeometry relative="1" as="geometry" />
        </mxCell>
        <mxCell id="K-JyI_M0FiB9nO0yxgkt-104" value="开始" style="rounded=1;whiteSpace=wrap;html=1;fillColor=none;fontStyle=1" parent="1" vertex="1">
          <mxGeometry x="2920" y="45" width="80" height="20" as="geometry" />
        </mxCell>
        <mxCell id="K-JyI_M0FiB9nO0yxgkt-125" style="edgeStyle=orthogonalEdgeStyle;rounded=0;orthogonalLoop=1;jettySize=auto;html=1;entryX=0;entryY=0.5;entryDx=0;entryDy=0;strokeColor=#EA6B66;fontStyle=1" parent="1" source="K-JyI_M0FiB9nO0yxgkt-106" target="K-JyI_M0FiB9nO0yxgkt-123" edge="1">
          <mxGeometry relative="1" as="geometry" />
        </mxCell>
        <mxCell id="K-JyI_M0FiB9nO0yxgkt-106" value="" style="image;sketch=0;aspect=fixed;html=1;points=[];align=center;fontSize=12;image=img/lib/mscae/Cache_Redis_Product.svg;fontStyle=1" parent="1" vertex="1">
          <mxGeometry x="3070" y="172.5" width="50" height="42" as="geometry" />
        </mxCell>
        <mxCell id="K-JyI_M0FiB9nO0yxgkt-107" value="结束" style="rounded=1;whiteSpace=wrap;html=1;fillColor=none;fontStyle=1" parent="1" vertex="1">
          <mxGeometry x="2920" y="192.5" width="80" height="20" as="geometry" />
        </mxCell>
        <mxCell id="K-JyI_M0FiB9nO0yxgkt-119" style="edgeStyle=orthogonalEdgeStyle;rounded=0;orthogonalLoop=1;jettySize=auto;html=1;strokeColor=#EA6B66;fontStyle=1" parent="1" source="K-JyI_M0FiB9nO0yxgkt-112" target="K-JyI_M0FiB9nO0yxgkt-106" edge="1">
          <mxGeometry relative="1" as="geometry" />
        </mxCell>
        <mxCell id="K-JyI_M0FiB9nO0yxgkt-120" value="13599829312:1234_78723232323423&lt;br&gt;有效期：10分钟" style="edgeLabel;html=1;align=center;verticalAlign=middle;resizable=0;points=[];fontStyle=1" parent="K-JyI_M0FiB9nO0yxgkt-119" vertex="1" connectable="0">
          <mxGeometry x="-0.4713" y="1" relative="1" as="geometry">
            <mxPoint x="52" y="34" as="offset" />
          </mxGeometry>
        </mxCell>
        <mxCell id="K-JyI_M0FiB9nO0yxgkt-121" style="edgeStyle=orthogonalEdgeStyle;rounded=0;orthogonalLoop=1;jettySize=auto;html=1;entryX=0.5;entryY=0;entryDx=0;entryDy=0;fontStyle=1" parent="1" source="K-JyI_M0FiB9nO0yxgkt-112" target="K-JyI_M0FiB9nO0yxgkt-107" edge="1">
          <mxGeometry relative="1" as="geometry" />
        </mxCell>
        <mxCell id="K-JyI_M0FiB9nO0yxgkt-112" value="存储验证码" style="rounded=1;whiteSpace=wrap;html=1;fillColor=none;fontStyle=1" parent="1" vertex="1">
          <mxGeometry x="2910" y="95" width="100" height="35" as="geometry" />
        </mxCell>
        <mxCell id="K-JyI_M0FiB9nO0yxgkt-124" value="" style="edgeStyle=orthogonalEdgeStyle;rounded=0;orthogonalLoop=1;jettySize=auto;html=1;fontStyle=1" parent="1" source="K-JyI_M0FiB9nO0yxgkt-122" target="K-JyI_M0FiB9nO0yxgkt-123" edge="1">
          <mxGeometry relative="1" as="geometry" />
        </mxCell>
        <mxCell id="K-JyI_M0FiB9nO0yxgkt-122" value="再次发送验证码" style="rounded=1;whiteSpace=wrap;html=1;fillColor=none;fontStyle=1" parent="1" vertex="1">
          <mxGeometry x="3240" y="40" width="90" height="40" as="geometry" />
        </mxCell>
        <mxCell id="K-JyI_M0FiB9nO0yxgkt-130" value="Y" style="edgeStyle=orthogonalEdgeStyle;rounded=0;orthogonalLoop=1;jettySize=auto;html=1;fontStyle=1" parent="1" source="K-JyI_M0FiB9nO0yxgkt-123" target="K-JyI_M0FiB9nO0yxgkt-129" edge="1">
          <mxGeometry relative="1" as="geometry" />
        </mxCell>
        <mxCell id="K-JyI_M0FiB9nO0yxgkt-137" value="N" style="edgeStyle=orthogonalEdgeStyle;rounded=0;orthogonalLoop=1;jettySize=auto;html=1;entryX=1;entryY=0.5;entryDx=0;entryDy=0;fontStyle=1" parent="1" source="K-JyI_M0FiB9nO0yxgkt-123" target="K-JyI_M0FiB9nO0yxgkt-126" edge="1">
          <mxGeometry relative="1" as="geometry">
            <Array as="points">
              <mxPoint x="3390" y="160" />
              <mxPoint x="3390" y="380" />
            </Array>
          </mxGeometry>
        </mxCell>
        <mxCell id="K-JyI_M0FiB9nO0yxgkt-123" value="判断是否超过60秒" style="rhombus;whiteSpace=wrap;html=1;fillColor=none;fontStyle=1" parent="1" vertex="1">
          <mxGeometry x="3225" y="120" width="120" height="80" as="geometry" />
        </mxCell>
        <mxCell id="K-JyI_M0FiB9nO0yxgkt-126" value="结束" style="rounded=1;whiteSpace=wrap;html=1;fillColor=none;fontStyle=1" parent="1" vertex="1">
          <mxGeometry x="3245" y="370" width="80" height="20" as="geometry" />
        </mxCell>
        <mxCell id="K-JyI_M0FiB9nO0yxgkt-135" value="" style="edgeStyle=orthogonalEdgeStyle;rounded=0;orthogonalLoop=1;jettySize=auto;html=1;fontStyle=1" parent="1" source="K-JyI_M0FiB9nO0yxgkt-129" target="K-JyI_M0FiB9nO0yxgkt-134" edge="1">
          <mxGeometry relative="1" as="geometry" />
        </mxCell>
        <mxCell id="K-JyI_M0FiB9nO0yxgkt-129" value="生成新验证码&lt;br&gt;并存储到Redis" style="rounded=1;whiteSpace=wrap;html=1;fillColor=none;fontStyle=1" parent="1" vertex="1">
          <mxGeometry x="3235" y="240" width="100" height="35" as="geometry" />
        </mxCell>
        <mxCell id="K-JyI_M0FiB9nO0yxgkt-133" style="edgeStyle=orthogonalEdgeStyle;rounded=0;orthogonalLoop=1;jettySize=auto;html=1;entryX=0.53;entryY=0.999;entryDx=0;entryDy=0;entryPerimeter=0;strokeColor=#EA6B66;fontStyle=1" parent="1" source="K-JyI_M0FiB9nO0yxgkt-129" target="K-JyI_M0FiB9nO0yxgkt-106" edge="1">
          <mxGeometry relative="1" as="geometry" />
        </mxCell>
        <mxCell id="K-JyI_M0FiB9nO0yxgkt-136" value="" style="edgeStyle=orthogonalEdgeStyle;rounded=0;orthogonalLoop=1;jettySize=auto;html=1;fontStyle=1" parent="1" source="K-JyI_M0FiB9nO0yxgkt-134" target="K-JyI_M0FiB9nO0yxgkt-126" edge="1">
          <mxGeometry relative="1" as="geometry" />
        </mxCell>
        <mxCell id="K-JyI_M0FiB9nO0yxgkt-134" value="发送验证码" style="rounded=1;whiteSpace=wrap;html=1;fillColor=none;fontStyle=1" parent="1" vertex="1">
          <mxGeometry x="3235" y="307.5" width="100" height="35" as="geometry" />
        </mxCell>
        <mxCell id="CYLU-5RYoMURPyQihZAW-15" value="&lt;b&gt;1.访问短链&lt;/b&gt;" style="edgeStyle=orthogonalEdgeStyle;rounded=0;orthogonalLoop=1;jettySize=auto;html=1;entryX=0;entryY=0.25;entryDx=0;entryDy=0;strokeColor=#7EA6E0;" parent="1" source="CYLU-5RYoMURPyQihZAW-1" target="CYLU-5RYoMURPyQihZAW-2" edge="1">
          <mxGeometry x="0.0024" relative="1" as="geometry">
            <mxPoint as="offset" />
          </mxGeometry>
        </mxCell>
        <mxCell id="CYLU-5RYoMURPyQihZAW-18" value="3.跳转到目标站点" style="edgeStyle=orthogonalEdgeStyle;rounded=0;orthogonalLoop=1;jettySize=auto;html=1;entryX=0.5;entryY=1;entryDx=0;entryDy=0;strokeColor=#7EA6E0;fontStyle=1" parent="1" source="CYLU-5RYoMURPyQihZAW-1" target="CYLU-5RYoMURPyQihZAW-17" edge="1">
          <mxGeometry relative="1" as="geometry" />
        </mxCell>
        <mxCell id="CYLU-5RYoMURPyQihZAW-1" value="普通用户" style="shape=umlActor;verticalLabelPosition=bottom;verticalAlign=top;html=1;outlineConnect=0;fontStyle=1" parent="1" vertex="1">
          <mxGeometry x="2910" y="619" width="30" height="60" as="geometry" />
        </mxCell>
        <mxCell id="CYLU-5RYoMURPyQihZAW-7" value="" style="edgeStyle=orthogonalEdgeStyle;rounded=0;orthogonalLoop=1;jettySize=auto;html=1;fontStyle=1" parent="1" source="CYLU-5RYoMURPyQihZAW-2" target="CYLU-5RYoMURPyQihZAW-5" edge="1">
          <mxGeometry relative="1" as="geometry">
            <Array as="points">
              <mxPoint x="3210" y="799" />
              <mxPoint x="3140" y="799" />
            </Array>
          </mxGeometry>
        </mxCell>
        <mxCell id="CYLU-5RYoMURPyQihZAW-8" value="&lt;span&gt;2.扣减流量包&lt;/span&gt;" style="edgeLabel;html=1;align=center;verticalAlign=middle;resizable=0;points=[];fontStyle=1" parent="CYLU-5RYoMURPyQihZAW-7" vertex="1" connectable="0">
          <mxGeometry x="-0.1282" y="3" relative="1" as="geometry">
            <mxPoint x="-45" y="8" as="offset" />
          </mxGeometry>
        </mxCell>
        <mxCell id="CYLU-5RYoMURPyQihZAW-12" value="4.存储短链" style="edgeStyle=orthogonalEdgeStyle;rounded=0;orthogonalLoop=1;jettySize=auto;html=1;fontStyle=1" parent="1" source="CYLU-5RYoMURPyQihZAW-2" target="CYLU-5RYoMURPyQihZAW-11" edge="1">
          <mxGeometry x="0.4" y="-2" relative="1" as="geometry">
            <mxPoint as="offset" />
          </mxGeometry>
        </mxCell>
        <mxCell id="Rwd-Yh-OvxQPfiBLRn_k-28" value="&lt;b&gt;3.生成短链码&lt;/b&gt;" style="edgeStyle=elbowEdgeStyle;rounded=0;orthogonalLoop=1;jettySize=auto;html=1;entryX=0.5;entryY=0;entryDx=0;entryDy=0;elbow=vertical;" parent="1" source="CYLU-5RYoMURPyQihZAW-2" target="Rwd-Yh-OvxQPfiBLRn_k-27" edge="1">
          <mxGeometry x="0.2897" y="-11" relative="1" as="geometry">
            <mxPoint as="offset" />
          </mxGeometry>
        </mxCell>
        <mxCell id="CYLU-5RYoMURPyQihZAW-2" value="短链服务" style="rounded=0;whiteSpace=wrap;html=1;fillColor=#D5E8D4;fontStyle=1" parent="1" vertex="1">
          <mxGeometry x="3150" y="698.25" width="120" height="60" as="geometry" />
        </mxCell>
        <mxCell id="CYLU-5RYoMURPyQihZAW-4" value="&lt;span&gt;1.创建短链&lt;/span&gt;" style="edgeStyle=orthogonalEdgeStyle;rounded=0;orthogonalLoop=1;jettySize=auto;html=1;entryX=0;entryY=0.5;entryDx=0;entryDy=0;fontStyle=1" parent="1" source="CYLU-5RYoMURPyQihZAW-3" target="CYLU-5RYoMURPyQihZAW-2" edge="1">
          <mxGeometry relative="1" as="geometry" />
        </mxCell>
        <mxCell id="CYLU-5RYoMURPyQihZAW-3" value="短链管理员" style="shape=umlActor;verticalLabelPosition=bottom;verticalAlign=top;html=1;outlineConnect=0;fontStyle=1" parent="1" vertex="1">
          <mxGeometry x="2910" y="750" width="30" height="60" as="geometry" />
        </mxCell>
        <mxCell id="CYLU-5RYoMURPyQihZAW-5" value="账号服务" style="rounded=0;whiteSpace=wrap;html=1;fillColor=#D5E8D4;fontStyle=1" parent="1" vertex="1">
          <mxGeometry x="3105" y="840" width="120" height="60" as="geometry" />
        </mxCell>
        <mxCell id="CYLU-5RYoMURPyQihZAW-11" value="数据库" style="shape=cylinder3;whiteSpace=wrap;html=1;boundedLbl=1;backgroundOutline=1;size=15;fillColor=#A9C4EB;fontStyle=1" parent="1" vertex="1">
          <mxGeometry x="3470" y="688.25" width="60" height="80" as="geometry" />
        </mxCell>
        <mxCell id="CYLU-5RYoMURPyQihZAW-16" value="&lt;b&gt;2.找到原始URL&lt;/b&gt;" style="edgeStyle=orthogonalEdgeStyle;rounded=0;orthogonalLoop=1;jettySize=auto;html=1;entryX=0.5;entryY=0;entryDx=0;entryDy=0;entryPerimeter=0;strokeColor=#7EA6E0;" parent="1" source="CYLU-5RYoMURPyQihZAW-2" target="CYLU-5RYoMURPyQihZAW-11" edge="1">
          <mxGeometry relative="1" as="geometry">
            <Array as="points">
              <mxPoint x="3220" y="668" />
              <mxPoint x="3500" y="668" />
            </Array>
          </mxGeometry>
        </mxCell>
        <mxCell id="CYLU-5RYoMURPyQihZAW-17" value="目标站点" style="rounded=0;whiteSpace=wrap;html=1;fillColor=#FFF2CC;fontStyle=1" parent="1" vertex="1">
          <mxGeometry x="3140" y="529.5" width="120" height="60" as="geometry" />
        </mxCell>
        <mxCell id="CYLU-5RYoMURPyQihZAW-19" value="朋友圈（短链）" style="rounded=0;whiteSpace=wrap;html=1;fillColor=#D5E8D4;fontStyle=1" parent="1" vertex="1">
          <mxGeometry x="3915.99" y="923.75" width="120" height="35" as="geometry" />
        </mxCell>
        <mxCell id="CYLU-5RYoMURPyQihZAW-20" value="抖音（短链）" style="rounded=0;whiteSpace=wrap;html=1;fillColor=#B3B3B3;fontStyle=1" parent="1" vertex="1">
          <mxGeometry x="3915.99" y="976.25" width="120" height="35" as="geometry" />
        </mxCell>
        <mxCell id="CYLU-5RYoMURPyQihZAW-22" value="快手（短链）" style="rounded=0;whiteSpace=wrap;html=1;fillColor=#FFB570;fontStyle=1" parent="1" vertex="1">
          <mxGeometry x="3915.99" y="1027.5" width="120" height="35" as="geometry" />
        </mxCell>
        <mxCell id="CYLU-5RYoMURPyQihZAW-36" value="普通用户" style="shape=umlActor;verticalLabelPosition=bottom;verticalAlign=top;html=1;outlineConnect=0;fontStyle=1" parent="1" vertex="1">
          <mxGeometry x="3740" y="968.75" width="30" height="60" as="geometry" />
        </mxCell>
        <mxCell id="CYLU-5RYoMURPyQihZAW-37" value="产品（原始URL）" style="verticalLabelPosition=bottom;aspect=fixed;html=1;shape=mxgraph.salesforce.commerce;" parent="1" vertex="1">
          <mxGeometry x="4260" y="956.7" width="61.99" height="54.55" as="geometry" />
        </mxCell>
        <mxCell id="i71nDBgFTF4gcoMyqBb0-20" value="2. 存储短链&lt;br&gt;account_no % 2" style="edgeStyle=orthogonalEdgeStyle;rounded=0;orthogonalLoop=1;jettySize=auto;html=1;entryX=0;entryY=0.5;entryDx=0;entryDy=0;fontStyle=1;strokeColor=#EA6B66;" parent="1" source="Rwd-Yh-OvxQPfiBLRn_k-8" target="i71nDBgFTF4gcoMyqBb0-5" edge="1">
          <mxGeometry x="-0.029" y="-1" relative="1" as="geometry">
            <mxPoint as="offset" />
          </mxGeometry>
        </mxCell>
        <mxCell id="Rwd-Yh-OvxQPfiBLRn_k-8" value="短链服务" style="rounded=0;whiteSpace=wrap;html=1;fillColor=#D5E8D4;fontStyle=1" parent="1" vertex="1">
          <mxGeometry x="3915" y="1178.25" width="120" height="61.75" as="geometry" />
        </mxCell>
        <mxCell id="Rwd-Yh-OvxQPfiBLRn_k-12" value="短链库2" style="shape=cylinder3;whiteSpace=wrap;html=1;boundedLbl=1;backgroundOutline=1;size=15;fillColor=#A9C4EB;fontStyle=1" parent="1" vertex="1">
          <mxGeometry x="4260" y="1226.5" width="60" height="80" as="geometry" />
        </mxCell>
        <mxCell id="Rwd-Yh-OvxQPfiBLRn_k-27" value="账号服务" style="rounded=0;whiteSpace=wrap;html=1;fillColor=#D5E8D4;fontStyle=1" parent="1" vertex="1">
          <mxGeometry x="3240" y="840" width="120" height="60" as="geometry" />
        </mxCell>
        <mxCell id="AGHwaQv9SgfALs3SFxFU-6" value="1" style="edgeStyle=orthogonalEdgeStyle;rounded=0;orthogonalLoop=1;jettySize=auto;html=1;entryX=0;entryY=0.5;entryDx=0;entryDy=0;endArrow=none;endFill=0;fontStyle=1" parent="1" source="AGHwaQv9SgfALs3SFxFU-2" target="AGHwaQv9SgfALs3SFxFU-3" edge="1">
          <mxGeometry relative="1" as="geometry" />
        </mxCell>
        <mxCell id="AGHwaQv9SgfALs3SFxFU-2" value="普通用户" style="shape=umlActor;verticalLabelPosition=bottom;verticalAlign=top;html=1;outlineConnect=0;fontStyle=1" parent="1" vertex="1">
          <mxGeometry x="3780" y="180" width="30" height="60" as="geometry" />
        </mxCell>
        <mxCell id="AGHwaQv9SgfALs3SFxFU-7" value="N" style="edgeStyle=orthogonalEdgeStyle;rounded=0;orthogonalLoop=1;jettySize=auto;html=1;endArrow=none;endFill=0;fontStyle=1" parent="1" source="AGHwaQv9SgfALs3SFxFU-3" target="AGHwaQv9SgfALs3SFxFU-4" edge="1">
          <mxGeometry relative="1" as="geometry" />
        </mxCell>
        <mxCell id="AGHwaQv9SgfALs3SFxFU-3" value="归属" style="rhombus;whiteSpace=wrap;html=1;fillColor=none;" parent="1" vertex="1">
          <mxGeometry x="3880" y="176.25" width="70" height="67.5" as="geometry" />
        </mxCell>
        <mxCell id="AGHwaQv9SgfALs3SFxFU-9" value="&lt;b&gt;1&lt;/b&gt;" style="edgeStyle=orthogonalEdgeStyle;rounded=0;orthogonalLoop=1;jettySize=auto;html=1;endArrow=none;endFill=0;" parent="1" source="AGHwaQv9SgfALs3SFxFU-4" target="AGHwaQv9SgfALs3SFxFU-8" edge="1">
          <mxGeometry relative="1" as="geometry" />
        </mxCell>
        <mxCell id="AGHwaQv9SgfALs3SFxFU-4" value="分组" style="rounded=0;whiteSpace=wrap;html=1;fillColor=none;" parent="1" vertex="1">
          <mxGeometry x="4030" y="190" width="60" height="40" as="geometry" />
        </mxCell>
        <mxCell id="AGHwaQv9SgfALs3SFxFU-11" value="&lt;b&gt;N&lt;/b&gt;" style="edgeStyle=orthogonalEdgeStyle;rounded=0;orthogonalLoop=1;jettySize=auto;html=1;endArrow=none;endFill=0;" parent="1" source="AGHwaQv9SgfALs3SFxFU-8" target="AGHwaQv9SgfALs3SFxFU-10" edge="1">
          <mxGeometry relative="1" as="geometry" />
        </mxCell>
        <mxCell id="AGHwaQv9SgfALs3SFxFU-8" value="管理" style="rhombus;whiteSpace=wrap;html=1;fillColor=none;" parent="1" vertex="1">
          <mxGeometry x="4140" y="176.25" width="70" height="67.5" as="geometry" />
        </mxCell>
        <mxCell id="AGHwaQv9SgfALs3SFxFU-10" value="短链" style="rounded=0;whiteSpace=wrap;html=1;fillColor=none;" parent="1" vertex="1">
          <mxGeometry x="4260" y="190" width="60" height="40" as="geometry" />
        </mxCell>
        <mxCell id="i71nDBgFTF4gcoMyqBb0-3" style="edgeStyle=orthogonalEdgeStyle;rounded=0;orthogonalLoop=1;jettySize=auto;html=1;entryX=0;entryY=0.5;entryDx=0;entryDy=0;strokeColor=#EA6B66;" parent="1" source="i71nDBgFTF4gcoMyqBb0-1" target="Rwd-Yh-OvxQPfiBLRn_k-8" edge="1">
          <mxGeometry relative="1" as="geometry" />
        </mxCell>
        <mxCell id="i71nDBgFTF4gcoMyqBb0-17" value="&lt;b&gt;1. 创建短链&lt;/b&gt;" style="edgeLabel;html=1;align=center;verticalAlign=middle;resizable=0;points=[];" parent="i71nDBgFTF4gcoMyqBb0-3" vertex="1" connectable="0">
          <mxGeometry x="-0.1579" relative="1" as="geometry">
            <mxPoint as="offset" />
          </mxGeometry>
        </mxCell>
        <mxCell id="i71nDBgFTF4gcoMyqBb0-1" value="店铺商家" style="shape=umlActor;verticalLabelPosition=bottom;verticalAlign=top;html=1;outlineConnect=0;fontStyle=1" parent="1" vertex="1">
          <mxGeometry x="3740" y="1178.25" width="30" height="60" as="geometry" />
        </mxCell>
        <mxCell id="i71nDBgFTF4gcoMyqBb0-4" value="短链库1" style="shape=cylinder3;whiteSpace=wrap;html=1;boundedLbl=1;backgroundOutline=1;size=15;fillColor=#A9C4EB;fontStyle=1" parent="1" vertex="1">
          <mxGeometry x="4260" y="1104.75" width="60" height="80" as="geometry" />
        </mxCell>
        <mxCell id="i71nDBgFTF4gcoMyqBb0-14" value="" style="rounded=0;whiteSpace=wrap;html=1;fillColor=none;dashed=1;fontStyle=1" parent="1" vertex="1">
          <mxGeometry x="3890" y="908.75" width="170" height="168.75" as="geometry" />
        </mxCell>
        <mxCell id="i71nDBgFTF4gcoMyqBb0-23" style="edgeStyle=orthogonalEdgeStyle;rounded=0;orthogonalLoop=1;jettySize=auto;html=1;entryX=-0.016;entryY=0.533;entryDx=0;entryDy=0;entryPerimeter=0;strokeColor=#000000;" parent="1" source="CYLU-5RYoMURPyQihZAW-36" target="i71nDBgFTF4gcoMyqBb0-14" edge="1">
          <mxGeometry relative="1" as="geometry" />
        </mxCell>
        <mxCell id="i71nDBgFTF4gcoMyqBb0-24" value="1. 点击广告" style="edgeLabel;html=1;align=center;verticalAlign=middle;resizable=0;points=[];fontStyle=1" parent="i71nDBgFTF4gcoMyqBb0-23" vertex="1" connectable="0">
          <mxGeometry x="-0.0207" y="2" relative="1" as="geometry">
            <mxPoint x="2" as="offset" />
          </mxGeometry>
        </mxCell>
        <mxCell id="i71nDBgFTF4gcoMyqBb0-38" value="&lt;b&gt;3. 推广&lt;/b&gt;" style="edgeStyle=orthogonalEdgeStyle;rounded=0;orthogonalLoop=1;jettySize=auto;html=1;entryX=0.18;entryY=1.017;entryDx=0;entryDy=0;entryPerimeter=0;strokeColor=#EA6B66;" parent="1" source="Rwd-Yh-OvxQPfiBLRn_k-1" target="i71nDBgFTF4gcoMyqBb0-14" edge="1">
          <mxGeometry relative="1" as="geometry">
            <Array as="points">
              <mxPoint x="3921" y="1140" />
              <mxPoint x="3921" y="1140" />
            </Array>
          </mxGeometry>
        </mxCell>
        <mxCell id="i71nDBgFTF4gcoMyqBb0-41" value="2. 解析短链" style="edgeStyle=orthogonalEdgeStyle;rounded=0;orthogonalLoop=1;jettySize=auto;html=1;strokeColor=#000000;fontStyle=1" parent="1" source="i71nDBgFTF4gcoMyqBb0-14" edge="1">
          <mxGeometry relative="1" as="geometry">
            <mxPoint x="3975" y="1160" as="targetPoint" />
          </mxGeometry>
        </mxCell>
        <mxCell id="i71nDBgFTF4gcoMyqBb0-45" value="3. 响应码302，重定向到目标地址" style="edgeStyle=orthogonalEdgeStyle;rounded=0;orthogonalLoop=1;jettySize=auto;html=1;entryX=-0.018;entryY=0.665;entryDx=0;entryDy=0;entryPerimeter=0;fontStyle=1" parent="1" source="i71nDBgFTF4gcoMyqBb0-14" target="CYLU-5RYoMURPyQihZAW-37" edge="1">
          <mxGeometry relative="1" as="geometry" />
        </mxCell>
        <mxCell id="NeS87XuBHH_ODN-35_kf-22" style="edgeStyle=orthogonalEdgeStyle;rounded=0;orthogonalLoop=1;jettySize=auto;html=1;fontStyle=1" parent="1" source="NeS87XuBHH_ODN-35_kf-1" target="NeS87XuBHH_ODN-35_kf-19" edge="1">
          <mxGeometry relative="1" as="geometry" />
        </mxCell>
        <mxCell id="NeS87XuBHH_ODN-35_kf-23" value="查询全部短链" style="edgeLabel;html=1;align=center;verticalAlign=middle;resizable=0;points=[];fontStyle=1" parent="NeS87XuBHH_ODN-35_kf-22" vertex="1" connectable="0">
          <mxGeometry x="-0.0371" y="4" relative="1" as="geometry">
            <mxPoint as="offset" />
          </mxGeometry>
        </mxCell>
        <mxCell id="NeS87XuBHH_ODN-35_kf-1" value="" style="rounded=0;whiteSpace=wrap;html=1;fillColor=none;dashed=1;fontStyle=1" parent="1" vertex="1">
          <mxGeometry x="4540" y="625.25" width="215" height="109.5" as="geometry" />
        </mxCell>
        <mxCell id="NeS87XuBHH_ODN-35_kf-14" style="edgeStyle=orthogonalEdgeStyle;rounded=0;orthogonalLoop=1;jettySize=auto;html=1;fontStyle=1" parent="1" source="NeS87XuBHH_ODN-35_kf-2" target="NeS87XuBHH_ODN-35_kf-12" edge="1">
          <mxGeometry relative="1" as="geometry" />
        </mxCell>
        <mxCell id="NeS87XuBHH_ODN-35_kf-17" value="监听数据变动" style="edgeLabel;html=1;align=center;verticalAlign=middle;resizable=0;points=[];fontStyle=1" parent="NeS87XuBHH_ODN-35_kf-14" vertex="1" connectable="0">
          <mxGeometry x="0.0939" y="1" relative="1" as="geometry">
            <mxPoint x="-10" y="1" as="offset" />
          </mxGeometry>
        </mxCell>
        <mxCell id="NeS87XuBHH_ODN-35_kf-2" value="" style="rounded=0;whiteSpace=wrap;html=1;fillColor=none;dashed=1;fontStyle=1" parent="1" vertex="1">
          <mxGeometry x="4920" y="540" width="100" height="280" as="geometry" />
        </mxCell>
        <mxCell id="NeS87XuBHH_ODN-35_kf-3" value="2. 存储短链&lt;br&gt;account_no % 2" style="edgeStyle=orthogonalEdgeStyle;rounded=0;orthogonalLoop=1;jettySize=auto;html=1;entryX=0;entryY=0.5;entryDx=0;entryDy=0;fontStyle=1;strokeColor=#EA6B66;" parent="1" source="NeS87XuBHH_ODN-35_kf-4" target="NeS87XuBHH_ODN-35_kf-2" edge="1">
          <mxGeometry x="-0.029" y="-1" relative="1" as="geometry">
            <mxPoint as="offset" />
          </mxGeometry>
        </mxCell>
        <mxCell id="NeS87XuBHH_ODN-35_kf-4" value="短链服务" style="rounded=0;whiteSpace=wrap;html=1;fillColor=#D5E8D4;fontStyle=1" parent="1" vertex="1">
          <mxGeometry x="4595" y="643.5" width="120" height="61.75" as="geometry" />
        </mxCell>
        <mxCell id="NeS87XuBHH_ODN-35_kf-5" value="短链库2" style="shape=cylinder3;whiteSpace=wrap;html=1;boundedLbl=1;backgroundOutline=1;size=15;fillColor=#A9C4EB;fontStyle=1" parent="1" vertex="1">
          <mxGeometry x="4940" y="691.75" width="60" height="80" as="geometry" />
        </mxCell>
        <mxCell id="NeS87XuBHH_ODN-35_kf-6" style="edgeStyle=orthogonalEdgeStyle;rounded=0;orthogonalLoop=1;jettySize=auto;html=1;entryX=0;entryY=0.5;entryDx=0;entryDy=0;strokeColor=#EA6B66;fontStyle=1" parent="1" source="NeS87XuBHH_ODN-35_kf-8" target="NeS87XuBHH_ODN-35_kf-4" edge="1">
          <mxGeometry relative="1" as="geometry" />
        </mxCell>
        <mxCell id="NeS87XuBHH_ODN-35_kf-7" value="&lt;span&gt;1. 创建短链&lt;/span&gt;" style="edgeLabel;html=1;align=center;verticalAlign=middle;resizable=0;points=[];fontStyle=1" parent="NeS87XuBHH_ODN-35_kf-6" vertex="1" connectable="0">
          <mxGeometry x="-0.1579" relative="1" as="geometry">
            <mxPoint as="offset" />
          </mxGeometry>
        </mxCell>
        <mxCell id="NeS87XuBHH_ODN-35_kf-8" value="店铺商家" style="shape=umlActor;verticalLabelPosition=bottom;verticalAlign=top;html=1;outlineConnect=0;fontStyle=1" parent="1" vertex="1">
          <mxGeometry x="4420" y="643.5" width="30" height="60" as="geometry" />
        </mxCell>
        <mxCell id="NeS87XuBHH_ODN-35_kf-9" value="短链库1" style="shape=cylinder3;whiteSpace=wrap;html=1;boundedLbl=1;backgroundOutline=1;size=15;fillColor=#A9C4EB;fontStyle=1" parent="1" vertex="1">
          <mxGeometry x="4940" y="570" width="60" height="80" as="geometry" />
        </mxCell>
        <mxCell id="NeS87XuBHH_ODN-35_kf-15" style="edgeStyle=orthogonalEdgeStyle;rounded=0;orthogonalLoop=1;jettySize=auto;html=1;entryX=1;entryY=0.5;entryDx=0;entryDy=0;fontStyle=1" parent="1" source="NeS87XuBHH_ODN-35_kf-12" target="NeS87XuBHH_ODN-35_kf-13" edge="1">
          <mxGeometry relative="1" as="geometry">
            <Array as="points">
              <mxPoint x="5190" y="879" />
            </Array>
          </mxGeometry>
        </mxCell>
        <mxCell id="NeS87XuBHH_ODN-35_kf-16" value="&lt;span&gt;推送 MQ 缓存&lt;/span&gt;" style="edgeLabel;html=1;align=center;verticalAlign=middle;resizable=0;points=[];fontStyle=1" parent="NeS87XuBHH_ODN-35_kf-15" vertex="1" connectable="0">
          <mxGeometry x="0.5179" y="-1" relative="1" as="geometry">
            <mxPoint as="offset" />
          </mxGeometry>
        </mxCell>
        <mxCell id="NeS87XuBHH_ODN-35_kf-18" value="生成SQL" style="edgeLabel;html=1;align=center;verticalAlign=middle;resizable=0;points=[];fontStyle=1" parent="NeS87XuBHH_ODN-35_kf-15" vertex="1" connectable="0">
          <mxGeometry x="-0.5061" y="4" relative="1" as="geometry">
            <mxPoint as="offset" />
          </mxGeometry>
        </mxCell>
        <mxCell id="NeS87XuBHH_ODN-35_kf-12" value="Canal-Server" style="ellipse;whiteSpace=wrap;html=1;fillColor=none;fontStyle=1" parent="1" vertex="1">
          <mxGeometry x="5130" y="640" width="120" height="80" as="geometry" />
        </mxCell>
        <mxCell id="NeS87XuBHH_ODN-35_kf-13" value="kafka队列" style="rounded=0;whiteSpace=wrap;html=1;fillColor=#F8CECC;fontStyle=1" parent="1" vertex="1">
          <mxGeometry x="4920" y="858.25" width="120" height="41.75" as="geometry" />
        </mxCell>
        <mxCell id="NeS87XuBHH_ODN-35_kf-19" value="ElasticSearch" style="ellipse;shape=cloud;whiteSpace=wrap;html=1;fillColor=#E6D0DE;fontStyle=1" parent="1" vertex="1">
          <mxGeometry x="4587.5" y="839.12" width="120" height="80" as="geometry" />
        </mxCell>
        <mxCell id="NeS87XuBHH_ODN-35_kf-20" style="edgeStyle=orthogonalEdgeStyle;rounded=0;orthogonalLoop=1;jettySize=auto;html=1;entryX=0.875;entryY=0.5;entryDx=0;entryDy=0;entryPerimeter=0;fontStyle=1" parent="1" source="NeS87XuBHH_ODN-35_kf-13" target="NeS87XuBHH_ODN-35_kf-19" edge="1">
          <mxGeometry relative="1" as="geometry" />
        </mxCell>
        <mxCell id="NeS87XuBHH_ODN-35_kf-21" value="存储到NoSQL" style="edgeLabel;html=1;align=center;verticalAlign=middle;resizable=0;points=[];fontStyle=1" parent="NeS87XuBHH_ODN-35_kf-20" vertex="1" connectable="0">
          <mxGeometry x="-0.1051" y="3" relative="1" as="geometry">
            <mxPoint x="2" y="-3" as="offset" />
          </mxGeometry>
        </mxCell>
        <mxCell id="NeS87XuBHH_ODN-35_kf-24" value="查询全部短链" style="edgeLabel;html=1;align=center;verticalAlign=middle;resizable=0;points=[];fontStyle=1" parent="1" vertex="1" connectable="0">
          <mxGeometry x="4871.5" y="1284.75" as="geometry" />
        </mxCell>
        <mxCell id="NeS87XuBHH_ODN-35_kf-25" value="" style="rounded=0;whiteSpace=wrap;html=1;fillColor=none;dashed=1;fontStyle=1" parent="1" vertex="1">
          <mxGeometry x="4760" y="1125.25" width="215" height="109.5" as="geometry" />
        </mxCell>
        <mxCell id="NeS87XuBHH_ODN-35_kf-26" value="" style="rounded=0;whiteSpace=wrap;html=1;fillColor=none;dashed=1;fontStyle=1" parent="1" vertex="1">
          <mxGeometry x="5140" y="1040" width="210" height="280" as="geometry" />
        </mxCell>
        <mxCell id="NeS87XuBHH_ODN-35_kf-27" value="2. 存储短链&lt;br&gt;account_no % 2" style="edgeStyle=orthogonalEdgeStyle;rounded=0;orthogonalLoop=1;jettySize=auto;html=1;entryX=0;entryY=0.5;entryDx=0;entryDy=0;fontStyle=1;strokeColor=#EA6B66;" parent="1" source="NeS87XuBHH_ODN-35_kf-28" target="NeS87XuBHH_ODN-35_kf-26" edge="1">
          <mxGeometry x="-0.029" y="-1" relative="1" as="geometry">
            <mxPoint as="offset" />
          </mxGeometry>
        </mxCell>
        <mxCell id="NeS87XuBHH_ODN-35_kf-28" value="短链服务" style="rounded=0;whiteSpace=wrap;html=1;fillColor=#D5E8D4;fontStyle=1" parent="1" vertex="1">
          <mxGeometry x="4815" y="1143.5" width="120" height="61.75" as="geometry" />
        </mxCell>
        <mxCell id="NeS87XuBHH_ODN-35_kf-29" value="短链库2" style="shape=cylinder3;whiteSpace=wrap;html=1;boundedLbl=1;backgroundOutline=1;size=15;fillColor=#A9C4EB;fontStyle=1" parent="1" vertex="1">
          <mxGeometry x="5160" y="1191.75" width="60" height="80" as="geometry" />
        </mxCell>
        <mxCell id="NeS87XuBHH_ODN-35_kf-30" style="edgeStyle=orthogonalEdgeStyle;rounded=0;orthogonalLoop=1;jettySize=auto;html=1;entryX=0;entryY=0.5;entryDx=0;entryDy=0;strokeColor=#EA6B66;fontStyle=1" parent="1" source="NeS87XuBHH_ODN-35_kf-32" target="NeS87XuBHH_ODN-35_kf-28" edge="1">
          <mxGeometry relative="1" as="geometry" />
        </mxCell>
        <mxCell id="NeS87XuBHH_ODN-35_kf-31" value="&lt;span&gt;1. 创建短链&lt;/span&gt;" style="edgeLabel;html=1;align=center;verticalAlign=middle;resizable=0;points=[];fontStyle=1" parent="NeS87XuBHH_ODN-35_kf-30" vertex="1" connectable="0">
          <mxGeometry x="-0.1579" relative="1" as="geometry">
            <mxPoint as="offset" />
          </mxGeometry>
        </mxCell>
        <mxCell id="NeS87XuBHH_ODN-35_kf-32" value="店铺商家" style="shape=umlActor;verticalLabelPosition=bottom;verticalAlign=top;html=1;outlineConnect=0;fontStyle=1" parent="1" vertex="1">
          <mxGeometry x="4640" y="1143.5" width="30" height="60" as="geometry" />
        </mxCell>
        <mxCell id="NeS87XuBHH_ODN-35_kf-33" value="短链库1" style="shape=cylinder3;whiteSpace=wrap;html=1;boundedLbl=1;backgroundOutline=1;size=15;fillColor=#A9C4EB;fontStyle=1" parent="1" vertex="1">
          <mxGeometry x="5160" y="1070" width="60" height="80" as="geometry" />
        </mxCell>
        <mxCell id="dLCnzdJ6gtprwht_154M-9" style="edgeStyle=orthogonalEdgeStyle;rounded=0;orthogonalLoop=1;jettySize=auto;html=1;entryX=0;entryY=0.25;entryDx=0;entryDy=0;" parent="1" source="dLCnzdJ6gtprwht_154M-1" target="dLCnzdJ6gtprwht_154M-3" edge="1">
          <mxGeometry relative="1" as="geometry" />
        </mxCell>
        <mxCell id="dLCnzdJ6gtprwht_154M-1" value="Producer" style="rounded=0;whiteSpace=wrap;html=1;fillColor=#A9C4EB;" parent="1" vertex="1">
          <mxGeometry x="4815" y="46.25" width="90" height="47.5" as="geometry" />
        </mxCell>
        <mxCell id="dLCnzdJ6gtprwht_154M-2" value="Producer" style="rounded=0;whiteSpace=wrap;html=1;fillColor=#A9C4EB;" parent="1" vertex="1">
          <mxGeometry x="4815" y="125" width="90" height="47.5" as="geometry" />
        </mxCell>
        <mxCell id="dLCnzdJ6gtprwht_154M-3" value="" style="rounded=0;whiteSpace=wrap;html=1;fillColor=none;dashed=1;" parent="1" vertex="1">
          <mxGeometry x="4965" y="20" width="150" height="200" as="geometry" />
        </mxCell>
        <mxCell id="dLCnzdJ6gtprwht_154M-5" value="Connection" style="text;html=1;align=center;verticalAlign=middle;resizable=0;points=[];autosize=1;strokeColor=none;fillColor=none;fontStyle=1" parent="1" vertex="1">
          <mxGeometry x="5000" y="-10" width="80" height="30" as="geometry" />
        </mxCell>
        <mxCell id="dLCnzdJ6gtprwht_154M-15" style="edgeStyle=orthogonalEdgeStyle;rounded=0;orthogonalLoop=1;jettySize=auto;html=1;entryX=0;entryY=0.644;entryDx=0;entryDy=0;entryPerimeter=0;" parent="1" source="dLCnzdJ6gtprwht_154M-2" target="dLCnzdJ6gtprwht_154M-3" edge="1">
          <mxGeometry relative="1" as="geometry" />
        </mxCell>
        <mxCell id="dLCnzdJ6gtprwht_154M-21" value="Channel" style="shape=cylinder3;whiteSpace=wrap;html=1;boundedLbl=1;backgroundOutline=1;size=15;rotation=-90;fillColor=#CCCCCC;direction=west;flipH=1;flipV=0;textDirection=vertical-lr;" parent="1" vertex="1">
          <mxGeometry x="5020" y="5" width="45" height="110" as="geometry" />
        </mxCell>
        <mxCell id="dLCnzdJ6gtprwht_154M-22" value="Channel" style="shape=cylinder3;whiteSpace=wrap;html=1;boundedLbl=1;backgroundOutline=1;size=15;rotation=-90;fillColor=#CCCCCC;direction=west;flipH=1;flipV=0;textDirection=vertical-lr;" parent="1" vertex="1">
          <mxGeometry x="5020" y="65" width="45" height="110" as="geometry" />
        </mxCell>
        <mxCell id="dLCnzdJ6gtprwht_154M-23" value="Channel" style="shape=cylinder3;whiteSpace=wrap;html=1;boundedLbl=1;backgroundOutline=1;size=15;rotation=-90;fillColor=#CCCCCC;direction=west;flipH=1;flipV=0;textDirection=vertical-lr;" parent="1" vertex="1">
          <mxGeometry x="5020" y="127.5" width="45" height="110" as="geometry" />
        </mxCell>
        <mxCell id="dLCnzdJ6gtprwht_154M-52" value="&lt;b&gt;TCP&lt;/b&gt;" style="edgeStyle=orthogonalEdgeStyle;rounded=0;orthogonalLoop=1;jettySize=auto;html=1;entryX=0;entryY=0.5;entryDx=0;entryDy=0;" parent="1" source="dLCnzdJ6gtprwht_154M-24" target="dLCnzdJ6gtprwht_154M-44" edge="1">
          <mxGeometry relative="1" as="geometry">
            <Array as="points">
              <mxPoint x="5470" y="120" />
              <mxPoint x="5470" y="120" />
            </Array>
          </mxGeometry>
        </mxCell>
        <mxCell id="dLCnzdJ6gtprwht_154M-24" value="" style="rounded=0;whiteSpace=wrap;html=1;fillColor=none;dashed=1;" parent="1" vertex="1">
          <mxGeometry x="5180" y="-10" width="270" height="270" as="geometry" />
        </mxCell>
        <mxCell id="dLCnzdJ6gtprwht_154M-25" value="&lt;b&gt;Broker&lt;/b&gt;" style="text;html=1;align=center;verticalAlign=middle;resizable=0;points=[];autosize=1;strokeColor=none;fillColor=none;" parent="1" vertex="1">
          <mxGeometry x="5290" y="-40" width="60" height="30" as="geometry" />
        </mxCell>
        <mxCell id="dLCnzdJ6gtprwht_154M-34" style="edgeStyle=orthogonalEdgeStyle;rounded=0;orthogonalLoop=1;jettySize=auto;html=1;entryX=0;entryY=0.5;entryDx=0;entryDy=0;" parent="1" source="dLCnzdJ6gtprwht_154M-27" target="dLCnzdJ6gtprwht_154M-31" edge="1">
          <mxGeometry relative="1" as="geometry" />
        </mxCell>
        <mxCell id="dLCnzdJ6gtprwht_154M-39" style="edgeStyle=orthogonalEdgeStyle;rounded=0;orthogonalLoop=1;jettySize=auto;html=1;entryX=0;entryY=0.5;entryDx=0;entryDy=0;" parent="1" source="dLCnzdJ6gtprwht_154M-27" target="dLCnzdJ6gtprwht_154M-36" edge="1">
          <mxGeometry relative="1" as="geometry" />
        </mxCell>
        <mxCell id="dLCnzdJ6gtprwht_154M-27" value="X" style="shape=hexagon;perimeter=hexagonPerimeter2;whiteSpace=wrap;html=1;fixedSize=1;fontStyle=1;fillColor=#F8CECC;" parent="1" vertex="1">
          <mxGeometry x="5190" y="50.75" width="60" height="38.5" as="geometry" />
        </mxCell>
        <mxCell id="dLCnzdJ6gtprwht_154M-40" style="edgeStyle=orthogonalEdgeStyle;rounded=0;orthogonalLoop=1;jettySize=auto;html=1;entryX=0;entryY=0.5;entryDx=0;entryDy=0;" parent="1" source="dLCnzdJ6gtprwht_154M-30" target="dLCnzdJ6gtprwht_154M-37" edge="1">
          <mxGeometry relative="1" as="geometry" />
        </mxCell>
        <mxCell id="dLCnzdJ6gtprwht_154M-41" style="edgeStyle=orthogonalEdgeStyle;rounded=0;orthogonalLoop=1;jettySize=auto;html=1;entryX=0;entryY=0.5;entryDx=0;entryDy=0;" parent="1" source="dLCnzdJ6gtprwht_154M-30" target="dLCnzdJ6gtprwht_154M-38" edge="1">
          <mxGeometry relative="1" as="geometry" />
        </mxCell>
        <mxCell id="dLCnzdJ6gtprwht_154M-30" value="X" style="shape=hexagon;perimeter=hexagonPerimeter2;whiteSpace=wrap;html=1;fixedSize=1;fontStyle=1;fillColor=#F8CECC;" parent="1" vertex="1">
          <mxGeometry x="5190" y="154" width="60" height="38.5" as="geometry" />
        </mxCell>
        <mxCell id="dLCnzdJ6gtprwht_154M-31" value="Queue" style="shape=process;whiteSpace=wrap;html=1;backgroundOutline=1;fillColor=#FFF2CC;" parent="1" vertex="1">
          <mxGeometry x="5320" y="20" width="120" height="35" as="geometry" />
        </mxCell>
        <mxCell id="dLCnzdJ6gtprwht_154M-36" value="Queue" style="shape=process;whiteSpace=wrap;html=1;backgroundOutline=1;fillColor=#FFF2CC;" parent="1" vertex="1">
          <mxGeometry x="5320" y="70" width="120" height="35" as="geometry" />
        </mxCell>
        <mxCell id="dLCnzdJ6gtprwht_154M-37" value="Queue" style="shape=process;whiteSpace=wrap;html=1;backgroundOutline=1;fillColor=#FFF2CC;" parent="1" vertex="1">
          <mxGeometry x="5320" y="146" width="120" height="35" as="geometry" />
        </mxCell>
        <mxCell id="dLCnzdJ6gtprwht_154M-38" value="Queue" style="shape=process;whiteSpace=wrap;html=1;backgroundOutline=1;fillColor=#FFF2CC;" parent="1" vertex="1">
          <mxGeometry x="5320" y="200" width="120" height="35" as="geometry" />
        </mxCell>
        <mxCell id="dLCnzdJ6gtprwht_154M-43" style="edgeStyle=orthogonalEdgeStyle;rounded=0;orthogonalLoop=1;jettySize=auto;html=1;entryX=-0.004;entryY=0.478;entryDx=0;entryDy=0;entryPerimeter=0;" parent="1" source="dLCnzdJ6gtprwht_154M-3" target="dLCnzdJ6gtprwht_154M-24" edge="1">
          <mxGeometry relative="1" as="geometry" />
        </mxCell>
        <mxCell id="dLCnzdJ6gtprwht_154M-59" value="&lt;b&gt;TCP&lt;/b&gt;" style="edgeLabel;html=1;align=center;verticalAlign=middle;resizable=0;points=[];" parent="dLCnzdJ6gtprwht_154M-43" vertex="1" connectable="0">
          <mxGeometry x="-0.2595" relative="1" as="geometry">
            <mxPoint as="offset" />
          </mxGeometry>
        </mxCell>
        <mxCell id="dLCnzdJ6gtprwht_154M-56" style="edgeStyle=orthogonalEdgeStyle;rounded=0;orthogonalLoop=1;jettySize=auto;html=1;entryX=0;entryY=0.5;entryDx=0;entryDy=0;" parent="1" source="dLCnzdJ6gtprwht_154M-44" target="dLCnzdJ6gtprwht_154M-53" edge="1">
          <mxGeometry relative="1" as="geometry">
            <Array as="points">
              <mxPoint x="5680" y="66" />
              <mxPoint x="5680" y="66" />
            </Array>
          </mxGeometry>
        </mxCell>
        <mxCell id="dLCnzdJ6gtprwht_154M-57" style="edgeStyle=orthogonalEdgeStyle;rounded=0;orthogonalLoop=1;jettySize=auto;html=1;entryX=0;entryY=0.5;entryDx=0;entryDy=0;" parent="1" source="dLCnzdJ6gtprwht_154M-44" target="dLCnzdJ6gtprwht_154M-54" edge="1">
          <mxGeometry relative="1" as="geometry">
            <Array as="points">
              <mxPoint x="5680" y="160" />
              <mxPoint x="5680" y="160" />
            </Array>
          </mxGeometry>
        </mxCell>
        <mxCell id="dLCnzdJ6gtprwht_154M-44" value="" style="rounded=0;whiteSpace=wrap;html=1;fillColor=none;dashed=1;" parent="1" vertex="1">
          <mxGeometry x="5510" y="20" width="150" height="200" as="geometry" />
        </mxCell>
        <mxCell id="dLCnzdJ6gtprwht_154M-45" value="Connection" style="text;html=1;align=center;verticalAlign=middle;resizable=0;points=[];autosize=1;strokeColor=none;fillColor=none;fontStyle=1" parent="1" vertex="1">
          <mxGeometry x="5525" y="-10" width="80" height="30" as="geometry" />
        </mxCell>
        <mxCell id="dLCnzdJ6gtprwht_154M-46" value="Channel" style="shape=cylinder3;whiteSpace=wrap;html=1;boundedLbl=1;backgroundOutline=1;size=15;rotation=-90;fillColor=#CCCCCC;direction=west;flipH=1;flipV=0;textDirection=vertical-lr;" parent="1" vertex="1">
          <mxGeometry x="5565" y="5" width="45" height="110" as="geometry" />
        </mxCell>
        <mxCell id="dLCnzdJ6gtprwht_154M-47" value="Channel" style="shape=cylinder3;whiteSpace=wrap;html=1;boundedLbl=1;backgroundOutline=1;size=15;rotation=-90;fillColor=#CCCCCC;direction=west;flipH=1;flipV=0;textDirection=vertical-lr;" parent="1" vertex="1">
          <mxGeometry x="5565" y="65" width="45" height="110" as="geometry" />
        </mxCell>
        <mxCell id="dLCnzdJ6gtprwht_154M-48" value="Channel" style="shape=cylinder3;whiteSpace=wrap;html=1;boundedLbl=1;backgroundOutline=1;size=15;rotation=-90;fillColor=#CCCCCC;direction=west;flipH=1;flipV=0;textDirection=vertical-lr;" parent="1" vertex="1">
          <mxGeometry x="5565" y="127.5" width="45" height="110" as="geometry" />
        </mxCell>
        <mxCell id="dLCnzdJ6gtprwht_154M-53" value="Consumer" style="rounded=0;whiteSpace=wrap;html=1;fillColor=#D5E8D4;" parent="1" vertex="1">
          <mxGeometry x="5730" y="41.75" width="90" height="47.5" as="geometry" />
        </mxCell>
        <mxCell id="dLCnzdJ6gtprwht_154M-54" value="Consumer" style="rounded=0;whiteSpace=wrap;html=1;fillColor=#D5E8D4;" parent="1" vertex="1">
          <mxGeometry x="5730" y="136.25" width="90" height="47.5" as="geometry" />
        </mxCell>
        <mxCell id="dLCnzdJ6gtprwht_154M-58" value="Exchange" style="text;html=1;align=center;verticalAlign=middle;resizable=0;points=[];autosize=1;strokeColor=none;fillColor=none;fontStyle=1" parent="1" vertex="1">
          <mxGeometry x="5180" y="105" width="80" height="30" as="geometry" />
        </mxCell>
        <mxCell id="HyatxOKrEO1jqG8wjyCg-3" value="" style="edgeStyle=orthogonalEdgeStyle;rounded=0;orthogonalLoop=1;jettySize=auto;html=1;" parent="1" source="HyatxOKrEO1jqG8wjyCg-1" target="HyatxOKrEO1jqG8wjyCg-2" edge="1">
          <mxGeometry relative="1" as="geometry" />
        </mxCell>
        <mxCell id="HyatxOKrEO1jqG8wjyCg-1" value="P" style="ellipse;whiteSpace=wrap;html=1;aspect=fixed;fillColor=#D4E1F5;" parent="1" vertex="1">
          <mxGeometry x="4847.5" y="-470" width="40" height="40" as="geometry" />
        </mxCell>
        <mxCell id="AqnHFbRL65N22WnZ4822-40" value="short_link.add.link.*.routing.key" style="edgeStyle=orthogonalEdgeStyle;rounded=0;orthogonalLoop=1;jettySize=auto;html=1;entryX=0;entryY=0.25;entryDx=0;entryDy=0;fontStyle=1" parent="1" source="HyatxOKrEO1jqG8wjyCg-2" target="HyatxOKrEO1jqG8wjyCg-4" edge="1">
          <mxGeometry x="-0.1263" y="-30" relative="1" as="geometry">
            <mxPoint as="offset" />
          </mxGeometry>
        </mxCell>
        <mxCell id="AqnHFbRL65N22WnZ4822-45" value="short_link.add.*.mapping.routing.key" style="edgeStyle=orthogonalEdgeStyle;rounded=0;orthogonalLoop=1;jettySize=auto;html=1;entryX=0;entryY=0.5;entryDx=0;entryDy=0;fontStyle=1" parent="1" source="HyatxOKrEO1jqG8wjyCg-2" target="AqnHFbRL65N22WnZ4822-43" edge="1">
          <mxGeometry x="0.0404" y="40" relative="1" as="geometry">
            <mxPoint as="offset" />
          </mxGeometry>
        </mxCell>
        <mxCell id="Rhhl3DTdyp3vl1WjTmLo-4" style="edgeStyle=orthogonalEdgeStyle;rounded=0;orthogonalLoop=1;jettySize=auto;html=1;entryX=0.5;entryY=1;entryDx=0;entryDy=0;" parent="1" source="HyatxOKrEO1jqG8wjyCg-2" target="Rhhl3DTdyp3vl1WjTmLo-1" edge="1">
          <mxGeometry relative="1" as="geometry" />
        </mxCell>
        <mxCell id="HyatxOKrEO1jqG8wjyCg-2" value="X" style="shape=hexagon;perimeter=hexagonPerimeter2;whiteSpace=wrap;html=1;fixedSize=1;fontStyle=1;fillColor=#F8CECC;" parent="1" vertex="1">
          <mxGeometry x="5050" y="-468.5" width="60" height="38.5" as="geometry" />
        </mxCell>
        <mxCell id="HyatxOKrEO1jqG8wjyCg-4" value="short_link.add.link.queue" style="shape=process;whiteSpace=wrap;html=1;backgroundOutline=1;fillColor=#FFF2CC;" parent="1" vertex="1">
          <mxGeometry x="5210" y="-600" width="210" height="80" as="geometry" />
        </mxCell>
        <mxCell id="HyatxOKrEO1jqG8wjyCg-15" value="" style="edgeStyle=orthogonalEdgeStyle;rounded=0;orthogonalLoop=1;jettySize=auto;html=1;" parent="1" source="HyatxOKrEO1jqG8wjyCg-16" target="HyatxOKrEO1jqG8wjyCg-20" edge="1">
          <mxGeometry relative="1" as="geometry" />
        </mxCell>
        <mxCell id="HyatxOKrEO1jqG8wjyCg-16" value="P" style="ellipse;whiteSpace=wrap;html=1;aspect=fixed;fillColor=#D4E1F5;" parent="1" vertex="1">
          <mxGeometry x="7810" y="-615.1299999999999" width="40" height="40" as="geometry" />
        </mxCell>
        <mxCell id="HyatxOKrEO1jqG8wjyCg-17" value="3. 发送消息到死信队列" style="edgeStyle=orthogonalEdgeStyle;rounded=0;orthogonalLoop=1;jettySize=auto;html=1;entryX=0;entryY=0.5;entryDx=0;entryDy=0;" parent="1" source="HyatxOKrEO1jqG8wjyCg-20" target="HyatxOKrEO1jqG8wjyCg-22" edge="1">
          <mxGeometry relative="1" as="geometry" />
        </mxCell>
        <mxCell id="zVKZny_ME0oebZA3iNqj-21" value="1. 发送消息到延迟队列" style="edgeStyle=orthogonalEdgeStyle;rounded=0;orthogonalLoop=1;jettySize=auto;html=1;entryX=0;entryY=0.5;entryDx=0;entryDy=0;" parent="1" source="HyatxOKrEO1jqG8wjyCg-20" target="HyatxOKrEO1jqG8wjyCg-24" edge="1">
          <mxGeometry relative="1" as="geometry" />
        </mxCell>
        <mxCell id="zVKZny_ME0oebZA3iNqj-26" value="4.发生异常" style="edgeStyle=orthogonalEdgeStyle;rounded=0;orthogonalLoop=1;jettySize=auto;html=1;entryX=0.5;entryY=1;entryDx=0;entryDy=0;" parent="1" source="HyatxOKrEO1jqG8wjyCg-20" target="zVKZny_ME0oebZA3iNqj-23" edge="1">
          <mxGeometry relative="1" as="geometry" />
        </mxCell>
        <mxCell id="HyatxOKrEO1jqG8wjyCg-20" value="X" style="shape=hexagon;perimeter=hexagonPerimeter2;whiteSpace=wrap;html=1;fixedSize=1;fontStyle=1;fillColor=#F8CECC;" parent="1" vertex="1">
          <mxGeometry x="7910" y="-614.3799999999999" width="60" height="38.5" as="geometry" />
        </mxCell>
        <mxCell id="HyatxOKrEO1jqG8wjyCg-37" value="" style="edgeStyle=orthogonalEdgeStyle;rounded=0;orthogonalLoop=1;jettySize=auto;html=1;" parent="1" source="HyatxOKrEO1jqG8wjyCg-22" target="HyatxOKrEO1jqG8wjyCg-36" edge="1">
          <mxGeometry relative="1" as="geometry" />
        </mxCell>
        <mxCell id="HyatxOKrEO1jqG8wjyCg-22" value="死信队列" style="shape=process;whiteSpace=wrap;html=1;backgroundOutline=1;fillColor=#FFF2CC;" parent="1" vertex="1">
          <mxGeometry x="8090" y="-679.9999999999999" width="85" height="35" as="geometry" />
        </mxCell>
        <mxCell id="zVKZny_ME0oebZA3iNqj-22" value="2. 消息超时，退回交换机" style="edgeStyle=orthogonalEdgeStyle;rounded=0;orthogonalLoop=1;jettySize=auto;html=1;entryX=0.5;entryY=1;entryDx=0;entryDy=0;" parent="1" source="HyatxOKrEO1jqG8wjyCg-24" target="HyatxOKrEO1jqG8wjyCg-20" edge="1">
          <mxGeometry x="-0.1375" relative="1" as="geometry">
            <Array as="points">
              <mxPoint x="8132" y="-480" />
              <mxPoint x="7940" y="-480" />
            </Array>
            <mxPoint as="offset" />
          </mxGeometry>
        </mxCell>
        <mxCell id="HyatxOKrEO1jqG8wjyCg-24" value="延迟队列" style="shape=process;whiteSpace=wrap;html=1;backgroundOutline=1;fillColor=#FFF2CC;" parent="1" vertex="1">
          <mxGeometry x="8090" y="-535.8799999999999" width="85" height="35" as="geometry" />
        </mxCell>
        <mxCell id="HyatxOKrEO1jqG8wjyCg-36" value="C1" style="ellipse;whiteSpace=wrap;html=1;aspect=fixed;fillColor=#D5E8D4;" parent="1" vertex="1">
          <mxGeometry x="8220" y="-682.4999999999999" width="40" height="40" as="geometry" />
        </mxCell>
        <mxCell id="HyatxOKrEO1jqG8wjyCg-53" value="" style="edgeStyle=orthogonalEdgeStyle;rounded=0;orthogonalLoop=1;jettySize=auto;html=1;" parent="1" source="HyatxOKrEO1jqG8wjyCg-54" target="HyatxOKrEO1jqG8wjyCg-58" edge="1">
          <mxGeometry relative="1" as="geometry" />
        </mxCell>
        <mxCell id="HyatxOKrEO1jqG8wjyCg-54" value="P" style="ellipse;whiteSpace=wrap;html=1;aspect=fixed;fillColor=#D4E1F5;" parent="1" vertex="1">
          <mxGeometry x="5590" y="848.5" width="40" height="40" as="geometry" />
        </mxCell>
        <mxCell id="HyatxOKrEO1jqG8wjyCg-57" value="log.#" style="edgeStyle=orthogonalEdgeStyle;rounded=0;orthogonalLoop=1;jettySize=auto;html=1;entryX=0;entryY=0.5;entryDx=0;entryDy=0;fontStyle=1" parent="1" source="HyatxOKrEO1jqG8wjyCg-58" target="HyatxOKrEO1jqG8wjyCg-62" edge="1">
          <mxGeometry x="0.5407" relative="1" as="geometry">
            <mxPoint as="offset" />
          </mxGeometry>
        </mxCell>
        <mxCell id="HyatxOKrEO1jqG8wjyCg-69" value="log.delete.id" style="edgeStyle=orthogonalEdgeStyle;rounded=0;orthogonalLoop=1;jettySize=auto;html=1;entryX=0;entryY=0.5;entryDx=0;entryDy=0;fontStyle=1" parent="1" source="HyatxOKrEO1jqG8wjyCg-58" target="HyatxOKrEO1jqG8wjyCg-65" edge="1">
          <mxGeometry x="0.2814" y="-6" relative="1" as="geometry">
            <mxPoint as="offset" />
          </mxGeometry>
        </mxCell>
        <mxCell id="HyatxOKrEO1jqG8wjyCg-70" value="&lt;b&gt;log.*&lt;/b&gt;" style="edgeStyle=orthogonalEdgeStyle;rounded=0;orthogonalLoop=1;jettySize=auto;html=1;entryX=0;entryY=0.5;entryDx=0;entryDy=0;" parent="1" source="HyatxOKrEO1jqG8wjyCg-58" target="HyatxOKrEO1jqG8wjyCg-60" edge="1">
          <mxGeometry x="0.5634" relative="1" as="geometry">
            <mxPoint as="offset" />
          </mxGeometry>
        </mxCell>
        <mxCell id="HyatxOKrEO1jqG8wjyCg-58" value="X" style="shape=hexagon;perimeter=hexagonPerimeter2;whiteSpace=wrap;html=1;fixedSize=1;fontStyle=1;fillColor=#F8CECC;" parent="1" vertex="1">
          <mxGeometry x="5675" y="850" width="60" height="38.5" as="geometry" />
        </mxCell>
        <mxCell id="HyatxOKrEO1jqG8wjyCg-59" value="" style="edgeStyle=orthogonalEdgeStyle;rounded=0;orthogonalLoop=1;jettySize=auto;html=1;" parent="1" source="HyatxOKrEO1jqG8wjyCg-60" target="HyatxOKrEO1jqG8wjyCg-63" edge="1">
          <mxGeometry relative="1" as="geometry" />
        </mxCell>
        <mxCell id="HyatxOKrEO1jqG8wjyCg-60" value="Q1" style="shape=process;whiteSpace=wrap;html=1;backgroundOutline=1;fillColor=#FFF2CC;" parent="1" vertex="1">
          <mxGeometry x="5857.5" y="802.5" width="95" height="35" as="geometry" />
        </mxCell>
        <mxCell id="HyatxOKrEO1jqG8wjyCg-61" value="" style="edgeStyle=orthogonalEdgeStyle;rounded=0;orthogonalLoop=1;jettySize=auto;html=1;" parent="1" source="HyatxOKrEO1jqG8wjyCg-62" target="HyatxOKrEO1jqG8wjyCg-64" edge="1">
          <mxGeometry relative="1" as="geometry" />
        </mxCell>
        <mxCell id="HyatxOKrEO1jqG8wjyCg-62" value="Q2" style="shape=process;whiteSpace=wrap;html=1;backgroundOutline=1;fillColor=#FFF2CC;" parent="1" vertex="1">
          <mxGeometry x="5857.5" y="892.5" width="95" height="35" as="geometry" />
        </mxCell>
        <mxCell id="HyatxOKrEO1jqG8wjyCg-63" value="C1" style="ellipse;whiteSpace=wrap;html=1;aspect=fixed;fillColor=#D5E8D4;" parent="1" vertex="1">
          <mxGeometry x="6010" y="800" width="40" height="40" as="geometry" />
        </mxCell>
        <mxCell id="HyatxOKrEO1jqG8wjyCg-64" value="C2" style="ellipse;whiteSpace=wrap;html=1;aspect=fixed;fillColor=#D5E8D4;" parent="1" vertex="1">
          <mxGeometry x="6010" y="890" width="40" height="40" as="geometry" />
        </mxCell>
        <mxCell id="HyatxOKrEO1jqG8wjyCg-67" value="" style="edgeStyle=orthogonalEdgeStyle;rounded=0;orthogonalLoop=1;jettySize=auto;html=1;" parent="1" source="HyatxOKrEO1jqG8wjyCg-65" target="HyatxOKrEO1jqG8wjyCg-66" edge="1">
          <mxGeometry relative="1" as="geometry" />
        </mxCell>
        <mxCell id="HyatxOKrEO1jqG8wjyCg-65" value="Q3" style="shape=process;whiteSpace=wrap;html=1;backgroundOutline=1;fillColor=#FFF2CC;" parent="1" vertex="1">
          <mxGeometry x="5857.5" y="966.47" width="95" height="35" as="geometry" />
        </mxCell>
        <mxCell id="HyatxOKrEO1jqG8wjyCg-66" value="C3" style="ellipse;whiteSpace=wrap;html=1;aspect=fixed;fillColor=#D5E8D4;" parent="1" vertex="1">
          <mxGeometry x="6010" y="963.97" width="40" height="40" as="geometry" />
        </mxCell>
        <mxCell id="AqnHFbRL65N22WnZ4822-36" value="short_link.event.exchange" style="text;html=1;align=center;verticalAlign=middle;resizable=0;points=[];autosize=1;strokeColor=none;fillColor=none;" parent="1" vertex="1">
          <mxGeometry x="4995" y="-430" width="160" height="30" as="geometry" />
        </mxCell>
        <mxCell id="AqnHFbRL65N22WnZ4822-37" value="发送消息，并指定routingKey&lt;br&gt;shot_link_add.link.mapping.routing.key" style="text;html=1;align=center;verticalAlign=middle;resizable=0;points=[];autosize=1;strokeColor=none;fillColor=none;" parent="1" vertex="1">
          <mxGeometry x="4765" y="-430" width="230" height="40" as="geometry" />
        </mxCell>
        <mxCell id="AqnHFbRL65N22WnZ4822-43" value="short_link.add.mapping.queue" style="shape=process;whiteSpace=wrap;html=1;backgroundOutline=1;fillColor=#FFF2CC;" parent="1" vertex="1">
          <mxGeometry x="5210" y="-360" width="210" height="80" as="geometry" />
        </mxCell>
        <mxCell id="AqnHFbRL65N22WnZ4822-47" value="short_link 消费者1" style="rounded=0;whiteSpace=wrap;html=1;fillColor=#D5E8D4;fontStyle=1" parent="1" vertex="1">
          <mxGeometry x="5575" y="-625" width="120" height="61.75" as="geometry" />
        </mxCell>
        <mxCell id="AqnHFbRL65N22WnZ4822-48" value="short_link 消费者2" style="rounded=0;whiteSpace=wrap;html=1;fillColor=#D5E8D4;fontStyle=1" parent="1" vertex="1">
          <mxGeometry x="5575" y="-540" width="120" height="61.75" as="geometry" />
        </mxCell>
        <mxCell id="AqnHFbRL65N22WnZ4822-49" value="mapping 消费者1" style="rounded=0;whiteSpace=wrap;html=1;fillColor=#D5E8D4;fontStyle=1" parent="1" vertex="1">
          <mxGeometry x="5575" y="-380.88" width="120" height="61.75" as="geometry" />
        </mxCell>
        <mxCell id="AqnHFbRL65N22WnZ4822-50" value="mapping 消费者2" style="rounded=0;whiteSpace=wrap;html=1;fillColor=#D5E8D4;fontStyle=1" parent="1" vertex="1">
          <mxGeometry x="5575" y="-295.88" width="120" height="61.75" as="geometry" />
        </mxCell>
        <mxCell id="AqnHFbRL65N22WnZ4822-56" style="edgeStyle=orthogonalEdgeStyle;rounded=0;orthogonalLoop=1;jettySize=auto;html=1;entryX=0.006;entryY=0.435;entryDx=0;entryDy=0;entryPerimeter=0;" parent="1" source="AqnHFbRL65N22WnZ4822-43" target="AqnHFbRL65N22WnZ4822-51" edge="1">
          <mxGeometry relative="1" as="geometry">
            <Array as="points">
              <mxPoint x="5460" y="-322" />
              <mxPoint x="5460" y="-322" />
            </Array>
          </mxGeometry>
        </mxCell>
        <mxCell id="AqnHFbRL65N22WnZ4822-59" style="edgeStyle=orthogonalEdgeStyle;rounded=0;orthogonalLoop=1;jettySize=auto;html=1;entryX=0.006;entryY=0.445;entryDx=0;entryDy=0;entryPerimeter=0;" parent="1" source="HyatxOKrEO1jqG8wjyCg-4" target="AqnHFbRL65N22WnZ4822-52" edge="1">
          <mxGeometry relative="1" as="geometry" />
        </mxCell>
        <mxCell id="Rhhl3DTdyp3vl1WjTmLo-5" style="edgeStyle=orthogonalEdgeStyle;rounded=0;orthogonalLoop=1;jettySize=auto;html=1;entryX=0;entryY=0.5;entryDx=0;entryDy=0;" parent="1" source="Rhhl3DTdyp3vl1WjTmLo-1" target="Rhhl3DTdyp3vl1WjTmLo-3" edge="1">
          <mxGeometry relative="1" as="geometry" />
        </mxCell>
        <mxCell id="Rhhl3DTdyp3vl1WjTmLo-1" value="异常交换机" style="shape=hexagon;perimeter=hexagonPerimeter2;whiteSpace=wrap;html=1;fixedSize=1;fontStyle=1;fillColor=#FF6666;" parent="1" vertex="1">
          <mxGeometry x="5040" y="-800" width="80" height="60" as="geometry" />
        </mxCell>
        <mxCell id="Rhhl3DTdyp3vl1WjTmLo-3" value="异常队列" style="shape=process;whiteSpace=wrap;html=1;backgroundOutline=1;fillColor=#FF6666;" parent="1" vertex="1">
          <mxGeometry x="5210" y="-800" width="150" height="60" as="geometry" />
        </mxCell>
        <mxCell id="Rhhl3DTdyp3vl1WjTmLo-6" value="" style="rounded=0;whiteSpace=wrap;html=1;fillColor=none;dashed=1;" parent="1" vertex="1">
          <mxGeometry x="6800" y="-900" width="150" height="179.12" as="geometry" />
        </mxCell>
        <mxCell id="Rhhl3DTdyp3vl1WjTmLo-7" value="" style="rounded=0;whiteSpace=wrap;html=1;fillColor=none;dashed=1;" parent="1" vertex="1">
          <mxGeometry x="6800" y="-680" width="150" height="179.12" as="geometry" />
        </mxCell>
        <mxCell id="Rhhl3DTdyp3vl1WjTmLo-8" value="" style="edgeStyle=orthogonalEdgeStyle;rounded=0;orthogonalLoop=1;jettySize=auto;html=1;" parent="1" source="Rhhl3DTdyp3vl1WjTmLo-9" target="Rhhl3DTdyp3vl1WjTmLo-13" edge="1">
          <mxGeometry relative="1" as="geometry" />
        </mxCell>
        <mxCell id="Rhhl3DTdyp3vl1WjTmLo-9" value="P" style="ellipse;whiteSpace=wrap;html=1;aspect=fixed;fillColor=#D4E1F5;" parent="1" vertex="1">
          <mxGeometry x="6170" y="-710" width="40" height="40" as="geometry" />
        </mxCell>
        <mxCell id="Rhhl3DTdyp3vl1WjTmLo-11" value="" style="edgeStyle=orthogonalEdgeStyle;rounded=0;orthogonalLoop=1;jettySize=auto;html=1;entryX=0;entryY=0.5;entryDx=0;entryDy=0;fontStyle=1" parent="1" source="Rhhl3DTdyp3vl1WjTmLo-13" target="Rhhl3DTdyp3vl1WjTmLo-17" edge="1">
          <mxGeometry x="0.0404" y="40" relative="1" as="geometry">
            <mxPoint as="offset" />
          </mxGeometry>
        </mxCell>
        <mxCell id="Rhhl3DTdyp3vl1WjTmLo-12" style="edgeStyle=orthogonalEdgeStyle;rounded=0;orthogonalLoop=1;jettySize=auto;html=1;entryX=0.5;entryY=1;entryDx=0;entryDy=0;strokeColor=#FF3333;" parent="1" source="Rhhl3DTdyp3vl1WjTmLo-13" target="Rhhl3DTdyp3vl1WjTmLo-25" edge="1">
          <mxGeometry relative="1" as="geometry" />
        </mxCell>
        <mxCell id="Rhhl3DTdyp3vl1WjTmLo-31" style="edgeStyle=orthogonalEdgeStyle;rounded=0;orthogonalLoop=1;jettySize=auto;html=1;entryX=0;entryY=0.5;entryDx=0;entryDy=0;" parent="1" source="Rhhl3DTdyp3vl1WjTmLo-13" target="Rhhl3DTdyp3vl1WjTmLo-14" edge="1">
          <mxGeometry relative="1" as="geometry" />
        </mxCell>
        <mxCell id="Rhhl3DTdyp3vl1WjTmLo-13" value="X" style="shape=hexagon;perimeter=hexagonPerimeter2;whiteSpace=wrap;html=1;fixedSize=1;fontStyle=1;fillColor=#F8CECC;" parent="1" vertex="1">
          <mxGeometry x="6325" y="-708.5" width="60" height="38.5" as="geometry" />
        </mxCell>
        <mxCell id="Rhhl3DTdyp3vl1WjTmLo-33" style="edgeStyle=orthogonalEdgeStyle;rounded=0;orthogonalLoop=1;jettySize=auto;html=1;entryX=0;entryY=0.5;entryDx=0;entryDy=0;" parent="1" source="Rhhl3DTdyp3vl1WjTmLo-14" target="Rhhl3DTdyp3vl1WjTmLo-6" edge="1">
          <mxGeometry relative="1" as="geometry" />
        </mxCell>
        <mxCell id="Rhhl3DTdyp3vl1WjTmLo-14" value="short_link队列" style="shape=process;whiteSpace=wrap;html=1;backgroundOutline=1;fillColor=#FFF2CC;" parent="1" vertex="1">
          <mxGeometry x="6480" y="-800" width="160" height="50" as="geometry" />
        </mxCell>
        <mxCell id="Rhhl3DTdyp3vl1WjTmLo-32" style="edgeStyle=orthogonalEdgeStyle;rounded=0;orthogonalLoop=1;jettySize=auto;html=1;entryX=0;entryY=0.5;entryDx=0;entryDy=0;" parent="1" source="Rhhl3DTdyp3vl1WjTmLo-17" target="Rhhl3DTdyp3vl1WjTmLo-7" edge="1">
          <mxGeometry relative="1" as="geometry" />
        </mxCell>
        <mxCell id="Rhhl3DTdyp3vl1WjTmLo-17" value="mapping队列" style="shape=process;whiteSpace=wrap;html=1;backgroundOutline=1;fillColor=#FFF2CC;" parent="1" vertex="1">
          <mxGeometry x="6480" y="-680" width="160" height="50" as="geometry" />
        </mxCell>
        <mxCell id="Rhhl3DTdyp3vl1WjTmLo-18" value="short_link 消费者1" style="rounded=0;whiteSpace=wrap;html=1;fillColor=#D5E8D4;fontStyle=1" parent="1" vertex="1">
          <mxGeometry x="6815" y="-885" width="120" height="61.75" as="geometry" />
        </mxCell>
        <mxCell id="Rhhl3DTdyp3vl1WjTmLo-19" value="short_link 消费者2" style="rounded=0;whiteSpace=wrap;html=1;fillColor=#D5E8D4;fontStyle=1" parent="1" vertex="1">
          <mxGeometry x="6815" y="-800" width="120" height="61.75" as="geometry" />
        </mxCell>
        <mxCell id="Rhhl3DTdyp3vl1WjTmLo-20" value="mapping 消费者1" style="rounded=0;whiteSpace=wrap;html=1;fillColor=#D5E8D4;fontStyle=1" parent="1" vertex="1">
          <mxGeometry x="6815" y="-660.88" width="120" height="61.75" as="geometry" />
        </mxCell>
        <mxCell id="Rhhl3DTdyp3vl1WjTmLo-21" value="mapping 消费者2" style="rounded=0;whiteSpace=wrap;html=1;fillColor=#D5E8D4;fontStyle=1" parent="1" vertex="1">
          <mxGeometry x="6815" y="-575.88" width="120" height="61.75" as="geometry" />
        </mxCell>
        <mxCell id="Rhhl3DTdyp3vl1WjTmLo-24" style="edgeStyle=orthogonalEdgeStyle;rounded=0;orthogonalLoop=1;jettySize=auto;html=1;entryX=0;entryY=0.5;entryDx=0;entryDy=0;strokeColor=#FF3333;" parent="1" source="Rhhl3DTdyp3vl1WjTmLo-25" target="Rhhl3DTdyp3vl1WjTmLo-26" edge="1">
          <mxGeometry relative="1" as="geometry" />
        </mxCell>
        <mxCell id="Rhhl3DTdyp3vl1WjTmLo-25" value="异常交换机" style="shape=hexagon;perimeter=hexagonPerimeter2;whiteSpace=wrap;html=1;fixedSize=1;fontStyle=1;fillColor=#FF6666;" parent="1" vertex="1">
          <mxGeometry x="6315" y="-960" width="80" height="60" as="geometry" />
        </mxCell>
        <mxCell id="Rhhl3DTdyp3vl1WjTmLo-26" value="异常队列" style="shape=process;whiteSpace=wrap;html=1;backgroundOutline=1;fillColor=#FF6666;" parent="1" vertex="1">
          <mxGeometry x="6480" y="-960" width="150" height="60" as="geometry" />
        </mxCell>
        <mxCell id="qVBW4P1DTHRQs45p9x4o-3" value="" style="rounded=0;whiteSpace=wrap;html=1;fillColor=none;dashed=1;" parent="1" vertex="1">
          <mxGeometry x="6780" y="-210" width="150" height="100" as="geometry" />
        </mxCell>
        <mxCell id="qVBW4P1DTHRQs45p9x4o-4" value="" style="rounded=0;whiteSpace=wrap;html=1;fillColor=none;dashed=1;" parent="1" vertex="1">
          <mxGeometry x="6780" y="20" width="150" height="80" as="geometry" />
        </mxCell>
        <mxCell id="qVBW4P1DTHRQs45p9x4o-5" value="" style="edgeStyle=orthogonalEdgeStyle;rounded=0;orthogonalLoop=1;jettySize=auto;html=1;" parent="1" source="qVBW4P1DTHRQs45p9x4o-6" target="qVBW4P1DTHRQs45p9x4o-10" edge="1">
          <mxGeometry relative="1" as="geometry" />
        </mxCell>
        <mxCell id="qVBW4P1DTHRQs45p9x4o-6" value="P" style="ellipse;whiteSpace=wrap;html=1;aspect=fixed;fillColor=#D4E1F5;" parent="1" vertex="1">
          <mxGeometry x="6140" y="-59.120000000000005" width="40" height="40" as="geometry" />
        </mxCell>
        <mxCell id="qVBW4P1DTHRQs45p9x4o-7" value="" style="edgeStyle=orthogonalEdgeStyle;rounded=0;orthogonalLoop=1;jettySize=auto;html=1;entryX=0;entryY=0.5;entryDx=0;entryDy=0;fontStyle=1" parent="1" source="qVBW4P1DTHRQs45p9x4o-10" target="qVBW4P1DTHRQs45p9x4o-14" edge="1">
          <mxGeometry x="0.0404" y="40" relative="1" as="geometry">
            <mxPoint as="offset" />
            <Array as="points">
              <mxPoint x="6410" y="-38" />
              <mxPoint x="6410" y="60" />
            </Array>
          </mxGeometry>
        </mxCell>
        <mxCell id="qVBW4P1DTHRQs45p9x4o-8" style="edgeStyle=orthogonalEdgeStyle;rounded=0;orthogonalLoop=1;jettySize=auto;html=1;entryX=0.5;entryY=1;entryDx=0;entryDy=0;strokeColor=#FF3333;" parent="1" source="qVBW4P1DTHRQs45p9x4o-10" target="qVBW4P1DTHRQs45p9x4o-20" edge="1">
          <mxGeometry relative="1" as="geometry" />
        </mxCell>
        <mxCell id="qVBW4P1DTHRQs45p9x4o-9" style="edgeStyle=orthogonalEdgeStyle;rounded=0;orthogonalLoop=1;jettySize=auto;html=1;entryX=0;entryY=0.5;entryDx=0;entryDy=0;" parent="1" source="qVBW4P1DTHRQs45p9x4o-10" target="qVBW4P1DTHRQs45p9x4o-12" edge="1">
          <mxGeometry relative="1" as="geometry" />
        </mxCell>
        <mxCell id="qVBW4P1DTHRQs45p9x4o-10" value="X" style="shape=hexagon;perimeter=hexagonPerimeter2;whiteSpace=wrap;html=1;fixedSize=1;fontStyle=1;fillColor=#F8CECC;" parent="1" vertex="1">
          <mxGeometry x="6305" y="-57.620000000000005" width="60" height="38.5" as="geometry" />
        </mxCell>
        <mxCell id="qVBW4P1DTHRQs45p9x4o-11" style="edgeStyle=orthogonalEdgeStyle;rounded=0;orthogonalLoop=1;jettySize=auto;html=1;entryX=0;entryY=0.5;entryDx=0;entryDy=0;" parent="1" source="qVBW4P1DTHRQs45p9x4o-12" target="qVBW4P1DTHRQs45p9x4o-3" edge="1">
          <mxGeometry relative="1" as="geometry" />
        </mxCell>
        <mxCell id="qVBW4P1DTHRQs45p9x4o-12" value="short_link队列" style="shape=process;whiteSpace=wrap;html=1;backgroundOutline=1;fillColor=#FFF2CC;" parent="1" vertex="1">
          <mxGeometry x="6456" y="-184.56" width="160" height="50" as="geometry" />
        </mxCell>
        <mxCell id="qVBW4P1DTHRQs45p9x4o-13" style="edgeStyle=orthogonalEdgeStyle;rounded=0;orthogonalLoop=1;jettySize=auto;html=1;entryX=0;entryY=0.5;entryDx=0;entryDy=0;" parent="1" source="qVBW4P1DTHRQs45p9x4o-14" target="qVBW4P1DTHRQs45p9x4o-4" edge="1">
          <mxGeometry relative="1" as="geometry" />
        </mxCell>
        <mxCell id="qVBW4P1DTHRQs45p9x4o-14" value="mapping队列" style="shape=process;whiteSpace=wrap;html=1;backgroundOutline=1;fillColor=#FFF2CC;" parent="1" vertex="1">
          <mxGeometry x="6460" y="35.44" width="160" height="50" as="geometry" />
        </mxCell>
        <mxCell id="qVBW4P1DTHRQs45p9x4o-15" value="short_link 消费者" style="rounded=0;whiteSpace=wrap;html=1;fillColor=#D5E8D4;fontStyle=1" parent="1" vertex="1">
          <mxGeometry x="6795" y="-184.56" width="120" height="61.75" as="geometry" />
        </mxCell>
        <mxCell id="qVBW4P1DTHRQs45p9x4o-18" value="mapping 消费者" style="rounded=0;whiteSpace=wrap;html=1;fillColor=#D5E8D4;fontStyle=1" parent="1" vertex="1">
          <mxGeometry x="6795" y="27.5" width="120" height="61.75" as="geometry" />
        </mxCell>
        <mxCell id="qVBW4P1DTHRQs45p9x4o-19" style="edgeStyle=orthogonalEdgeStyle;rounded=0;orthogonalLoop=1;jettySize=auto;html=1;entryX=0;entryY=0.5;entryDx=0;entryDy=0;strokeColor=#FF3333;" parent="1" source="qVBW4P1DTHRQs45p9x4o-20" target="qVBW4P1DTHRQs45p9x4o-21" edge="1">
          <mxGeometry relative="1" as="geometry" />
        </mxCell>
        <mxCell id="qVBW4P1DTHRQs45p9x4o-20" value="异常交换机" style="shape=hexagon;perimeter=hexagonPerimeter2;whiteSpace=wrap;html=1;fixedSize=1;fontStyle=1;fillColor=#FF6666;" parent="1" vertex="1">
          <mxGeometry x="6295" y="-309.12" width="80" height="60" as="geometry" />
        </mxCell>
        <mxCell id="qVBW4P1DTHRQs45p9x4o-21" value="异常队列" style="shape=process;whiteSpace=wrap;html=1;backgroundOutline=1;fillColor=#FF6666;" parent="1" vertex="1">
          <mxGeometry x="6460" y="-309.12" width="150" height="60" as="geometry" />
        </mxCell>
        <mxCell id="qVBW4P1DTHRQs45p9x4o-29" value="数据库A" style="shape=cylinder3;whiteSpace=wrap;html=1;boundedLbl=1;backgroundOutline=1;size=15;fillColor=#D4E1F5;" parent="1" vertex="1">
          <mxGeometry x="6990" y="-199.56" width="60" height="80" as="geometry" />
        </mxCell>
        <mxCell id="qVBW4P1DTHRQs45p9x4o-30" style="edgeStyle=orthogonalEdgeStyle;rounded=0;orthogonalLoop=1;jettySize=auto;html=1;entryX=0;entryY=0.5;entryDx=0;entryDy=0;entryPerimeter=0;" parent="1" source="qVBW4P1DTHRQs45p9x4o-3" target="qVBW4P1DTHRQs45p9x4o-29" edge="1">
          <mxGeometry relative="1" as="geometry" />
        </mxCell>
        <mxCell id="qVBW4P1DTHRQs45p9x4o-31" value="数据库B" style="shape=cylinder3;whiteSpace=wrap;html=1;boundedLbl=1;backgroundOutline=1;size=15;fillColor=#D4E1F5;" parent="1" vertex="1">
          <mxGeometry x="6990" y="20.880000000000003" width="60" height="80" as="geometry" />
        </mxCell>
        <mxCell id="qVBW4P1DTHRQs45p9x4o-32" style="edgeStyle=orthogonalEdgeStyle;rounded=0;orthogonalLoop=1;jettySize=auto;html=1;entryX=0;entryY=0.5;entryDx=0;entryDy=0;entryPerimeter=0;" parent="1" source="qVBW4P1DTHRQs45p9x4o-4" target="qVBW4P1DTHRQs45p9x4o-31" edge="1">
          <mxGeometry relative="1" as="geometry" />
        </mxCell>
        <mxCell id="qVBW4P1DTHRQs45p9x4o-35" value="&lt;b&gt;B端&lt;/b&gt;" style="text;html=1;align=center;verticalAlign=middle;resizable=0;points=[];autosize=1;strokeColor=none;fillColor=none;" parent="1" vertex="1">
          <mxGeometry x="6832.5" y="100.88" width="40" height="30" as="geometry" />
        </mxCell>
        <mxCell id="qVBW4P1DTHRQs45p9x4o-36" value="&lt;b&gt;C端&lt;/b&gt;" style="text;html=1;align=center;verticalAlign=middle;resizable=0;points=[];autosize=1;strokeColor=none;fillColor=none;" parent="1" vertex="1">
          <mxGeometry x="6835" y="-240" width="40" height="30" as="geometry" />
        </mxCell>
        <mxCell id="qVBW4P1DTHRQs45p9x4o-37" value="生成短链码和商家码相同" style="text;html=1;align=center;verticalAlign=middle;resizable=0;points=[];autosize=1;strokeColor=none;fillColor=none;fontStyle=1" parent="1" vertex="1">
          <mxGeometry x="6640" y="-70" width="160" height="30" as="geometry" />
        </mxCell>
        <mxCell id="qVBW4P1DTHRQs45p9x4o-38" value="" style="endArrow=none;html=1;rounded=0;" parent="1" edge="1">
          <mxGeometry width="50" height="50" relative="1" as="geometry">
            <mxPoint x="7280" y="-70" as="sourcePoint" />
            <mxPoint x="7280" y="-280" as="targetPoint" />
          </mxGeometry>
        </mxCell>
        <mxCell id="qVBW4P1DTHRQs45p9x4o-39" value="用户 A 查询短链是否存在" style="endArrow=classic;html=1;rounded=0;" parent="1" edge="1">
          <mxGeometry x="0.0013" width="50" height="50" relative="1" as="geometry">
            <mxPoint x="7280" y="-240" as="sourcePoint" />
            <mxPoint x="7550" y="-240" as="targetPoint" />
            <mxPoint as="offset" />
          </mxGeometry>
        </mxCell>
        <mxCell id="qVBW4P1DTHRQs45p9x4o-41" value="用户 B 查询短链是否存在" style="endArrow=classic;html=1;rounded=0;strokeColor=#FF6666;" parent="1" edge="1">
          <mxGeometry width="50" height="50" relative="1" as="geometry">
            <mxPoint x="7280" y="-159.9" as="sourcePoint" />
            <mxPoint x="7550" y="-159.9" as="targetPoint" />
          </mxGeometry>
        </mxCell>
        <mxCell id="qVBW4P1DTHRQs45p9x4o-42" value="用户 B 保存短链码 和 商家码" style="endArrow=classic;html=1;rounded=0;strokeColor=#FF6666;" parent="1" edge="1">
          <mxGeometry x="0.0013" width="50" height="50" relative="1" as="geometry">
            <mxPoint x="7280" y="-119.55999999999999" as="sourcePoint" />
            <mxPoint x="7550" y="-119.55999999999999" as="targetPoint" />
            <mxPoint as="offset" />
          </mxGeometry>
        </mxCell>
        <mxCell id="qVBW4P1DTHRQs45p9x4o-43" value="用户 A 保存短链 和 商家码" style="endArrow=classic;html=1;rounded=0;" parent="1" edge="1">
          <mxGeometry width="50" height="50" relative="1" as="geometry">
            <mxPoint x="7280" y="-199.56" as="sourcePoint" />
            <mxPoint x="7550" y="-199.56" as="targetPoint" />
          </mxGeometry>
        </mxCell>
        <mxCell id="qVBW4P1DTHRQs45p9x4o-48" value="用户 A 加锁" style="text;html=1;align=center;verticalAlign=middle;resizable=0;points=[];autosize=1;strokeColor=none;fillColor=none;" parent="1" vertex="1">
          <mxGeometry x="7195" y="-279.12" width="90" height="30" as="geometry" />
        </mxCell>
        <mxCell id="qVBW4P1DTHRQs45p9x4o-49" value="" style="endArrow=none;html=1;rounded=0;" parent="1" edge="1">
          <mxGeometry width="50" height="50" relative="1" as="geometry">
            <mxPoint x="7250" y="-250.01" as="sourcePoint" />
            <mxPoint x="7280" y="-250.01" as="targetPoint" />
          </mxGeometry>
        </mxCell>
        <mxCell id="qVBW4P1DTHRQs45p9x4o-50" value="" style="endArrow=none;html=1;rounded=0;strokeColor=#FF6666;" parent="1" edge="1">
          <mxGeometry width="50" height="50" relative="1" as="geometry">
            <mxPoint x="7250" y="-172.37" as="sourcePoint" />
            <mxPoint x="7280" y="-172.37" as="targetPoint" />
          </mxGeometry>
        </mxCell>
        <mxCell id="qVBW4P1DTHRQs45p9x4o-51" value="用户 B 加锁" style="text;html=1;align=center;verticalAlign=middle;resizable=0;points=[];autosize=1;strokeColor=none;fillColor=none;" parent="1" vertex="1">
          <mxGeometry x="7195" y="-199.56" width="90" height="30" as="geometry" />
        </mxCell>
        <mxCell id="qVBW4P1DTHRQs45p9x4o-54" value="朋友圈（短链）" style="rounded=0;whiteSpace=wrap;html=1;fillColor=#D5E8D4;fontStyle=1" parent="1" vertex="1">
          <mxGeometry x="3945.99" y="1555" width="120" height="35" as="geometry" />
        </mxCell>
        <mxCell id="qVBW4P1DTHRQs45p9x4o-55" value="抖音（短链）" style="rounded=0;whiteSpace=wrap;html=1;fillColor=#B3B3B3;fontStyle=1" parent="1" vertex="1">
          <mxGeometry x="3945.99" y="1607.5" width="120" height="35" as="geometry" />
        </mxCell>
        <mxCell id="qVBW4P1DTHRQs45p9x4o-56" value="快手（短链）" style="rounded=0;whiteSpace=wrap;html=1;fillColor=#FFB570;fontStyle=1" parent="1" vertex="1">
          <mxGeometry x="3945.99" y="1658.75" width="120" height="35" as="geometry" />
        </mxCell>
        <mxCell id="qVBW4P1DTHRQs45p9x4o-57" value="普通用户" style="shape=umlActor;verticalLabelPosition=bottom;verticalAlign=top;html=1;outlineConnect=0;fontStyle=1" parent="1" vertex="1">
          <mxGeometry x="3770" y="1600" width="30" height="60" as="geometry" />
        </mxCell>
        <mxCell id="qVBW4P1DTHRQs45p9x4o-58" value="产品（原始URL）" style="verticalLabelPosition=bottom;aspect=fixed;html=1;shape=mxgraph.salesforce.commerce;" parent="1" vertex="1">
          <mxGeometry x="4290" y="1587.95" width="61.99" height="54.55" as="geometry" />
        </mxCell>
        <mxCell id="qVBW4P1DTHRQs45p9x4o-74" style="edgeStyle=orthogonalEdgeStyle;rounded=0;orthogonalLoop=1;jettySize=auto;html=1;entryX=0;entryY=0.5;entryDx=0;entryDy=0;" parent="1" source="qVBW4P1DTHRQs45p9x4o-66" target="qVBW4P1DTHRQs45p9x4o-73" edge="1">
          <mxGeometry relative="1" as="geometry">
            <Array as="points">
              <mxPoint x="4175" y="1670" />
              <mxPoint x="4175" y="1754" />
            </Array>
          </mxGeometry>
        </mxCell>
        <mxCell id="qVBW4P1DTHRQs45p9x4o-66" value="" style="rounded=0;whiteSpace=wrap;html=1;fillColor=none;dashed=1;fontStyle=1" parent="1" vertex="1">
          <mxGeometry x="3920" y="1540" width="170" height="168.75" as="geometry" />
        </mxCell>
        <mxCell id="qVBW4P1DTHRQs45p9x4o-67" style="edgeStyle=orthogonalEdgeStyle;rounded=0;orthogonalLoop=1;jettySize=auto;html=1;entryX=-0.016;entryY=0.533;entryDx=0;entryDy=0;entryPerimeter=0;strokeColor=#000000;" parent="1" source="qVBW4P1DTHRQs45p9x4o-57" target="qVBW4P1DTHRQs45p9x4o-66" edge="1">
          <mxGeometry relative="1" as="geometry" />
        </mxCell>
        <mxCell id="qVBW4P1DTHRQs45p9x4o-68" value="1. 点击广告" style="edgeLabel;html=1;align=center;verticalAlign=middle;resizable=0;points=[];fontStyle=1" parent="qVBW4P1DTHRQs45p9x4o-67" vertex="1" connectable="0">
          <mxGeometry x="-0.0207" y="2" relative="1" as="geometry">
            <mxPoint x="2" as="offset" />
          </mxGeometry>
        </mxCell>
        <mxCell id="qVBW4P1DTHRQs45p9x4o-71" value="3. 响应码302，重定向到目标地址" style="edgeStyle=orthogonalEdgeStyle;rounded=0;orthogonalLoop=1;jettySize=auto;html=1;entryX=-0.018;entryY=0.665;entryDx=0;entryDy=0;entryPerimeter=0;fontStyle=1" parent="1" source="qVBW4P1DTHRQs45p9x4o-66" target="qVBW4P1DTHRQs45p9x4o-58" edge="1">
          <mxGeometry relative="1" as="geometry" />
        </mxCell>
        <mxCell id="qVBW4P1DTHRQs45p9x4o-73" value="统计不同平台数据&lt;br&gt;并分析" style="rounded=0;whiteSpace=wrap;html=1;fillColor=#D5E8D4;fontStyle=1" parent="1" vertex="1">
          <mxGeometry x="4260" y="1723" width="120" height="61.75" as="geometry" />
        </mxCell>
        <mxCell id="Ig3GlLUK34uhVQRqRqdA-2" value="&lt;b&gt;Redis分布式锁&lt;/b&gt;" style="image;sketch=0;aspect=fixed;html=1;points=[];align=center;fontSize=12;image=img/lib/mscae/Cache_Redis_Product.svg;" parent="1" vertex="1">
          <mxGeometry x="6515" y="-82" width="50" height="42" as="geometry" />
        </mxCell>
        <mxCell id="Ig3GlLUK34uhVQRqRqdA-5" value="" style="edgeStyle=orthogonalEdgeStyle;rounded=0;orthogonalLoop=1;jettySize=auto;html=1;" parent="1" source="Ig3GlLUK34uhVQRqRqdA-3" target="Ig3GlLUK34uhVQRqRqdA-4" edge="1">
          <mxGeometry relative="1" as="geometry" />
        </mxCell>
        <mxCell id="Ig3GlLUK34uhVQRqRqdA-3" value="开始" style="rounded=0;whiteSpace=wrap;html=1;fillColor=none;" parent="1" vertex="1">
          <mxGeometry x="6728.5" y="335" width="84" height="40" as="geometry" />
        </mxCell>
        <mxCell id="Ig3GlLUK34uhVQRqRqdA-80" value="" style="edgeStyle=orthogonalEdgeStyle;rounded=0;orthogonalLoop=1;jettySize=auto;html=1;" parent="1" source="Ig3GlLUK34uhVQRqRqdA-4" target="Ig3GlLUK34uhVQRqRqdA-79" edge="1">
          <mxGeometry relative="1" as="geometry" />
        </mxCell>
        <mxCell id="Ig3GlLUK34uhVQRqRqdA-4" value="添加分布式锁" style="rounded=0;whiteSpace=wrap;html=1;fillColor=none;" parent="1" vertex="1">
          <mxGeometry x="6730" y="404.5" width="80" height="40" as="geometry" />
        </mxCell>
        <mxCell id="Ig3GlLUK34uhVQRqRqdA-12" style="edgeStyle=orthogonalEdgeStyle;rounded=0;orthogonalLoop=1;jettySize=auto;html=1;entryX=0.5;entryY=0;entryDx=0;entryDy=0;" parent="1" source="Ig3GlLUK34uhVQRqRqdA-8" target="Ig3GlLUK34uhVQRqRqdA-10" edge="1">
          <mxGeometry relative="1" as="geometry" />
        </mxCell>
        <mxCell id="Ig3GlLUK34uhVQRqRqdA-13" style="edgeStyle=orthogonalEdgeStyle;rounded=0;orthogonalLoop=1;jettySize=auto;html=1;" parent="1" source="Ig3GlLUK34uhVQRqRqdA-8" target="Ig3GlLUK34uhVQRqRqdA-11" edge="1">
          <mxGeometry relative="1" as="geometry" />
        </mxCell>
        <mxCell id="Ig3GlLUK34uhVQRqRqdA-8" value="发送MQ" style="rounded=0;whiteSpace=wrap;html=1;fillColor=none;" parent="1" vertex="1">
          <mxGeometry x="6730" y="570" width="80" height="40" as="geometry" />
        </mxCell>
        <mxCell id="Ig3GlLUK34uhVQRqRqdA-17" style="edgeStyle=orthogonalEdgeStyle;rounded=0;orthogonalLoop=1;jettySize=auto;html=1;entryX=0.5;entryY=0;entryDx=0;entryDy=0;" parent="1" source="Ig3GlLUK34uhVQRqRqdA-10" target="Ig3GlLUK34uhVQRqRqdA-14" edge="1">
          <mxGeometry relative="1" as="geometry" />
        </mxCell>
        <mxCell id="Ig3GlLUK34uhVQRqRqdA-10" value="C端插入" style="rounded=0;whiteSpace=wrap;html=1;fillColor=none;" parent="1" vertex="1">
          <mxGeometry x="6667.5" y="654.5" width="80" height="40" as="geometry" />
        </mxCell>
        <mxCell id="Ig3GlLUK34uhVQRqRqdA-18" style="edgeStyle=orthogonalEdgeStyle;rounded=0;orthogonalLoop=1;jettySize=auto;html=1;entryX=0.5;entryY=0;entryDx=0;entryDy=0;" parent="1" source="Ig3GlLUK34uhVQRqRqdA-11" target="Ig3GlLUK34uhVQRqRqdA-14" edge="1">
          <mxGeometry relative="1" as="geometry" />
        </mxCell>
        <mxCell id="Ig3GlLUK34uhVQRqRqdA-11" value="B端插入" style="rounded=0;whiteSpace=wrap;html=1;fillColor=none;" parent="1" vertex="1">
          <mxGeometry x="6792.5" y="654.5" width="80" height="40" as="geometry" />
        </mxCell>
        <mxCell id="Ig3GlLUK34uhVQRqRqdA-16" value="" style="edgeStyle=orthogonalEdgeStyle;rounded=0;orthogonalLoop=1;jettySize=auto;html=1;" parent="1" source="Ig3GlLUK34uhVQRqRqdA-14" target="Ig3GlLUK34uhVQRqRqdA-15" edge="1">
          <mxGeometry relative="1" as="geometry" />
        </mxCell>
        <mxCell id="Ig3GlLUK34uhVQRqRqdA-14" value="释放分布式锁" style="rounded=0;whiteSpace=wrap;html=1;fillColor=none;" parent="1" vertex="1">
          <mxGeometry x="6732.5" y="739" width="80" height="40" as="geometry" />
        </mxCell>
        <mxCell id="Ig3GlLUK34uhVQRqRqdA-20" value="" style="edgeStyle=orthogonalEdgeStyle;rounded=0;orthogonalLoop=1;jettySize=auto;html=1;" parent="1" source="Ig3GlLUK34uhVQRqRqdA-15" target="Ig3GlLUK34uhVQRqRqdA-19" edge="1">
          <mxGeometry relative="1" as="geometry" />
        </mxCell>
        <mxCell id="Ig3GlLUK34uhVQRqRqdA-15" value="用户响应" style="rounded=0;whiteSpace=wrap;html=1;fillColor=#FFCCCC;" parent="1" vertex="1">
          <mxGeometry x="6732.5" y="800.5" width="80" height="40" as="geometry" />
        </mxCell>
        <mxCell id="Ig3GlLUK34uhVQRqRqdA-19" value="结束" style="rounded=0;whiteSpace=wrap;html=1;fillColor=none;" parent="1" vertex="1">
          <mxGeometry x="6732.5" y="864.5" width="80" height="40" as="geometry" />
        </mxCell>
        <mxCell id="Ig3GlLUK34uhVQRqRqdA-56" value="" style="edgeStyle=orthogonalEdgeStyle;rounded=0;orthogonalLoop=1;jettySize=auto;html=1;" parent="1" source="Ig3GlLUK34uhVQRqRqdA-22" target="Ig3GlLUK34uhVQRqRqdA-37" edge="1">
          <mxGeometry relative="1" as="geometry" />
        </mxCell>
        <mxCell id="Ig3GlLUK34uhVQRqRqdA-22" value="开始" style="rounded=0;whiteSpace=wrap;html=1;fillColor=none;" parent="1" vertex="1">
          <mxGeometry x="7026" y="364.5" width="84" height="40" as="geometry" />
        </mxCell>
        <mxCell id="Ig3GlLUK34uhVQRqRqdA-60" value="" style="edgeStyle=orthogonalEdgeStyle;rounded=0;orthogonalLoop=1;jettySize=auto;html=1;" parent="1" source="Ig3GlLUK34uhVQRqRqdA-37" target="Ig3GlLUK34uhVQRqRqdA-46" edge="1">
          <mxGeometry relative="1" as="geometry" />
        </mxCell>
        <mxCell id="Ig3GlLUK34uhVQRqRqdA-37" value="用户响应" style="rounded=0;whiteSpace=wrap;html=1;fillColor=#FFCCCC;" parent="1" vertex="1">
          <mxGeometry x="7028" y="439.5" width="80" height="38.5" as="geometry" />
        </mxCell>
        <mxCell id="Ig3GlLUK34uhVQRqRqdA-61" value="" style="edgeStyle=orthogonalEdgeStyle;rounded=0;orthogonalLoop=1;jettySize=auto;html=1;" parent="1" source="Ig3GlLUK34uhVQRqRqdA-46" target="Ig3GlLUK34uhVQRqRqdA-48" edge="1">
          <mxGeometry relative="1" as="geometry">
            <Array as="points">
              <mxPoint x="7068" y="590" />
              <mxPoint x="6988" y="590" />
            </Array>
          </mxGeometry>
        </mxCell>
        <mxCell id="Ig3GlLUK34uhVQRqRqdA-66" style="edgeStyle=orthogonalEdgeStyle;rounded=0;orthogonalLoop=1;jettySize=auto;html=1;" parent="1" source="Ig3GlLUK34uhVQRqRqdA-46" target="Ig3GlLUK34uhVQRqRqdA-65" edge="1">
          <mxGeometry relative="1" as="geometry">
            <Array as="points">
              <mxPoint x="7068" y="590" />
              <mxPoint x="7165" y="590" />
            </Array>
          </mxGeometry>
        </mxCell>
        <mxCell id="Ig3GlLUK34uhVQRqRqdA-46" value="发送MQ" style="rounded=0;whiteSpace=wrap;html=1;fillColor=none;" parent="1" vertex="1">
          <mxGeometry x="7028" y="514.5" width="80" height="40" as="geometry" />
        </mxCell>
        <mxCell id="Ig3GlLUK34uhVQRqRqdA-90" style="edgeStyle=orthogonalEdgeStyle;rounded=0;orthogonalLoop=1;jettySize=auto;html=1;entryX=0.5;entryY=0;entryDx=0;entryDy=0;" parent="1" source="Ig3GlLUK34uhVQRqRqdA-48" target="Ig3GlLUK34uhVQRqRqdA-84" edge="1">
          <mxGeometry relative="1" as="geometry" />
        </mxCell>
        <mxCell id="Ig3GlLUK34uhVQRqRqdA-48" value="C端&lt;br&gt;添加分布式锁" style="rounded=0;whiteSpace=wrap;html=1;fillColor=none;" parent="1" vertex="1">
          <mxGeometry x="6948" y="614.5" width="80" height="40" as="geometry" />
        </mxCell>
        <mxCell id="Ig3GlLUK34uhVQRqRqdA-59" value="" style="edgeStyle=orthogonalEdgeStyle;rounded=0;orthogonalLoop=1;jettySize=auto;html=1;" parent="1" source="Ig3GlLUK34uhVQRqRqdA-52" target="Ig3GlLUK34uhVQRqRqdA-55" edge="1">
          <mxGeometry relative="1" as="geometry">
            <Array as="points">
              <mxPoint x="6988" y="920" />
              <mxPoint x="7070" y="920" />
            </Array>
          </mxGeometry>
        </mxCell>
        <mxCell id="Ig3GlLUK34uhVQRqRqdA-52" value="释放分布式锁" style="rounded=0;whiteSpace=wrap;html=1;fillColor=none;" parent="1" vertex="1">
          <mxGeometry x="6948" y="860" width="80" height="40" as="geometry" />
        </mxCell>
        <mxCell id="Ig3GlLUK34uhVQRqRqdA-55" value="结束" style="rounded=0;whiteSpace=wrap;html=1;fillColor=none;" parent="1" vertex="1">
          <mxGeometry x="7030" y="945" width="80" height="40" as="geometry" />
        </mxCell>
        <mxCell id="Ig3GlLUK34uhVQRqRqdA-91" style="edgeStyle=orthogonalEdgeStyle;rounded=0;orthogonalLoop=1;jettySize=auto;html=1;entryX=0.5;entryY=0;entryDx=0;entryDy=0;" parent="1" source="Ig3GlLUK34uhVQRqRqdA-65" target="Ig3GlLUK34uhVQRqRqdA-85" edge="1">
          <mxGeometry relative="1" as="geometry" />
        </mxCell>
        <mxCell id="Ig3GlLUK34uhVQRqRqdA-65" value="B 端&lt;br&gt;添加分布式锁" style="rounded=0;whiteSpace=wrap;html=1;fillColor=none;" parent="1" vertex="1">
          <mxGeometry x="7125" y="614.5" width="80" height="40" as="geometry" />
        </mxCell>
        <mxCell id="Ig3GlLUK34uhVQRqRqdA-75" value="" style="edgeStyle=orthogonalEdgeStyle;rounded=0;orthogonalLoop=1;jettySize=auto;html=1;" parent="1" source="Ig3GlLUK34uhVQRqRqdA-67" target="Ig3GlLUK34uhVQRqRqdA-52" edge="1">
          <mxGeometry relative="1" as="geometry" />
        </mxCell>
        <mxCell id="Ig3GlLUK34uhVQRqRqdA-67" value="保存短链" style="rounded=0;whiteSpace=wrap;html=1;fillColor=none;" parent="1" vertex="1">
          <mxGeometry x="6948" y="797" width="80" height="40" as="geometry" />
        </mxCell>
        <mxCell id="Ig3GlLUK34uhVQRqRqdA-77" value="" style="edgeStyle=orthogonalEdgeStyle;rounded=0;orthogonalLoop=1;jettySize=auto;html=1;" parent="1" source="Ig3GlLUK34uhVQRqRqdA-70" target="Ig3GlLUK34uhVQRqRqdA-76" edge="1">
          <mxGeometry relative="1" as="geometry" />
        </mxCell>
        <mxCell id="Ig3GlLUK34uhVQRqRqdA-70" value="保存短链" style="rounded=0;whiteSpace=wrap;html=1;fillColor=none;" parent="1" vertex="1">
          <mxGeometry x="7125" y="789.5" width="80" height="40" as="geometry" />
        </mxCell>
        <mxCell id="Ig3GlLUK34uhVQRqRqdA-78" style="edgeStyle=orthogonalEdgeStyle;rounded=0;orthogonalLoop=1;jettySize=auto;html=1;entryX=0.5;entryY=0;entryDx=0;entryDy=0;" parent="1" source="Ig3GlLUK34uhVQRqRqdA-76" target="Ig3GlLUK34uhVQRqRqdA-55" edge="1">
          <mxGeometry relative="1" as="geometry">
            <Array as="points">
              <mxPoint x="7165" y="920" />
              <mxPoint x="7070" y="920" />
            </Array>
          </mxGeometry>
        </mxCell>
        <mxCell id="Ig3GlLUK34uhVQRqRqdA-76" value="释放分布式锁" style="rounded=0;whiteSpace=wrap;html=1;fillColor=none;" parent="1" vertex="1">
          <mxGeometry x="7125" y="852.5" width="80" height="40" as="geometry" />
        </mxCell>
        <mxCell id="Ig3GlLUK34uhVQRqRqdA-83" value="" style="edgeStyle=orthogonalEdgeStyle;rounded=0;orthogonalLoop=1;jettySize=auto;html=1;" parent="1" source="Ig3GlLUK34uhVQRqRqdA-79" target="Ig3GlLUK34uhVQRqRqdA-8" edge="1">
          <mxGeometry relative="1" as="geometry" />
        </mxCell>
        <mxCell id="Ig3GlLUK34uhVQRqRqdA-79" value="查询短链码是否重复" style="rhombus;whiteSpace=wrap;html=1;fillColor=none;" parent="1" vertex="1">
          <mxGeometry x="6705" y="470" width="130" height="80" as="geometry" />
        </mxCell>
        <mxCell id="Ig3GlLUK34uhVQRqRqdA-86" value="" style="edgeStyle=orthogonalEdgeStyle;rounded=0;orthogonalLoop=1;jettySize=auto;html=1;" parent="1" source="Ig3GlLUK34uhVQRqRqdA-84" target="Ig3GlLUK34uhVQRqRqdA-67" edge="1">
          <mxGeometry relative="1" as="geometry" />
        </mxCell>
        <mxCell id="Ig3GlLUK34uhVQRqRqdA-84" value="查询短链码是否重复" style="rhombus;whiteSpace=wrap;html=1;fillColor=none;" parent="1" vertex="1">
          <mxGeometry x="6923" y="680" width="130" height="80" as="geometry" />
        </mxCell>
        <mxCell id="Ig3GlLUK34uhVQRqRqdA-88" style="edgeStyle=orthogonalEdgeStyle;rounded=0;orthogonalLoop=1;jettySize=auto;html=1;entryX=0.5;entryY=0;entryDx=0;entryDy=0;" parent="1" source="Ig3GlLUK34uhVQRqRqdA-85" target="Ig3GlLUK34uhVQRqRqdA-70" edge="1">
          <mxGeometry relative="1" as="geometry" />
        </mxCell>
        <mxCell id="Ig3GlLUK34uhVQRqRqdA-85" value="查询短链码是否重复" style="rhombus;whiteSpace=wrap;html=1;fillColor=none;" parent="1" vertex="1">
          <mxGeometry x="7100" y="680" width="130" height="80" as="geometry" />
        </mxCell>
        <mxCell id="Ig3GlLUK34uhVQRqRqdA-102" value="" style="edgeStyle=orthogonalEdgeStyle;rounded=0;orthogonalLoop=1;jettySize=auto;html=1;" parent="1" source="Ig3GlLUK34uhVQRqRqdA-92" target="Ig3GlLUK34uhVQRqRqdA-101" edge="1">
          <mxGeometry relative="1" as="geometry" />
        </mxCell>
        <mxCell id="Ig3GlLUK34uhVQRqRqdA-92" value="锁管理" style="ellipse;shape=cloud;whiteSpace=wrap;html=1;fillColor=none;" parent="1" vertex="1">
          <mxGeometry x="7540" y="490" width="120" height="80" as="geometry" />
        </mxCell>
        <mxCell id="Ig3GlLUK34uhVQRqRqdA-93" value="节点1" style="rounded=0;whiteSpace=wrap;html=1;fillColor=#D5E8D4;" parent="1" vertex="1">
          <mxGeometry x="7410" y="375" width="110" height="45" as="geometry" />
        </mxCell>
        <mxCell id="Ig3GlLUK34uhVQRqRqdA-94" value="节点2" style="rounded=0;whiteSpace=wrap;html=1;fillColor=#D5E8D4;" parent="1" vertex="1">
          <mxGeometry x="7560" y="375" width="110" height="45" as="geometry" />
        </mxCell>
        <mxCell id="Ig3GlLUK34uhVQRqRqdA-95" value="节点3" style="rounded=0;whiteSpace=wrap;html=1;fillColor=#D5E8D4;" parent="1" vertex="1">
          <mxGeometry x="7710" y="373.5" width="110" height="45" as="geometry" />
        </mxCell>
        <mxCell id="Ig3GlLUK34uhVQRqRqdA-96" style="edgeStyle=orthogonalEdgeStyle;rounded=0;orthogonalLoop=1;jettySize=auto;html=1;entryX=0.4;entryY=0.1;entryDx=0;entryDy=0;entryPerimeter=0;" parent="1" source="Ig3GlLUK34uhVQRqRqdA-93" target="Ig3GlLUK34uhVQRqRqdA-92" edge="1">
          <mxGeometry relative="1" as="geometry">
            <Array as="points">
              <mxPoint x="7465" y="470" />
              <mxPoint x="7588" y="470" />
            </Array>
          </mxGeometry>
        </mxCell>
        <mxCell id="Ig3GlLUK34uhVQRqRqdA-98" style="edgeStyle=orthogonalEdgeStyle;rounded=0;orthogonalLoop=1;jettySize=auto;html=1;entryX=0.4;entryY=0.1;entryDx=0;entryDy=0;entryPerimeter=0;" parent="1" source="Ig3GlLUK34uhVQRqRqdA-94" target="Ig3GlLUK34uhVQRqRqdA-92" edge="1">
          <mxGeometry relative="1" as="geometry">
            <Array as="points">
              <mxPoint x="7615" y="470" />
              <mxPoint x="7588" y="470" />
            </Array>
          </mxGeometry>
        </mxCell>
        <mxCell id="Ig3GlLUK34uhVQRqRqdA-100" style="edgeStyle=orthogonalEdgeStyle;rounded=0;orthogonalLoop=1;jettySize=auto;html=1;entryX=0.4;entryY=0.1;entryDx=0;entryDy=0;entryPerimeter=0;" parent="1" source="Ig3GlLUK34uhVQRqRqdA-95" target="Ig3GlLUK34uhVQRqRqdA-92" edge="1">
          <mxGeometry relative="1" as="geometry">
            <Array as="points">
              <mxPoint x="7765" y="470" />
              <mxPoint x="7588" y="470" />
            </Array>
          </mxGeometry>
        </mxCell>
        <mxCell id="Ig3GlLUK34uhVQRqRqdA-101" value="数据库" style="shape=cylinder3;whiteSpace=wrap;html=1;boundedLbl=1;backgroundOutline=1;size=15;fillColor=#D4E1F5;" parent="1" vertex="1">
          <mxGeometry x="7570" y="619" width="60" height="80" as="geometry" />
        </mxCell>
        <mxCell id="Ig3GlLUK34uhVQRqRqdA-103" value="只有申请锁成功的节点才能操作数据库" style="text;html=1;align=center;verticalAlign=middle;resizable=0;points=[];autosize=1;strokeColor=none;fillColor=none;" parent="1" vertex="1">
          <mxGeometry x="7650" y="515" width="230" height="30" as="geometry" />
        </mxCell>
        <mxCell id="Ig3GlLUK34uhVQRqRqdA-107" value="" style="edgeStyle=orthogonalEdgeStyle;rounded=0;orthogonalLoop=1;jettySize=auto;html=1;" parent="1" source="Ig3GlLUK34uhVQRqRqdA-104" target="Ig3GlLUK34uhVQRqRqdA-106" edge="1">
          <mxGeometry relative="1" as="geometry" />
        </mxCell>
        <mxCell id="Ig3GlLUK34uhVQRqRqdA-104" value="开始" style="rounded=0;whiteSpace=wrap;html=1;fillColor=none;" parent="1" vertex="1">
          <mxGeometry x="7640" y="840" width="100" height="40" as="geometry" />
        </mxCell>
        <mxCell id="Ig3GlLUK34uhVQRqRqdA-109" value="" style="edgeStyle=orthogonalEdgeStyle;rounded=0;orthogonalLoop=1;jettySize=auto;html=1;" parent="1" source="Ig3GlLUK34uhVQRqRqdA-106" target="Ig3GlLUK34uhVQRqRqdA-108" edge="1">
          <mxGeometry relative="1" as="geometry" />
        </mxCell>
        <mxCell id="Ig3GlLUK34uhVQRqRqdA-106" value="SETNX加锁" style="rounded=0;whiteSpace=wrap;html=1;fillColor=none;" parent="1" vertex="1">
          <mxGeometry x="7770" y="840.5" width="100" height="40" as="geometry" />
        </mxCell>
        <mxCell id="Ig3GlLUK34uhVQRqRqdA-111" value="" style="edgeStyle=orthogonalEdgeStyle;rounded=0;orthogonalLoop=1;jettySize=auto;html=1;" parent="1" source="Ig3GlLUK34uhVQRqRqdA-108" target="Ig3GlLUK34uhVQRqRqdA-110" edge="1">
          <mxGeometry relative="1" as="geometry" />
        </mxCell>
        <mxCell id="Ig3GlLUK34uhVQRqRqdA-108" value="设置过期时间" style="rounded=0;whiteSpace=wrap;html=1;fillColor=none;" parent="1" vertex="1">
          <mxGeometry x="7890" y="840.5" width="100" height="40" as="geometry" />
        </mxCell>
        <mxCell id="Ig3GlLUK34uhVQRqRqdA-113" value="" style="edgeStyle=orthogonalEdgeStyle;rounded=0;orthogonalLoop=1;jettySize=auto;html=1;" parent="1" source="Ig3GlLUK34uhVQRqRqdA-110" target="Ig3GlLUK34uhVQRqRqdA-112" edge="1">
          <mxGeometry relative="1" as="geometry" />
        </mxCell>
        <mxCell id="Ig3GlLUK34uhVQRqRqdA-110" value="执行业务逻辑&lt;div&gt;时间过长&lt;/div&gt;" style="rounded=0;whiteSpace=wrap;html=1;fillColor=#FFCCCC;" parent="1" vertex="1">
          <mxGeometry x="8010" y="840.5" width="100" height="40" as="geometry" />
        </mxCell>
        <mxCell id="Ig3GlLUK34uhVQRqRqdA-115" value="" style="edgeStyle=orthogonalEdgeStyle;rounded=0;orthogonalLoop=1;jettySize=auto;html=1;" parent="1" source="Ig3GlLUK34uhVQRqRqdA-112" target="Ig3GlLUK34uhVQRqRqdA-114" edge="1">
          <mxGeometry relative="1" as="geometry" />
        </mxCell>
        <mxCell id="Ig3GlLUK34uhVQRqRqdA-112" value="释放锁" style="rounded=0;whiteSpace=wrap;html=1;fillColor=none;" parent="1" vertex="1">
          <mxGeometry x="8140" y="840.5" width="100" height="40" as="geometry" />
        </mxCell>
        <mxCell id="Ig3GlLUK34uhVQRqRqdA-114" value="结束" style="rounded=0;whiteSpace=wrap;html=1;fillColor=none;" parent="1" vertex="1">
          <mxGeometry x="8270" y="840.5" width="100" height="40" as="geometry" />
        </mxCell>
        <mxCell id="Ig3GlLUK34uhVQRqRqdA-119" value="" style="edgeStyle=orthogonalEdgeStyle;rounded=0;orthogonalLoop=1;jettySize=auto;html=1;" parent="1" source="Ig3GlLUK34uhVQRqRqdA-116" target="Ig3GlLUK34uhVQRqRqdA-118" edge="1">
          <mxGeometry relative="1" as="geometry" />
        </mxCell>
        <mxCell id="Ig3GlLUK34uhVQRqRqdA-116" value="开始" style="rounded=0;whiteSpace=wrap;html=1;fillColor=none;" parent="1" vertex="1">
          <mxGeometry x="7820" y="1034.75" width="100" height="40" as="geometry" />
        </mxCell>
        <mxCell id="Ig3GlLUK34uhVQRqRqdA-123" value="Y" style="edgeStyle=orthogonalEdgeStyle;rounded=0;orthogonalLoop=1;jettySize=auto;html=1;" parent="1" source="Ig3GlLUK34uhVQRqRqdA-118" target="Ig3GlLUK34uhVQRqRqdA-122" edge="1">
          <mxGeometry relative="1" as="geometry">
            <Array as="points">
              <mxPoint x="7870" y="1210" />
              <mxPoint x="7870" y="1210" />
            </Array>
          </mxGeometry>
        </mxCell>
        <mxCell id="Ig3GlLUK34uhVQRqRqdA-136" value="N" style="edgeStyle=orthogonalEdgeStyle;rounded=0;orthogonalLoop=1;jettySize=auto;html=1;entryX=1;entryY=0.5;entryDx=0;entryDy=0;" parent="1" source="Ig3GlLUK34uhVQRqRqdA-118" target="Ig3GlLUK34uhVQRqRqdA-124" edge="1">
          <mxGeometry relative="1" as="geometry">
            <Array as="points">
              <mxPoint x="7990" y="1135" />
              <mxPoint x="7990" y="1360" />
            </Array>
          </mxGeometry>
        </mxCell>
        <mxCell id="Ig3GlLUK34uhVQRqRqdA-118" value="accountt_no&lt;br&gt;是否存在" style="rhombus;whiteSpace=wrap;html=1;fillColor=none;" parent="1" vertex="1">
          <mxGeometry x="7795" y="1101" width="150" height="68.25" as="geometry" />
        </mxCell>
        <mxCell id="Ig3GlLUK34uhVQRqRqdA-125" value="Y" style="edgeStyle=orthogonalEdgeStyle;rounded=0;orthogonalLoop=1;jettySize=auto;html=1;" parent="1" source="Ig3GlLUK34uhVQRqRqdA-122" target="Ig3GlLUK34uhVQRqRqdA-124" edge="1">
          <mxGeometry relative="1" as="geometry" />
        </mxCell>
        <mxCell id="Ig3GlLUK34uhVQRqRqdA-138" value="N" style="edgeStyle=orthogonalEdgeStyle;rounded=0;orthogonalLoop=1;jettySize=auto;html=1;entryX=0;entryY=0.5;entryDx=0;entryDy=0;" parent="1" source="Ig3GlLUK34uhVQRqRqdA-122" target="Ig3GlLUK34uhVQRqRqdA-128" edge="1">
          <mxGeometry relative="1" as="geometry">
            <Array as="points">
              <mxPoint x="7750" y="1261" />
              <mxPoint x="7750" y="1440" />
            </Array>
          </mxGeometry>
        </mxCell>
        <mxCell id="Ig3GlLUK34uhVQRqRqdA-122" value="acocunt_no&lt;br&gt;是否相同" style="rhombus;whiteSpace=wrap;html=1;fillColor=none;" parent="1" vertex="1">
          <mxGeometry x="7795" y="1226.5" width="150" height="68.25" as="geometry" />
        </mxCell>
        <mxCell id="Ig3GlLUK34uhVQRqRqdA-137" value="" style="edgeStyle=orthogonalEdgeStyle;rounded=0;orthogonalLoop=1;jettySize=auto;html=1;" parent="1" source="Ig3GlLUK34uhVQRqRqdA-124" target="Ig3GlLUK34uhVQRqRqdA-128" edge="1">
          <mxGeometry relative="1" as="geometry" />
        </mxCell>
        <mxCell id="Ig3GlLUK34uhVQRqRqdA-124" value="加锁" style="rounded=0;whiteSpace=wrap;html=1;fillColor=none;" parent="1" vertex="1">
          <mxGeometry x="7820" y="1340" width="100" height="40" as="geometry" />
        </mxCell>
        <mxCell id="Ig3GlLUK34uhVQRqRqdA-128" value="结束" style="rounded=0;whiteSpace=wrap;html=1;fillColor=none;" parent="1" vertex="1">
          <mxGeometry x="7820" y="1420" width="100" height="40" as="geometry" />
        </mxCell>
        <mxCell id="Ig3GlLUK34uhVQRqRqdA-139" value="用户A" style="text;html=1;align=center;verticalAlign=middle;resizable=0;points=[];autosize=1;strokeColor=none;fillColor=none;" parent="1" vertex="1">
          <mxGeometry x="6205" y="-70" width="60" height="30" as="geometry" />
        </mxCell>
        <mxCell id="Ig3GlLUK34uhVQRqRqdA-140" value="用户B" style="text;html=1;align=center;verticalAlign=middle;resizable=0;points=[];autosize=1;strokeColor=none;fillColor=none;" parent="1" vertex="1">
          <mxGeometry x="6205" y="-40" width="60" height="30" as="geometry" />
        </mxCell>
        <mxCell id="fuMW-E2KHrmlSrU_KmXs-1" value="" style="endArrow=classic;html=1;rounded=0;" parent="1" edge="1">
          <mxGeometry width="50" height="50" relative="1" as="geometry">
            <mxPoint x="2481" y="-440" as="sourcePoint" />
            <mxPoint x="2791" y="-440" as="targetPoint" />
          </mxGeometry>
        </mxCell>
        <mxCell id="fuMW-E2KHrmlSrU_KmXs-2" value="" style="endArrow=classic;html=1;rounded=0;" parent="1" edge="1">
          <mxGeometry width="50" height="50" relative="1" as="geometry">
            <mxPoint x="2481" y="-440" as="sourcePoint" />
            <mxPoint x="2481" y="-600" as="targetPoint" />
          </mxGeometry>
        </mxCell>
        <mxCell id="fuMW-E2KHrmlSrU_KmXs-3" value="收益率" style="text;html=1;align=center;verticalAlign=middle;resizable=0;points=[];autosize=1;strokeColor=none;fillColor=none;" parent="1" vertex="1">
          <mxGeometry x="2420" y="-593.25" width="60" height="30" as="geometry" />
        </mxCell>
        <mxCell id="fuMW-E2KHrmlSrU_KmXs-4" value="剩余期限" style="text;html=1;align=center;verticalAlign=middle;resizable=0;points=[];autosize=1;strokeColor=none;fillColor=none;" parent="1" vertex="1">
          <mxGeometry x="2715" y="-440" width="70" height="30" as="geometry" />
        </mxCell>
        <mxCell id="fuMW-E2KHrmlSrU_KmXs-5" value="" style="endArrow=none;html=1;rounded=0;" parent="1" source="fuMW-E2KHrmlSrU_KmXs-17" edge="1">
          <mxGeometry width="50" height="50" relative="1" as="geometry">
            <mxPoint x="2560" y="-490" as="sourcePoint" />
            <mxPoint x="2680" y="-550" as="targetPoint" />
          </mxGeometry>
        </mxCell>
        <mxCell id="fuMW-E2KHrmlSrU_KmXs-7" value="" style="ellipse;whiteSpace=wrap;html=1;aspect=fixed;fillColor=#FF6666;" parent="1" vertex="1">
          <mxGeometry x="2610.88" y="-550.44" width="10.88" height="10.88" as="geometry" />
        </mxCell>
        <mxCell id="fuMW-E2KHrmlSrU_KmXs-11" value="" style="endArrow=none;html=1;rounded=0;" parent="1" target="fuMW-E2KHrmlSrU_KmXs-10" edge="1">
          <mxGeometry width="50" height="50" relative="1" as="geometry">
            <mxPoint x="2560" y="-490" as="sourcePoint" />
            <mxPoint x="2680" y="-550" as="targetPoint" />
          </mxGeometry>
        </mxCell>
        <mxCell id="fuMW-E2KHrmlSrU_KmXs-10" value="" style="ellipse;whiteSpace=wrap;html=1;aspect=fixed;fillColor=#D4E1F5;" parent="1" vertex="1">
          <mxGeometry x="2590" y="-514.56" width="10.88" height="10.88" as="geometry" />
        </mxCell>
        <mxCell id="fuMW-E2KHrmlSrU_KmXs-19" value="" style="endArrow=none;html=1;rounded=0;" parent="1" source="fuMW-E2KHrmlSrU_KmXs-27" target="fuMW-E2KHrmlSrU_KmXs-17" edge="1">
          <mxGeometry width="50" height="50" relative="1" as="geometry">
            <mxPoint x="2610" y="-517" as="sourcePoint" />
            <mxPoint x="2680" y="-550" as="targetPoint" />
          </mxGeometry>
        </mxCell>
        <mxCell id="fuMW-E2KHrmlSrU_KmXs-17" value="" style="ellipse;whiteSpace=wrap;html=1;aspect=fixed;fillColor=#D4E1F5;" parent="1" vertex="1">
          <mxGeometry x="2640" y="-540" width="10.88" height="10.88" as="geometry" />
        </mxCell>
        <mxCell id="fuMW-E2KHrmlSrU_KmXs-20" value="" style="endArrow=none;dashed=1;html=1;dashPattern=1 3;strokeWidth=2;rounded=0;entryX=0.5;entryY=1;entryDx=0;entryDy=0;" parent="1" source="fuMW-E2KHrmlSrU_KmXs-27" target="fuMW-E2KHrmlSrU_KmXs-7" edge="1">
          <mxGeometry width="50" height="50" relative="1" as="geometry">
            <mxPoint x="2616" y="-440" as="sourcePoint" />
            <mxPoint x="2660" y="-550" as="targetPoint" />
          </mxGeometry>
        </mxCell>
        <mxCell id="fuMW-E2KHrmlSrU_KmXs-22" value="" style="endArrow=none;dashed=1;html=1;dashPattern=1 3;strokeWidth=2;rounded=0;entryX=0.5;entryY=1;entryDx=0;entryDy=0;" parent="1" target="fuMW-E2KHrmlSrU_KmXs-10" edge="1">
          <mxGeometry width="50" height="50" relative="1" as="geometry">
            <mxPoint x="2595" y="-440" as="sourcePoint" />
            <mxPoint x="2626" y="-530" as="targetPoint" />
          </mxGeometry>
        </mxCell>
        <mxCell id="fuMW-E2KHrmlSrU_KmXs-23" value="" style="endArrow=none;dashed=1;html=1;dashPattern=1 3;strokeWidth=2;rounded=0;entryX=0.5;entryY=1;entryDx=0;entryDy=0;" parent="1" target="fuMW-E2KHrmlSrU_KmXs-17" edge="1">
          <mxGeometry width="50" height="50" relative="1" as="geometry">
            <mxPoint x="2645" y="-440" as="sourcePoint" />
            <mxPoint x="2615" y="-499" as="targetPoint" />
          </mxGeometry>
        </mxCell>
        <mxCell id="fuMW-E2KHrmlSrU_KmXs-24" value="(x2,y2)" style="text;html=1;align=center;verticalAlign=middle;resizable=0;points=[];autosize=1;strokeColor=none;fillColor=none;" parent="1" vertex="1">
          <mxGeometry x="2645.88" y="-539.12" width="60" height="30" as="geometry" />
        </mxCell>
        <mxCell id="fuMW-E2KHrmlSrU_KmXs-25" value="(x1,y1)" style="text;html=1;align=center;verticalAlign=middle;resizable=0;points=[];autosize=1;strokeColor=none;fillColor=none;" parent="1" vertex="1">
          <mxGeometry x="2535" y="-525.0100000000001" width="60" height="30" as="geometry" />
        </mxCell>
        <mxCell id="fuMW-E2KHrmlSrU_KmXs-26" value="(m,by)" style="text;html=1;align=center;verticalAlign=middle;resizable=0;points=[];autosize=1;strokeColor=none;fillColor=none;" parent="1" vertex="1">
          <mxGeometry x="2590" y="-580.44" width="60" height="30" as="geometry" />
        </mxCell>
        <mxCell id="fuMW-E2KHrmlSrU_KmXs-28" value="" style="endArrow=none;html=1;rounded=0;" parent="1" source="fuMW-E2KHrmlSrU_KmXs-10" target="fuMW-E2KHrmlSrU_KmXs-27" edge="1">
          <mxGeometry width="50" height="50" relative="1" as="geometry">
            <mxPoint x="2610" y="-517" as="sourcePoint" />
            <mxPoint x="2641" y="-532" as="targetPoint" />
          </mxGeometry>
        </mxCell>
        <mxCell id="fuMW-E2KHrmlSrU_KmXs-29" value="" style="endArrow=none;dashed=1;html=1;dashPattern=1 3;strokeWidth=2;rounded=0;entryX=0.5;entryY=1;entryDx=0;entryDy=0;" parent="1" target="fuMW-E2KHrmlSrU_KmXs-27" edge="1">
          <mxGeometry width="50" height="50" relative="1" as="geometry">
            <mxPoint x="2616" y="-440" as="sourcePoint" />
            <mxPoint x="2616" y="-540" as="targetPoint" />
          </mxGeometry>
        </mxCell>
        <mxCell id="fuMW-E2KHrmlSrU_KmXs-27" value="" style="ellipse;whiteSpace=wrap;html=1;aspect=fixed;fillColor=#D5E8D4;" parent="1" vertex="1">
          <mxGeometry x="2610.88" y="-525.4399999999999" width="10.88" height="10.88" as="geometry" />
        </mxCell>
        <mxCell id="fuMW-E2KHrmlSrU_KmXs-30" value="(m,s)" style="text;html=1;align=center;verticalAlign=middle;resizable=0;points=[];autosize=1;strokeColor=none;fillColor=none;" parent="1" vertex="1">
          <mxGeometry x="2590" y="-524.1200000000001" width="50" height="30" as="geometry" />
        </mxCell>
        <mxCell id="VWkFoY7AdB1eu8B3zv-9-3" value="" style="edgeStyle=orthogonalEdgeStyle;rounded=0;orthogonalLoop=1;jettySize=auto;html=1;" parent="1" source="fuMW-E2KHrmlSrU_KmXs-32" target="fuMW-E2KHrmlSrU_KmXs-33" edge="1">
          <mxGeometry relative="1" as="geometry" />
        </mxCell>
        <mxCell id="fuMW-E2KHrmlSrU_KmXs-32" value="用户" style="shape=umlActor;verticalLabelPosition=bottom;verticalAlign=top;html=1;outlineConnect=0;" parent="1" vertex="1">
          <mxGeometry x="8710" y="-1030" width="30" height="60" as="geometry" />
        </mxCell>
        <mxCell id="VWkFoY7AdB1eu8B3zv-9-5" value="1.下单" style="edgeStyle=orthogonalEdgeStyle;rounded=0;orthogonalLoop=1;jettySize=auto;html=1;fontStyle=1" parent="1" source="fuMW-E2KHrmlSrU_KmXs-33" target="VWkFoY7AdB1eu8B3zv-9-4" edge="1">
          <mxGeometry relative="1" as="geometry" />
        </mxCell>
        <mxCell id="fuMW-E2KHrmlSrU_KmXs-33" value="GateWay&lt;br&gt;网关" style="ellipse;shape=cloud;whiteSpace=wrap;html=1;fillColor=#E1D5E7;" parent="1" vertex="1">
          <mxGeometry x="8780" y="-1040.87" width="120" height="80" as="geometry" />
        </mxCell>
        <mxCell id="VWkFoY7AdB1eu8B3zv-9-8" value="2.创建订单" style="edgeStyle=orthogonalEdgeStyle;rounded=0;orthogonalLoop=1;jettySize=auto;html=1;fontStyle=1;strokeColor=#FF6666;" parent="1" source="VWkFoY7AdB1eu8B3zv-9-4" target="VWkFoY7AdB1eu8B3zv-9-7" edge="1">
          <mxGeometry relative="1" as="geometry" />
        </mxCell>
        <mxCell id="VWkFoY7AdB1eu8B3zv-9-11" value="&lt;b&gt;3.订单消息延迟消费（比支付有效时间长）&lt;/b&gt;" style="edgeStyle=orthogonalEdgeStyle;rounded=0;orthogonalLoop=1;jettySize=auto;html=1;strokeColor=#FF6666;" parent="1" source="VWkFoY7AdB1eu8B3zv-9-4" target="VWkFoY7AdB1eu8B3zv-9-10" edge="1">
          <mxGeometry relative="1" as="geometry" />
        </mxCell>
        <mxCell id="VWkFoY7AdB1eu8B3zv-9-4" value="订单服务" style="rounded=0;whiteSpace=wrap;html=1;fillColor=#D5E8D4;fontStyle=1" parent="1" vertex="1">
          <mxGeometry x="9010" y="-1031.75" width="120" height="61.75" as="geometry" />
        </mxCell>
        <mxCell id="VWkFoY7AdB1eu8B3zv-9-7" value="数据库" style="shape=cylinder3;whiteSpace=wrap;html=1;boundedLbl=1;backgroundOutline=1;size=15;fillColor=#D4E1F5;" parent="1" vertex="1">
          <mxGeometry x="9270" y="-1040" width="60" height="80" as="geometry" />
        </mxCell>
        <mxCell id="VWkFoY7AdB1eu8B3zv-9-13" value="6.监听消息" style="edgeStyle=orthogonalEdgeStyle;rounded=0;orthogonalLoop=1;jettySize=auto;html=1;fontStyle=1;strokeColor=#FF6666;" parent="1" source="VWkFoY7AdB1eu8B3zv-9-10" target="VWkFoY7AdB1eu8B3zv-9-12" edge="1">
          <mxGeometry relative="1" as="geometry" />
        </mxCell>
        <mxCell id="VWkFoY7AdB1eu8B3zv-9-10" value="RabbitMQ延迟队列" style="ellipse;shape=cloud;whiteSpace=wrap;html=1;fillColor=#E1D5E7;" parent="1" vertex="1">
          <mxGeometry x="8990" y="-1269.12" width="160" height="80" as="geometry" />
        </mxCell>
        <mxCell id="VWkFoY7AdB1eu8B3zv-9-26" style="edgeStyle=orthogonalEdgeStyle;rounded=0;orthogonalLoop=1;jettySize=auto;html=1;entryX=0.5;entryY=0;entryDx=0;entryDy=0;strokeColor=#FF6666;" parent="1" source="VWkFoY7AdB1eu8B3zv-9-12" target="VWkFoY7AdB1eu8B3zv-9-23" edge="1">
          <mxGeometry relative="1" as="geometry">
            <Array as="points">
              <mxPoint x="9400" y="-1190" />
              <mxPoint x="9400" y="-1190" />
            </Array>
          </mxGeometry>
        </mxCell>
        <mxCell id="VWkFoY7AdB1eu8B3zv-9-28" style="edgeStyle=orthogonalEdgeStyle;rounded=0;orthogonalLoop=1;jettySize=auto;html=1;entryX=0;entryY=0.5;entryDx=0;entryDy=0;" parent="1" source="VWkFoY7AdB1eu8B3zv-9-12" target="VWkFoY7AdB1eu8B3zv-9-27" edge="1">
          <mxGeometry relative="1" as="geometry" />
        </mxCell>
        <mxCell id="VWkFoY7AdB1eu8B3zv-9-12" value="关单服务" style="rounded=0;whiteSpace=wrap;html=1;fillColor=#D5E8D4;fontStyle=1" parent="1" vertex="1">
          <mxGeometry x="9340" y="-1260" width="170" height="61.75" as="geometry" />
        </mxCell>
        <mxCell id="VWkFoY7AdB1eu8B3zv-9-18" value="&lt;b&gt;5.用户支付后，推送支付信息&lt;/b&gt;" style="edgeStyle=orthogonalEdgeStyle;rounded=0;orthogonalLoop=1;jettySize=auto;html=1;entryX=0.25;entryY=1;entryDx=0;entryDy=0;" parent="1" source="VWkFoY7AdB1eu8B3zv-9-14" target="VWkFoY7AdB1eu8B3zv-9-4" edge="1">
          <mxGeometry x="0.0639" relative="1" as="geometry">
            <Array as="points">
              <mxPoint x="9635" y="-880" />
              <mxPoint x="9040" y="-880" />
            </Array>
            <mxPoint as="offset" />
          </mxGeometry>
        </mxCell>
        <mxCell id="VWkFoY7AdB1eu8B3zv-9-14" value="第三方支付平台" style="rounded=0;whiteSpace=wrap;html=1;fillColor=#CCCCCC;fontStyle=1" parent="1" vertex="1">
          <mxGeometry x="9590" y="-1130" width="90" height="230" as="geometry" />
        </mxCell>
        <mxCell id="VWkFoY7AdB1eu8B3zv-9-17" value="4.创建支付信息" style="edgeStyle=orthogonalEdgeStyle;rounded=0;orthogonalLoop=1;jettySize=auto;html=1;entryX=0.027;entryY=0.852;entryDx=0;entryDy=0;entryPerimeter=0;fontStyle=1" parent="1" source="VWkFoY7AdB1eu8B3zv-9-4" target="VWkFoY7AdB1eu8B3zv-9-14" edge="1">
          <mxGeometry relative="1" as="geometry">
            <Array as="points">
              <mxPoint x="9070" y="-934" />
            </Array>
          </mxGeometry>
        </mxCell>
        <mxCell id="VWkFoY7AdB1eu8B3zv-9-22" value="&lt;b&gt;9.更新订单状态：取消OR已支付&lt;/b&gt;" style="edgeStyle=orthogonalEdgeStyle;rounded=0;orthogonalLoop=1;jettySize=auto;html=1;entryX=1;entryY=1;entryDx=0;entryDy=-15;entryPerimeter=0;strokeColor=#FF6666;" parent="1" source="VWkFoY7AdB1eu8B3zv-9-12" target="VWkFoY7AdB1eu8B3zv-9-7" edge="1">
          <mxGeometry x="-0.0699" relative="1" as="geometry">
            <Array as="points">
              <mxPoint x="9490" y="-975" />
            </Array>
            <mxPoint as="offset" />
          </mxGeometry>
        </mxCell>
        <mxCell id="VWkFoY7AdB1eu8B3zv-9-23" value="&lt;span style=&quot;font-size: 11px; font-weight: 700; text-wrap-mode: nowrap; background-color: rgb(255, 255, 255);&quot;&gt;7.查询订单状态&lt;/span&gt;" style="rhombus;whiteSpace=wrap;html=1;fillColor=none;strokeColor=#FF6666;" parent="1" vertex="1">
          <mxGeometry x="9340" y="-1160" width="120" height="80" as="geometry" />
        </mxCell>
        <mxCell id="VWkFoY7AdB1eu8B3zv-9-25" style="edgeStyle=orthogonalEdgeStyle;rounded=0;orthogonalLoop=1;jettySize=auto;html=1;entryX=1;entryY=0;entryDx=0;entryDy=15;entryPerimeter=0;strokeColor=#FF6666;" parent="1" source="VWkFoY7AdB1eu8B3zv-9-23" target="VWkFoY7AdB1eu8B3zv-9-7" edge="1">
          <mxGeometry relative="1" as="geometry">
            <Array as="points">
              <mxPoint x="9400" y="-1025" />
            </Array>
          </mxGeometry>
        </mxCell>
        <mxCell id="VWkFoY7AdB1eu8B3zv-9-29" style="edgeStyle=orthogonalEdgeStyle;rounded=0;orthogonalLoop=1;jettySize=auto;html=1;" parent="1" source="VWkFoY7AdB1eu8B3zv-9-27" target="VWkFoY7AdB1eu8B3zv-9-14" edge="1">
          <mxGeometry relative="1" as="geometry" />
        </mxCell>
        <mxCell id="VWkFoY7AdB1eu8B3zv-9-27" value="&lt;span style=&quot;font-size: 11px; font-weight: 700; text-wrap-mode: nowrap; background-color: rgb(255, 255, 255);&quot;&gt;8.查询第三方支付状态&lt;/span&gt;" style="rhombus;whiteSpace=wrap;html=1;fillColor=none;" parent="1" vertex="1">
          <mxGeometry x="9555" y="-1269.12" width="160" height="80" as="geometry" />
        </mxCell>
        <mxCell id="zVKZny_ME0oebZA3iNqj-20" value="X" style="shape=hexagon;perimeter=hexagonPerimeter2;whiteSpace=wrap;html=1;fixedSize=1;fontStyle=1;fillColor=#F8CECC;size=650;" parent="1" vertex="1">
          <mxGeometry x="7400" y="-369.26" width="60" height="38.5" as="geometry" />
        </mxCell>
        <mxCell id="zVKZny_ME0oebZA3iNqj-27" style="edgeStyle=orthogonalEdgeStyle;rounded=0;orthogonalLoop=1;jettySize=auto;html=1;entryX=0;entryY=0.5;entryDx=0;entryDy=0;" parent="1" source="zVKZny_ME0oebZA3iNqj-23" target="zVKZny_ME0oebZA3iNqj-25" edge="1">
          <mxGeometry relative="1" as="geometry" />
        </mxCell>
        <mxCell id="zVKZny_ME0oebZA3iNqj-23" value="异常交换机" style="shape=hexagon;perimeter=hexagonPerimeter2;whiteSpace=wrap;html=1;fixedSize=1;fontStyle=0;fillColor=#FF6666;size=20;" parent="1" vertex="1">
          <mxGeometry x="7905" y="-757" width="70" height="48.5" as="geometry" />
        </mxCell>
        <mxCell id="zVKZny_ME0oebZA3iNqj-25" value="异常队列" style="shape=process;whiteSpace=wrap;html=1;backgroundOutline=1;fillColor=#FF6666;" parent="1" vertex="1">
          <mxGeometry x="8090" y="-749.9999999999999" width="85" height="35" as="geometry" />
        </mxCell>
        <mxCell id="zVKZny_ME0oebZA3iNqj-28" value="" style="edgeStyle=orthogonalEdgeStyle;rounded=0;orthogonalLoop=1;jettySize=auto;html=1;" parent="1" source="zVKZny_ME0oebZA3iNqj-29" target="zVKZny_ME0oebZA3iNqj-33" edge="1">
          <mxGeometry relative="1" as="geometry" />
        </mxCell>
        <mxCell id="zVKZny_ME0oebZA3iNqj-29" value="P" style="ellipse;whiteSpace=wrap;html=1;aspect=fixed;fillColor=#D4E1F5;" parent="1" vertex="1">
          <mxGeometry x="7810" y="-615.1299999999999" width="40" height="40" as="geometry" />
        </mxCell>
        <mxCell id="zVKZny_ME0oebZA3iNqj-30" value="3. 发送消息到死信队列" style="edgeStyle=orthogonalEdgeStyle;rounded=0;orthogonalLoop=1;jettySize=auto;html=1;entryX=0;entryY=0.5;entryDx=0;entryDy=0;" parent="1" source="zVKZny_ME0oebZA3iNqj-33" target="zVKZny_ME0oebZA3iNqj-35" edge="1">
          <mxGeometry relative="1" as="geometry" />
        </mxCell>
        <mxCell id="zVKZny_ME0oebZA3iNqj-31" value="1. 发送消息到延迟队列" style="edgeStyle=orthogonalEdgeStyle;rounded=0;orthogonalLoop=1;jettySize=auto;html=1;entryX=0;entryY=0.5;entryDx=0;entryDy=0;" parent="1" source="zVKZny_ME0oebZA3iNqj-33" target="zVKZny_ME0oebZA3iNqj-37" edge="1">
          <mxGeometry relative="1" as="geometry" />
        </mxCell>
        <mxCell id="zVKZny_ME0oebZA3iNqj-32" value="4.发生异常" style="edgeStyle=orthogonalEdgeStyle;rounded=0;orthogonalLoop=1;jettySize=auto;html=1;entryX=0.5;entryY=1;entryDx=0;entryDy=0;" parent="1" source="zVKZny_ME0oebZA3iNqj-33" target="zVKZny_ME0oebZA3iNqj-40" edge="1">
          <mxGeometry relative="1" as="geometry" />
        </mxCell>
        <mxCell id="zVKZny_ME0oebZA3iNqj-33" value="X" style="shape=hexagon;perimeter=hexagonPerimeter2;whiteSpace=wrap;html=1;fixedSize=1;fontStyle=1;fillColor=#F8CECC;" parent="1" vertex="1">
          <mxGeometry x="7910" y="-614.3799999999999" width="60" height="38.5" as="geometry" />
        </mxCell>
        <mxCell id="zVKZny_ME0oebZA3iNqj-34" value="" style="edgeStyle=orthogonalEdgeStyle;rounded=0;orthogonalLoop=1;jettySize=auto;html=1;" parent="1" source="zVKZny_ME0oebZA3iNqj-35" target="zVKZny_ME0oebZA3iNqj-38" edge="1">
          <mxGeometry relative="1" as="geometry" />
        </mxCell>
        <mxCell id="zVKZny_ME0oebZA3iNqj-35" value="死信队列" style="shape=process;whiteSpace=wrap;html=1;backgroundOutline=1;fillColor=#FFF2CC;" parent="1" vertex="1">
          <mxGeometry x="8090" y="-679.9999999999999" width="85" height="35" as="geometry" />
        </mxCell>
        <mxCell id="zVKZny_ME0oebZA3iNqj-36" value="2. 消息超时，退回交换机" style="edgeStyle=orthogonalEdgeStyle;rounded=0;orthogonalLoop=1;jettySize=auto;html=1;entryX=0.5;entryY=1;entryDx=0;entryDy=0;" parent="1" source="zVKZny_ME0oebZA3iNqj-37" target="zVKZny_ME0oebZA3iNqj-33" edge="1">
          <mxGeometry x="-0.1375" relative="1" as="geometry">
            <Array as="points">
              <mxPoint x="8132" y="-480" />
              <mxPoint x="7940" y="-480" />
            </Array>
            <mxPoint as="offset" />
          </mxGeometry>
        </mxCell>
        <mxCell id="zVKZny_ME0oebZA3iNqj-37" value="延迟队列" style="shape=process;whiteSpace=wrap;html=1;backgroundOutline=1;fillColor=#FFF2CC;" parent="1" vertex="1">
          <mxGeometry x="8090" y="-535.8799999999999" width="85" height="35" as="geometry" />
        </mxCell>
        <mxCell id="zVKZny_ME0oebZA3iNqj-38" value="C1" style="ellipse;whiteSpace=wrap;html=1;aspect=fixed;fillColor=#D5E8D4;" parent="1" vertex="1">
          <mxGeometry x="8220" y="-682.4999999999999" width="40" height="40" as="geometry" />
        </mxCell>
        <mxCell id="zVKZny_ME0oebZA3iNqj-39" style="edgeStyle=orthogonalEdgeStyle;rounded=0;orthogonalLoop=1;jettySize=auto;html=1;entryX=0;entryY=0.5;entryDx=0;entryDy=0;" parent="1" source="zVKZny_ME0oebZA3iNqj-40" target="zVKZny_ME0oebZA3iNqj-41" edge="1">
          <mxGeometry relative="1" as="geometry" />
        </mxCell>
        <mxCell id="zVKZny_ME0oebZA3iNqj-40" value="异常交换机" style="shape=hexagon;perimeter=hexagonPerimeter2;whiteSpace=wrap;html=1;fixedSize=1;fontStyle=0;fillColor=#FF6666;size=20;" parent="1" vertex="1">
          <mxGeometry x="7905" y="-757" width="70" height="48.5" as="geometry" />
        </mxCell>
        <mxCell id="zVKZny_ME0oebZA3iNqj-43" value="" style="edgeStyle=orthogonalEdgeStyle;rounded=0;orthogonalLoop=1;jettySize=auto;html=1;" parent="1" source="zVKZny_ME0oebZA3iNqj-41" target="zVKZny_ME0oebZA3iNqj-42" edge="1">
          <mxGeometry relative="1" as="geometry" />
        </mxCell>
        <mxCell id="zVKZny_ME0oebZA3iNqj-41" value="异常队列" style="shape=process;whiteSpace=wrap;html=1;backgroundOutline=1;fillColor=#FF6666;" parent="1" vertex="1">
          <mxGeometry x="8090" y="-749.9999999999999" width="85" height="35" as="geometry" />
        </mxCell>
        <mxCell id="zVKZny_ME0oebZA3iNqj-42" value="E" style="ellipse;whiteSpace=wrap;html=1;aspect=fixed;fillColor=#FF6666;" parent="1" vertex="1">
          <mxGeometry x="8220" y="-752.4999999999999" width="40" height="40" as="geometry" />
        </mxCell>
        <mxCell id="ZAm1KZqq0n68Q5Ix5wok-1" value="" style="edgeStyle=orthogonalEdgeStyle;rounded=0;orthogonalLoop=1;jettySize=auto;html=1;" edge="1" parent="1" source="ZAm1KZqq0n68Q5Ix5wok-2" target="ZAm1KZqq0n68Q5Ix5wok-4">
          <mxGeometry relative="1" as="geometry" />
        </mxCell>
        <mxCell id="ZAm1KZqq0n68Q5Ix5wok-2" value="用户" style="shape=umlActor;verticalLabelPosition=bottom;verticalAlign=top;html=1;outlineConnect=0;" vertex="1" parent="1">
          <mxGeometry x="7470" y="-1980.44" width="30" height="57.37" as="geometry" />
        </mxCell>
        <mxCell id="ZAm1KZqq0n68Q5Ix5wok-27" style="edgeStyle=orthogonalEdgeStyle;rounded=0;orthogonalLoop=1;jettySize=auto;html=1;entryX=0;entryY=0.5;entryDx=0;entryDy=0;" edge="1" parent="1" source="ZAm1KZqq0n68Q5Ix5wok-4" target="ZAm1KZqq0n68Q5Ix5wok-23">
          <mxGeometry relative="1" as="geometry" />
        </mxCell>
        <mxCell id="ZAm1KZqq0n68Q5Ix5wok-4" value="GateWay&lt;br&gt;网关" style="ellipse;shape=cloud;whiteSpace=wrap;html=1;fillColor=#F8CECC;" vertex="1" parent="1">
          <mxGeometry x="7550" y="-1991.76" width="120" height="80" as="geometry" />
        </mxCell>
        <mxCell id="ZAm1KZqq0n68Q5Ix5wok-5" value="3.创建订单" style="edgeStyle=orthogonalEdgeStyle;rounded=0;orthogonalLoop=1;jettySize=auto;html=1;fontStyle=1;strokeColor=default;" edge="1" parent="1" source="ZAm1KZqq0n68Q5Ix5wok-7" target="ZAm1KZqq0n68Q5Ix5wok-8">
          <mxGeometry relative="1" as="geometry" />
        </mxCell>
        <mxCell id="ZAm1KZqq0n68Q5Ix5wok-6" value="&lt;b&gt;4.订单消息延迟消费（比支付有效时间长）&lt;/b&gt;" style="edgeStyle=orthogonalEdgeStyle;rounded=0;orthogonalLoop=1;jettySize=auto;html=1;strokeColor=default;" edge="1" parent="1" source="ZAm1KZqq0n68Q5Ix5wok-7" target="ZAm1KZqq0n68Q5Ix5wok-10">
          <mxGeometry x="-0.0167" y="-60" relative="1" as="geometry">
            <mxPoint as="offset" />
          </mxGeometry>
        </mxCell>
        <mxCell id="ZAm1KZqq0n68Q5Ix5wok-7" value="订单服务" style="rounded=0;whiteSpace=wrap;html=1;fillColor=#D5E8D4;fontStyle=1;strokeColor=default;" vertex="1" parent="1">
          <mxGeometry x="7860" y="-1982.63" width="120" height="61.75" as="geometry" />
        </mxCell>
        <mxCell id="ZAm1KZqq0n68Q5Ix5wok-8" value="数据库" style="shape=cylinder3;whiteSpace=wrap;html=1;boundedLbl=1;backgroundOutline=1;size=15;fillColor=#D4E1F5;strokeColor=default;" vertex="1" parent="1">
          <mxGeometry x="8120" y="-1990.88" width="60" height="80" as="geometry" />
        </mxCell>
        <mxCell id="ZAm1KZqq0n68Q5Ix5wok-9" value="5.监听消息" style="edgeStyle=orthogonalEdgeStyle;rounded=0;orthogonalLoop=1;jettySize=auto;html=1;fontStyle=1;strokeColor=default;" edge="1" parent="1" source="ZAm1KZqq0n68Q5Ix5wok-10" target="ZAm1KZqq0n68Q5Ix5wok-13">
          <mxGeometry relative="1" as="geometry" />
        </mxCell>
        <mxCell id="ZAm1KZqq0n68Q5Ix5wok-10" value="RabbitMQ延迟队列" style="ellipse;shape=cloud;whiteSpace=wrap;html=1;fillColor=#E1D5E7;strokeColor=default;" vertex="1" parent="1">
          <mxGeometry x="7840" y="-2220" width="160" height="80" as="geometry" />
        </mxCell>
        <mxCell id="ZAm1KZqq0n68Q5Ix5wok-11" style="edgeStyle=orthogonalEdgeStyle;rounded=0;orthogonalLoop=1;jettySize=auto;html=1;entryX=0.5;entryY=0;entryDx=0;entryDy=0;strokeColor=default;" edge="1" parent="1" source="ZAm1KZqq0n68Q5Ix5wok-13" target="ZAm1KZqq0n68Q5Ix5wok-18">
          <mxGeometry relative="1" as="geometry">
            <Array as="points">
              <mxPoint x="8250" y="-2140.88" />
              <mxPoint x="8250" y="-2140.88" />
            </Array>
          </mxGeometry>
        </mxCell>
        <mxCell id="ZAm1KZqq0n68Q5Ix5wok-12" style="edgeStyle=orthogonalEdgeStyle;rounded=0;orthogonalLoop=1;jettySize=auto;html=1;entryX=0;entryY=0.5;entryDx=0;entryDy=0;strokeColor=default;" edge="1" parent="1" source="ZAm1KZqq0n68Q5Ix5wok-13" target="ZAm1KZqq0n68Q5Ix5wok-21">
          <mxGeometry relative="1" as="geometry" />
        </mxCell>
        <mxCell id="ZAm1KZqq0n68Q5Ix5wok-13" value="关单服务" style="rounded=0;whiteSpace=wrap;html=1;fillColor=#D5E8D4;fontStyle=1;strokeColor=default;" vertex="1" parent="1">
          <mxGeometry x="8190" y="-2210.88" width="170" height="61.75" as="geometry" />
        </mxCell>
        <mxCell id="ZAm1KZqq0n68Q5Ix5wok-14" value="&lt;b&gt;7.用户支付后，推送支付信息&lt;/b&gt;" style="edgeStyle=orthogonalEdgeStyle;rounded=0;orthogonalLoop=1;jettySize=auto;html=1;entryX=0.25;entryY=1;entryDx=0;entryDy=0;strokeColor=default;" edge="1" parent="1" source="ZAm1KZqq0n68Q5Ix5wok-15" target="ZAm1KZqq0n68Q5Ix5wok-7">
          <mxGeometry x="0.0639" relative="1" as="geometry">
            <Array as="points">
              <mxPoint x="8485" y="-1830.88" />
              <mxPoint x="7890" y="-1830.88" />
            </Array>
            <mxPoint as="offset" />
          </mxGeometry>
        </mxCell>
        <mxCell id="ZAm1KZqq0n68Q5Ix5wok-37" style="edgeStyle=orthogonalEdgeStyle;rounded=0;orthogonalLoop=1;jettySize=auto;html=1;" edge="1" parent="1" source="ZAm1KZqq0n68Q5Ix5wok-15" target="ZAm1KZqq0n68Q5Ix5wok-36">
          <mxGeometry relative="1" as="geometry" />
        </mxCell>
        <mxCell id="ZAm1KZqq0n68Q5Ix5wok-41" style="edgeStyle=orthogonalEdgeStyle;rounded=0;orthogonalLoop=1;jettySize=auto;html=1;" edge="1" parent="1" source="ZAm1KZqq0n68Q5Ix5wok-15" target="ZAm1KZqq0n68Q5Ix5wok-40">
          <mxGeometry relative="1" as="geometry" />
        </mxCell>
        <mxCell id="ZAm1KZqq0n68Q5Ix5wok-15" value="第三方支付平台" style="rounded=0;whiteSpace=wrap;html=1;fillColor=#CCCCCC;fontStyle=1;strokeColor=default;" vertex="1" parent="1">
          <mxGeometry x="8440" y="-2080.88" width="90" height="230" as="geometry" />
        </mxCell>
        <mxCell id="ZAm1KZqq0n68Q5Ix5wok-16" value="6.创建支付信息" style="edgeStyle=orthogonalEdgeStyle;rounded=0;orthogonalLoop=1;jettySize=auto;html=1;entryX=0.027;entryY=0.852;entryDx=0;entryDy=0;entryPerimeter=0;fontStyle=1;strokeColor=default;" edge="1" parent="1" source="ZAm1KZqq0n68Q5Ix5wok-7" target="ZAm1KZqq0n68Q5Ix5wok-15">
          <mxGeometry relative="1" as="geometry">
            <Array as="points">
              <mxPoint x="7920" y="-1884.88" />
            </Array>
          </mxGeometry>
        </mxCell>
        <mxCell id="ZAm1KZqq0n68Q5Ix5wok-17" value="&lt;b&gt;10.更新订单状态：取消OR已支付&lt;/b&gt;" style="edgeStyle=orthogonalEdgeStyle;rounded=0;orthogonalLoop=1;jettySize=auto;html=1;entryX=1;entryY=1;entryDx=0;entryDy=-15;entryPerimeter=0;strokeColor=default;" edge="1" parent="1" source="ZAm1KZqq0n68Q5Ix5wok-13" target="ZAm1KZqq0n68Q5Ix5wok-8">
          <mxGeometry x="-0.0699" relative="1" as="geometry">
            <Array as="points">
              <mxPoint x="8340" y="-1925.88" />
            </Array>
            <mxPoint as="offset" />
          </mxGeometry>
        </mxCell>
        <mxCell id="ZAm1KZqq0n68Q5Ix5wok-18" value="&lt;span style=&quot;font-size: 11px; font-weight: 700; text-wrap-mode: nowrap; background-color: rgb(255, 255, 255);&quot;&gt;8.查询订单状态&lt;/span&gt;" style="rhombus;whiteSpace=wrap;html=1;fillColor=none;strokeColor=default;" vertex="1" parent="1">
          <mxGeometry x="8190" y="-2110.88" width="120" height="80" as="geometry" />
        </mxCell>
        <mxCell id="ZAm1KZqq0n68Q5Ix5wok-19" style="edgeStyle=orthogonalEdgeStyle;rounded=0;orthogonalLoop=1;jettySize=auto;html=1;entryX=1;entryY=0;entryDx=0;entryDy=15;entryPerimeter=0;strokeColor=default;" edge="1" parent="1" source="ZAm1KZqq0n68Q5Ix5wok-18" target="ZAm1KZqq0n68Q5Ix5wok-8">
          <mxGeometry relative="1" as="geometry">
            <Array as="points">
              <mxPoint x="8250" y="-1975.88" />
            </Array>
          </mxGeometry>
        </mxCell>
        <mxCell id="ZAm1KZqq0n68Q5Ix5wok-20" style="edgeStyle=orthogonalEdgeStyle;rounded=0;orthogonalLoop=1;jettySize=auto;html=1;strokeColor=default;" edge="1" parent="1" source="ZAm1KZqq0n68Q5Ix5wok-21" target="ZAm1KZqq0n68Q5Ix5wok-15">
          <mxGeometry relative="1" as="geometry" />
        </mxCell>
        <mxCell id="ZAm1KZqq0n68Q5Ix5wok-21" value="&lt;span style=&quot;font-size: 11px; font-weight: 700; text-wrap-mode: nowrap; background-color: rgb(255, 255, 255);&quot;&gt;9.查询第三方支付状态&lt;/span&gt;" style="rhombus;whiteSpace=wrap;html=1;fillColor=none;" vertex="1" parent="1">
          <mxGeometry x="8405" y="-2220" width="160" height="80" as="geometry" />
        </mxCell>
        <mxCell id="ZAm1KZqq0n68Q5Ix5wok-22" value="" style="image;sketch=0;aspect=fixed;html=1;points=[];align=center;fontSize=12;image=img/lib/mscae/Cache_Redis_Product.svg;" vertex="1" parent="1">
          <mxGeometry x="7715" y="-2072.88" width="50" height="42" as="geometry" />
        </mxCell>
        <mxCell id="ZAm1KZqq0n68Q5Ix5wok-25" value="1.防止重复提交" style="edgeStyle=orthogonalEdgeStyle;rounded=0;orthogonalLoop=1;jettySize=auto;html=1;fontStyle=1" edge="1" parent="1" source="ZAm1KZqq0n68Q5Ix5wok-23">
          <mxGeometry relative="1" as="geometry">
            <mxPoint x="7740" y="-2030" as="targetPoint" />
          </mxGeometry>
        </mxCell>
        <mxCell id="ZAm1KZqq0n68Q5Ix5wok-26" value="2.下单" style="edgeStyle=orthogonalEdgeStyle;rounded=0;orthogonalLoop=1;jettySize=auto;html=1;fontStyle=1" edge="1" parent="1" source="ZAm1KZqq0n68Q5Ix5wok-23" target="ZAm1KZqq0n68Q5Ix5wok-7">
          <mxGeometry relative="1" as="geometry" />
        </mxCell>
        <mxCell id="ZAm1KZqq0n68Q5Ix5wok-23" value="AOP" style="rounded=0;whiteSpace=wrap;html=1;fillColor=#D5E8D4;fontStyle=1;strokeColor=default;" vertex="1" parent="1">
          <mxGeometry x="7720" y="-1982.6299999999999" width="40" height="61.75" as="geometry" />
        </mxCell>
        <mxCell id="ZAm1KZqq0n68Q5Ix5wok-36" value="" style="shape=image;verticalLabelPosition=bottom;labelBackgroundColor=default;verticalAlign=top;aspect=fixed;imageAspect=0;image=data:image/png,iVBORw0KGgoAAAANSUhEUgAAAPoAAAD6CAYAAACI7Fo9AAAACXBIWXMAAAsTAAALEwEAmpwYAAAKTWlDQ1BQaG90b3Nob3AgSUNDIHByb2ZpbGUAAHjanVN3WJP3Fj7f92UPVkLY8LGXbIEAIiOsCMgQWaIQkgBhhBASQMWFiApWFBURnEhVxILVCkidiOKgKLhnQYqIWotVXDjuH9yntX167+3t+9f7vOec5/zOec8PgBESJpHmomoAOVKFPDrYH49PSMTJvYACFUjgBCAQ5svCZwXFAADwA3l4fnSwP/wBr28AAgBw1S4kEsfh/4O6UCZXACCRAOAiEucLAZBSAMguVMgUAMgYALBTs2QKAJQAAGx5fEIiAKoNAOz0ST4FANipk9wXANiiHKkIAI0BAJkoRyQCQLsAYFWBUiwCwMIAoKxAIi4EwK4BgFm2MkcCgL0FAHaOWJAPQGAAgJlCLMwAIDgCAEMeE80DIEwDoDDSv+CpX3CFuEgBAMDLlc2XS9IzFLiV0Bp38vDg4iHiwmyxQmEXKRBmCeQinJebIxNI5wNMzgwAABr50cH+OD+Q5+bk4eZm52zv9MWi/mvwbyI+IfHf/ryMAgQAEE7P79pf5eXWA3DHAbB1v2upWwDaVgBo3/ldM9sJoFoK0Hr5i3k4/EAenqFQyDwdHAoLC+0lYqG9MOOLPv8z4W/gi372/EAe/tt68ABxmkCZrcCjg/1xYW52rlKO58sEQjFu9+cj/seFf/2OKdHiNLFcLBWK8ViJuFAiTcd5uVKRRCHJleIS6X8y8R+W/QmTdw0ArIZPwE62B7XLbMB+7gECiw5Y0nYAQH7zLYwaC5EAEGc0Mnn3AACTv/mPQCsBAM2XpOMAALzoGFyolBdMxggAAESggSqwQQcMwRSswA6cwR28wBcCYQZEQAwkwDwQQgbkgBwKoRiWQRlUwDrYBLWwAxqgEZrhELTBMTgN5+ASXIHrcBcGYBiewhi8hgkEQcgIE2EhOogRYo7YIs4IF5mOBCJhSDSSgKQg6YgUUSLFyHKkAqlCapFdSCPyLXIUOY1cQPqQ28ggMor8irxHMZSBslED1AJ1QLmoHxqKxqBz0XQ0D12AlqJr0Rq0Hj2AtqKn0UvodXQAfYqOY4DRMQ5mjNlhXIyHRWCJWBomxxZj5Vg1Vo81Yx1YN3YVG8CeYe8IJAKLgBPsCF6EEMJsgpCQR1hMWEOoJewjtBK6CFcJg4Qxwicik6hPtCV6EvnEeGI6sZBYRqwm7iEeIZ4lXicOE1+TSCQOyZLkTgohJZAySQtJa0jbSC2kU6Q+0hBpnEwm65Btyd7kCLKArCCXkbeQD5BPkvvJw+S3FDrFiOJMCaIkUqSUEko1ZT/lBKWfMkKZoKpRzame1AiqiDqfWkltoHZQL1OHqRM0dZolzZsWQ8ukLaPV0JppZ2n3aC/pdLoJ3YMeRZfQl9Jr6Afp5+mD9HcMDYYNg8dIYigZaxl7GacYtxkvmUymBdOXmchUMNcyG5lnmA+Yb1VYKvYqfBWRyhKVOpVWlX6V56pUVXNVP9V5qgtUq1UPq15WfaZGVbNQ46kJ1Bar1akdVbupNq7OUndSj1DPUV+jvl/9gvpjDbKGhUaghkijVGO3xhmNIRbGMmXxWELWclYD6yxrmE1iW7L57Ex2Bfsbdi97TFNDc6pmrGaRZp3mcc0BDsax4PA52ZxKziHODc57LQMtPy2x1mqtZq1+rTfaetq+2mLtcu0W7eva73VwnUCdLJ31Om0693UJuja6UbqFutt1z+o+02PreekJ9cr1Dund0Uf1bfSj9Rfq79bv0R83MDQINpAZbDE4Y/DMkGPoa5hpuNHwhOGoEctoupHEaKPRSaMnuCbuh2fjNXgXPmasbxxirDTeZdxrPGFiaTLbpMSkxeS+Kc2Ua5pmutG003TMzMgs3KzYrMnsjjnVnGueYb7ZvNv8jYWlRZzFSos2i8eW2pZ8ywWWTZb3rJhWPlZ5VvVW16xJ1lzrLOtt1ldsUBtXmwybOpvLtqitm63Edptt3xTiFI8p0in1U27aMez87ArsmuwG7Tn2YfYl9m32zx3MHBId1jt0O3xydHXMdmxwvOuk4TTDqcSpw+lXZxtnoXOd8zUXpkuQyxKXdpcXU22niqdun3rLleUa7rrStdP1o5u7m9yt2W3U3cw9xX2r+00umxvJXcM970H08PdY4nHM452nm6fC85DnL152Xlle+70eT7OcJp7WMG3I28Rb4L3Le2A6Pj1l+s7pAz7GPgKfep+Hvqa+It89viN+1n6Zfgf8nvs7+sv9j/i/4XnyFvFOBWABwQHlAb2BGoGzA2sDHwSZBKUHNQWNBbsGLww+FUIMCQ1ZH3KTb8AX8hv5YzPcZyya0RXKCJ0VWhv6MMwmTB7WEY6GzwjfEH5vpvlM6cy2CIjgR2yIuB9pGZkX+X0UKSoyqi7qUbRTdHF09yzWrORZ+2e9jvGPqYy5O9tqtnJ2Z6xqbFJsY+ybuIC4qriBeIf4RfGXEnQTJAntieTE2MQ9ieNzAudsmjOc5JpUlnRjruXcorkX5unOy553PFk1WZB8OIWYEpeyP+WDIEJQLxhP5aduTR0T8oSbhU9FvqKNolGxt7hKPJLmnVaV9jjdO31D+miGT0Z1xjMJT1IreZEZkrkj801WRNberM/ZcdktOZSclJyjUg1plrQr1zC3KLdPZisrkw3keeZtyhuTh8r35CP5c/PbFWyFTNGjtFKuUA4WTC+oK3hbGFt4uEi9SFrUM99m/ur5IwuCFny9kLBQuLCz2Lh4WfHgIr9FuxYji1MXdy4xXVK6ZHhp8NJ9y2jLspb9UOJYUlXyannc8o5Sg9KlpUMrglc0lamUycturvRauWMVYZVkVe9ql9VbVn8qF5VfrHCsqK74sEa45uJXTl/VfPV5bdra3kq3yu3rSOuk626s91m/r0q9akHV0IbwDa0b8Y3lG19tSt50oXpq9Y7NtM3KzQM1YTXtW8y2rNvyoTaj9nqdf13LVv2tq7e+2Sba1r/dd3vzDoMdFTve75TsvLUreFdrvUV99W7S7oLdjxpiG7q/5n7duEd3T8Wej3ulewf2Re/ranRvbNyvv7+yCW1SNo0eSDpw5ZuAb9qb7Zp3tXBaKg7CQeXBJ9+mfHvjUOihzsPcw83fmX+39QjrSHkr0jq/dawto22gPaG97+iMo50dXh1Hvrf/fu8x42N1xzWPV56gnSg98fnkgpPjp2Snnp1OPz3Umdx590z8mWtdUV29Z0PPnj8XdO5Mt1/3yfPe549d8Lxw9CL3Ytslt0utPa49R35w/eFIr1tv62X3y+1XPK509E3rO9Hv03/6asDVc9f41y5dn3m978bsG7duJt0cuCW69fh29u0XdwruTNxdeo94r/y+2v3qB/oP6n+0/rFlwG3g+GDAYM/DWQ/vDgmHnv6U/9OH4dJHzEfVI0YjjY+dHx8bDRq98mTOk+GnsqcTz8p+Vv9563Or59/94vtLz1j82PAL+YvPv655qfNy76uprzrHI8cfvM55PfGm/K3O233vuO+638e9H5ko/ED+UPPR+mPHp9BP9z7nfP78L/eE8/sl0p8zAAAAIGNIUk0AAHolAACAgwAA+f8AAIDpAAB1MAAA6mAAADqYAAAXb5JfxUYAAB7USURBVHja7J15mFxllYffW0tXb+nsISEQtgAKyBo2hRFQAUGIggIKIsJEkUUEwRmXcRyVQWYAEVFZRlkHQXEEZImAhB1iCIQ1gELMRgiQENJJOp3uqjt/nFP07UrtXdXpTv/e56mnuqvurbr31ve753znO9/5gjAMEUJs3MR0CYSQ0IUQEroQQkIXQkjoQggJXQghoQshJHQhhIQuhIQuhJDQhRASuhBCQhdCSOhCCAldCCGhCyEkdCEkdCGEhC6EkNCFEBK6EEJCF0JI6EIICV0IIaELIaELISR0IYSELoSQ0IUQEroQQkIXQkjoQggJXQghoQshoQshJHQhhIQuhJDQhRASuhBCQhdCSOhCCAldCAldCCGhCyEkdCGEhC6EkNCFEBK6EEJCF0JI6EJI6EIICV0IIaELISR0IYSELoSQ0IUQEroQQkIXQkjoQkjoQoiNiIQuAUw9cmrvF0II4/DakctYO6qbIB0MxtMaC2znj0nABGAc0AYk7SxZBbwDvAEsAeYBz/v/XYPthMN4yJbTR9K2IEUmEb7/+u133C6hS+YbDc3AvsCBwMeAycCYKj5nNbAAeBJ4APiL3wSEhC42ILsCxwOfAbapwee1AB/0x5eBZcAM4CbgbqBTl1xCF/3HocCpwGHuiteL0cBn/fE88CvgZuBd/QSDBwXjBh97AdOBe4CpdRZ5Lh8Cfgk8BXwFCPRzSOiitrQCFwKPAIds4GPZGrgS+DOwk34aCV3Urh/+EPAtoGEAHdcngEeBafqJJHTRN453ke8+QI9vOHAVcM0AuwkJCX3QcDZwIzb2PdA5CbjVuxhCQhdl8k3gkkF2zEcAfwBG6OeT0EV51vGiQXrsBwPno4j8gELj6AOPD2Nj1YOROVg0/g4sxVZI6CIPI4BrgcZBdtwP+M3pNqBbP6OELorz38C2g+RY27EMueuxIbZ87A+8DLytn1Z9dGHsB5wyCI5zEfCfwG5Ydlw+kU/ChtweBr6rn1YWXfTwrwzsANYLLt7/BZYX2KYJOA34F2yaLMA/Az/DpsAKWfQhzW7YJJWByAzgOGBP4OdFRH4Y8Dg2WjA28noLcKZ+YgldwFeB+AA6nlXAdd6dOAi4BVhbYNspwJ+Au7BU3XwcD4zSzyzXfSjTBhw5QI7lTSzq/xvgbyW2Hev971OBVIltx2Hj6zfr55ZFH6pMwco8VcJv3JX+Y42O4SUsE29X4NslRB7HgnBPAWeVIfIsB+inltCHMgdVsc88F9pRwOnAe1V+933A5/1mcwmwtMT2h2GR9CuxyHol7CsPUkIfyuxSxT4nYRFusEIQBwAzy9y3A7jB+99Zd7qjxD47+HZ3YZl71TC5Cs9FSOgbBQGwWRX7bYOVdsoyBysKWSw//i3gUmAP4ETgsTK+ZzjwY7+JHNvHc20GNtFPLqEPRYbReyiqEr6R4wp3AOdhM8heibz+PFawYhds2uvcMtvFF13g36V2U0/H6SffMKjPtGFp6oOIdgc+iQ1tRbkTK1SxL1ab/XEqq9x6IPBDd+1rzUj95LLoojqrno924F4s2aVckW8BXI3Vcd9Pl1ZCHxqEENR/ouVabMGEajnQLXdfaHPXfhaWrlrPNNz3+uN3ExJ6+RcmDbF1McL6Zp+307eZXQFwbh/2P8b74Rf2IVZQCUvr9skBBOmAZEfdfzMJfaPBG03Dyni9p5lksNlgfeEIYMcK99kLqwt/C/CBfrqqHVjkv06GPCTeGRBfG+sXV0xC34hc96Zlyf6wDi/0cf8kNq5eDuOwIbZH6P9JNP/AFm+sz88Vg8TqOPG1sugSeoVXpumdBPGuureav9TgM04q4Xo3Yxl02bTVDVGW+QnquEJrGIeWt5LE1wWqViehV+BTx0OaliVJrYgTxuvqCs7CJpP0hTFYIC0fh2NDbJcDm2/AS/pgXXtbGRi2MCWRS+iV99NjnQEtbzSQqe8E0hVYamlfOZXe9d93AH6HjavvsoGv5rvY8k11suYhqRUJWpYmCRPqn0voVbiDI//eRKz+7uDV9H1gaBK2rPGJWO25mcDnBsilvJU6BuIycRjxWiMJ9c8Losy4Epai+a0kbQtSrJi81vp/9WGmW7y+Bsg+4o+BxFrg4rr9RjFIroox6uUmMnFZc1n0ahsSMO7ZFuLrgnpbi5+wcaZ7XEvv3PvaWvNkyOi5zTSsjBOqNUvoVQs9EdLyZpLRLzWTSWbq+VUPYeusbUwsBX5QP5c9pHF5nDEvNKtvLqHXoEElQjaZ3ULL0gYy9W1Q5wCvb0SX7nTqlQ3nYZMJTw4j0RGTNZfQa9MPjK+LMfGRNmJdAWGsbmJ/B/gydRxv7keuwBZcrAvphgxjn21h+LxGMklZcwm9hla9eWmSiY+1EcaoZ3/9YeCMQX65ZmBz3+sj8lSGEa81scms1np7WBL6kBR7Q8iouU1MeGIYYTysp9ivAr4/SC/TI9iw3tr6WPKQ4fMa2XxGm6W0azhNQq+L2JMh4+a0MOHJYYSJuor9R8B3BtnleQCYCiyrl8iHLUgx6S8jiHXFCONqjxJ6vQhc7M+Y2DOJsJ5W5QIstXXtILgyt2L16d+tm8gXptjy/uEWJ9GYuYTer2Kf1VrvRI1fY9Va5w/Qq9Hl3YzP0bciGqVFft9wqxEgkUvo/Sr2RMj4Wa2Mfbal3pHfR4DPAGsG2FV4HPiodzOoj8gzDP9Hii3vlcgl9A0o9hBoWp7sj2+bWy+3uArewCrbHIhNP62byNsWppj0wHDvk0vk1aJc91qIvX8a4AfZ8HXRF3lX4gr6PrV2PcIY7w+XhbGQ4fNTbHHfCFlyCX2AuEX1z4MHW7ppQ/xeq7Gx/VuBO7CknpqTSYQ0rIoz/PVGEmsDyASMerVJIpfQBwaZREjb/BTD/5Fi5RadxOpXkebjRd57GFtmaRVWD+4AbAmkYVV8TzewGJtR9yAwHVvrra7XsGFlnC3/PJLmt5LgmYeZRCiRS+gDx3WPdQds+sQw1ozrIt0QEtR+7stIbCHEXOYD57s7nf3Wm+2omAhsjxWgmORu/xgXf6MLeg2wHJsrvhh4DXgOWECdIuj5RJ5cFWerP4+gcVmCdGNGbUpCH7hWPbU8wbCFDSzboeN9qx6EVk22BuzoIs2yEltc8RLyl4sOvT+9iNrUpKufJV8VZ4t7R9C4LKmcdQl94BMmQsY93Urb/Mb3LfrbO69h1cRO4utifZ1pHl055XfY1M+5g/l6ZZLmrm81fSSN7yTINEjkEvpgEHoMUisTNL6beN+atyxpYOmUVbyz4xqCdNCXcuP3Ajt7P/yewdrFycRDmxAUC2l8N8GW00fSuEwil9AHndjDXvOi4+sCNnu4jeTqOEv2aofqxf408IXBbL2DNLQubqCh3SrBjHmhmaZlCbnrEvrGYeXTyZBxs1sIugPe+PBK67MPkbadSYbgZZjHPtdM66IGYh6zyMSRyCX0jQjPix/7rJU7WrJ3O7HujVvs2aSXYQtTjHm+mWELUwQZuw5pDZdJ6Bu72MfNbgFgyd7tBN3BoF0iLIyHvWrdByF24wrsuXVJA2Ofa2bY/BRBJvDxcDUDCX0oif3pFghN7KQHn9jTyZDGFXGGLUyRejdBd0uada0ZupvSBJmAUa800TY/RZAOlPAioQ9hsSdCNnm6lSCEN/Zth6xlzzfcXqZGstNkg9DiArHu2mfnZfPQR77axMQnhpFsj71/zGFgi10Q2tJImURIqP63hD7UxZ5OZhg7p4VMPGTplFWEYYE+u0fxiwk33WC17MbPbiFIB7y55ypWj+8i1h30LUMv8Lp4gbnpic6ATZ9os9LKAaRTYQG3Xj+xhC56WfZxc1ppXZwy9zZcbxMyMXh711W0b75uvRz6MGYCHPlqIxMfbSPZYcsRtbzZwFu7ruadHdfQ3ZJ+v4rl+/1oemfshbGQTE4rCDIQ6wpIrAuId8ZpaI8z7plWWpc0kE5mVKdNQheVWcyQlqVF5rKH0PrmSBbtt5JlO64hyJjlD2MQ7wyYOLOVsc+1EMZC0p50EmRgwl9bGfFaI+9ttZZ0KiSTDMkkM3SnLA+/qzVDx5guwlhI6t0EbQtTxLoC4usC4p0xEmtiNLTHiXfGiHfGiHUFBNj8cCGhiyooVa44yMBmj7TR/FaSlVt2EgYwbHEDwxakaFyeWK9mXRgzdz61IsH4p1p7vR7GzJqnkyErJnfQ1ZJm1NxmUu8liEYFw8C2JbDil2EiRD1uCV3UkTBmln30S82MfrmZEIilSyechPGQdDyvk0AsDaNfbCYI7UaTTslSS+hiYPTpI6JO9zHgFQYoKj7EUM04ISR0IYSELoSQ0IUQEvpQYBRW762/6K/g6gSsKu2mA+hap4ARQIOanYReCecC1xdozGcBXy2x/+bAi8BlfTiGf8Zqw40qsd1o4E7quGJKDkdgteiOrPHnHoMVuqymfv0pWHmtz6rpSujlsgm2kukXgaY875/hIizG3sB44JU+HMcXga8VOIYo67BSU2fQP4s8ZHKea8XngJOr9ILa/Hq3qPlK6OXyI29sP8IqqZ4EbBt5fxW9yyHv5aKM5rPu78+PVXkMmwP7AndjpZiL0e5eRitwWj9cn86c51owAjgEqydfzc0xXaebz0aBEmbW50BgGlbb/EKsJvo1wOnA3wrsc7K78n8CVvgN9DBsVZO/Vnkch/uN4xqsFvsHSmz/lj8mAXuW2Pbv9KzjFgAf8ZtEOYTAHv737tjSTOVOc2nHFmbMl63zCT/PG0AZtxJ6fRmNrSuGC3t15BqtK7LfWrdu2Qa6C7ZSyi+pfiGEU/xGcQfwSeC2Mvc7yR/F+Dy20ENW6L93t7dSvu6PclnsN6J8Qp7m1/FWNUMJvZ7EgWuB7YCfY8EtqrQun/bnD2HBpcBdyox/z3zgh0X23wlbmeViv8E8B5xZprUtZV0DYFbOPj8GxlVwrrtjAbk7gdll7hO49c/3HVu6Rb8eWFrl79eV8ywk9PVoBi4FPuV9xH8p0i/N9gPTOY0s8NdiwLH++ocjffUoc0oI/Wsu8Cv9/3nA5XU69xD4RYX7HO9C/5272n0l64Fkz3EslQcVN4/cNHaKvL4MWCKhC7Ax4WlY4O0EoAPYxy1Qd8SKLXFBj/D+c3bhw8m+3Wp/bXvvW/975DvOc6t8qAu9EOOBL/k2fxug16sp57kvtPmN7XXgqUi36d+r/Lz/8EeWK4FTJXQBMAO4HbgAC1Ql3FK1YgsndAHf8EeU+3IsRwI42/+/DViY0zUAeKmEe3omNkTUUcDybVNldyLmbvYfB9i1P8W7DdH11p8CrqvQK8l2dx4HXo10YR5W85bQs6yO9KvBgl+TgYeAZ4CDI0It1BfuwIbDDo64kFEmuNXvKGHNT4v0aXM5AfhYH87z2hoJvSPnuVqGA9+MnK8XjObOSIykXM50of8CuElNWkIvx/J92//+CTZc9mCZ+94RuSFslfPeZsAb/nmF+J53C7oKCP1YLNWzWtaUud0+wEcj4su1nnv530djyzPnbpMGnnTr2l3ke87x/dfQ95yOxhp2JyT0IcDRbpn/Avw54naXaojbYwGq+92NjCbYtGLR/JlFGv4U75ve6Ps35tlmWT9dg08C3y+xTRqY6o9isY8ZBd7bzm+ot/nNa3s1PQm9v2jCliQGW3s82xe+AjiqxL4neL/yCmx4bhcsYNeF5csPp3BwLYkNpXV447+zgEVvyOlCVEo35Q0/PeTPNwP/Ru+Mv1J95RS2+msceLaI13SJb3Oen3uxG+kEbI34+9VEJfRa8G1gB//7vcjrs8u4Vm9g2XGdWEBvigt8fsS6zymw7+HAP3mjX+TWPJ8gb/HtquW3WD58KWa4230w8BUso61cvoAF1y4AlhfYZn8/5//ya9VSwiW/G8sM3IreQTshoVfMQcB3I/9HLecV9GTMlcNfgeNc4PP9s3HXPR/PYok1l5b43Ll97KO/VoFl/ibwBDa2/aUy9xvr1nkJcFGJ87ie8mbbrcXmC+zqx3SemqqEXi1b0jOcMxObedYXnvbnPd3dPBDLLS8ktHmUng0HNqOuv3gS+BU2xn078H9l7HM5NnJwXBFrDpaT/6UKjuVieuYT/My9HiGhV8xlWFT8e1jAK1foh2DZYEFOXzKb1nqFW7+o0NuxtM4b3RrdQflR74HC97BswV8DL2Dj04U4DZtPfoN3MWrJPOB//WZ4lqy6hF4tM7BA1/n0JLxE2Q2bhgoWbc4GymKR/aNCb/fXDsRSXQN6JpH0hdFYtLpaXgRWVrD9cizI+AA2/n4Q+ZN9PoeNX8/GRg7qwaXuBXzFLbz66hJ6xfyMnjzrfNekI+I6/4aexI4jgavIHzi7wd8/CQvU3V2D4zzELVu1fJTKM8Ue9nO4ARsNONxd7yzHu9eyEEs6aq/Tb/Si32yOwar/nKtmK6FXStYFL8Qqf343x6K9U2SfO71Pvo33dVfW4Dizw30Xeh86KHOfw93trXae943uTVyKpf0e5ed2lr+22L+j3n3ny1zo4yM3WyGh14xs8kqusLKR+ZXYTLVvu6v7Hr2j9q/U+Hhm0JPMUw5jKC/YV8rriWHR9Pv8RvN5bArtMXU4x3zMxCYNzZDIJfR6sIU/v53zelb407DAW8ytzXtY0sw2/v5PvJ9bq8y2StM8G2v0vT/FsvZOpmdM+9NYsKw/6MYyFkWFqGZc+X3bDOsnvHzQn4/ActgPcMt2OvBlt7rfA7bGqs0MZvbz7sjJfiN7xW9qd3o/Pb6Bj08WXkKviqy1PgCbxPEE64+D7+7Pz2AZa0+4hbsMG0o7G4vkP+ru7TkbqFFXK4JG4DPAdOAR74ff7+e6h/fPd/A+/Ex35Zs3cFuOq+nKda+ETne9s1VefphHMJdggbqvY0NRn8bSTGPYUNBc3+5EF/vFbg1/XaObUD22b8MSfaZiUf7scN4sLGU1WtPtbGxK6DlYksxNWAGJ27HqM7PoXYmnXoykZy7CQjVdCb0S1mKLAWznluvePNs8TM9w1VHYWHkSyyaLCmKeu7f3A//jjf/aPvxeV2GR93IEnKGnLFMhazcaGwvfB5vvvlnkvXuxUYM/FRDtLLfkF2N59Mf6DeBsLMlmOha8m0PvYbm+sjUW9W/2Y97Kr/OjaroSejlkl/RpdcvbRPH6blmS/jiH/HnxD2IpnP9D6Yqrwwq4269hFVsrncU2Fxvrf7OIi34pPXn0L2HTR/9ATzpvKZ7Cxtv/zT2bY7Ay0jthY97HU7ggRIufcyVsQe8KtLOxklHtasISejk879Z4OTZO/oMy97vV+/MPFdnm19hY/H0lPutq8i+O8Lg/as1ibNbZdm7Bn6f6aqoLsRGHn2NVeg7C5hIUq2xzMzYhppJYwjPetchguQ1zKV7kYmgHnMJQwcqpR05VS9iIuf2O24f8NVDUXQgJXQghoQshJHQhhIQuhJDQhRC1QuPoPXwKm875BwonXeyGlXH+E4Vnok3Gqpy+SPVro0fZ3j9vd2yxg3VYmulsrGjiYizZ5ApsuuxpDJwJHttiK8puAozy9vY2VpLqUSz7UEjo/coJWPrmexRO7vgxcBiW4XZVgW2+hU1bPbGPQp/s33dskW0ewhJSGrCEl7foWdJpIPB9v675eBn4VywvXsh17zfu8Od9Crw/OvLeQQW2SWLz0jvInxtfLvthGXDHYvOvTwR2xpYG3hpLLT0fmx+ewXLe2+mphFMPpmArwVYyOy1btedcbKLMFGwG3NVYnfY/uiclZNH7jUe8YX6kwPsfdvcT36Y1j7B2x9I976b4iqnF+KB3DVrcSv82zzbzqE8qbDEu9BvcdlS+nPOT9CyJjF+fGVju+39j8/a71ARl0fuDxdgMqynYEkC5HI7N3pqDze7aIc82B/rzXUW+p1S1l59jCy1OKyDyUoQVfFclx5UtVV1N7bt8n/1bbA77B/wRJU7fFqoQEnpRN3OGN7Ddct5rwJYneh2bfVbIfc8KPXfSyrbY7LC5WAHFWd4/bcrjNXzMBXBdFefQ5Z95rlvQ+VjA7rQ83lsSW0zyV1jgcBFW/+3HEc8Fv+FchK19hncZLnJLvE8fr3nWMxjhHtIx2Oy814AF/ntMo2c6bhNWqefyIjemVj+nX1J8qScJfQiT7VcfkvP6jth85xlY8CjEihRGGY+VnJqNrSeWZaq/dhY2I20ONsXyAndZ2yLbZosn/KaKY+/GFnJ82EU43G9Me2E1139H78USJ/lN4FSPKTzt+3zXb1QjfLtP+TaT/P8v+P9fK+DVVMJEf16ETWe9BQt2LvCbz75Y0POnvt1aLIJ/untY+fi4H99mDL4FMyT0fmK2N/p/ondRh0P9+X5vlH9z6zs2ss1+7g3cFXGft8XqoYcumF29IW4HXIMNm30nx6LjAqzGmo/HhrOOxobl9vU+//NYSajjI9u/htW129G7Kwe7C32TxxpOjQh7Ij3LH3/E/5+IlZCqtDuRZQ8//1exqa2z/Li39Ot/kB/7K36T/JB/Tlb0Xy3wXcf580WojpyEXoBlWJBr54gFA1svvJOeajIPuBu5a04fPrd/fh42xj0t5/UV3njfAU5xFzNwa7UOm7Ne7W85DVsnLRvx/js9Sxh9IWef67AiE1k6/MaT8XMGWI0NOWaDZe/6/+/5sVZKAzYy8QfvTnzfvZG0H3e00u484D9zvKzHvQt0EOuvqb4JtmjGS1XeLCX0IcRDfl329P83dcv4OD2R9Bk5ja/ZLWK2n5tt0J90N/SP/pnRRzsW6R/jbmvoQaguqiug0ODHl2/pp1ku2A/QU0EnlzH+ftblnUDvKjZZD6eSkZqsRb3az/Uxv/Hciy2tfBb512kL/Dh2igTlNovEUq73YzspZ7+j/AZ8Jf1Tq27QoOG19XkiIuJbPcCWoHcSzeNuzfb3/3f2G8KV9GR7beqNOe39zVgeEWwWacQzfd8mqqvDHmDDffmGqTpd6Cl/ZC1x3N33L2ILS6bytI9aCKYRG/9PY8tTXeNdmr/nbDfB+/5H5+n/R6/fjVjJqpPc4rf7+U/zv3+rZiyhl+IpbAhpP///sEj/nEjw6CXvNzbSE4F/MMdCNnh3oKPAd73o1vuNiJu9PVZ9dkGVYi93qaIRLohD/XynY8UcO7AVZ2pRNjnrBXyJnjyFQuPl+2IR94nusl8D/MNvmF/NOadFWK7Bsd5luhkbKdnNYwxvqxlL6KVYgaWuftyDQXt7QCh3yaF7vY++vwePOnOEvjYSWCu3VtVD3nA/Heke1Jro+m2HYlHt79A7d//r1LY+epr8NfCytPlNZ1O3ytdFbgh7udBzK95e7UKf5kLPBhqvVRNWH71csiufnuXWNRrcIsd6n4JFyx+ld5XVBR6w2q2CG+qtfoM4iZ5loGpNt1vzE7Bo9xk5Ik8VEHlQx3a2t5/vNVieQlfO8eTjQfdA9vcb7nFY/vwDar4Serk85pbvFP8/34KGM7FKsZ/FIuu35by/0t3Vzek9rFWMedhihm1umUbU4dzS3q1oxoJ3ua70rv69ua9nIvvXmk0iN8d8Lj15uiNprKpuEpu5t6l7JwrCSehl86z3DxNu9fLNQlvu28Wx4Fa+xf9+4g30cr8hBDkWMtvHj/ID7y8f4Deco1m/5nkcGxWoJmEl4TGBt/z79468t7Vb1HgeYWVHHLavw/V+3Z+PyDnXw4D/KNJWb3GvaW8sEHmLmq6EXgmdEXHPoHAwLSvul/2RzzM4GQvK/R4Lvk3HAntzsaG403P2WevivtyFfCuW3PIocI+7rK/68WVXhslgY/HFZpa1+COBDZ9d4G7xA9jMvXv9mCa5N7JZzudlRXQTlhNwI6UXXWiM3JiK8ZR//x5+87zNz+8uelZ3ybfoxRK/rtluzxtquoXv7iI/12Frel1fZJt7sEDc7ykc6b4WS3s9A0sU2df7yUuw/Pd8Qbc1wJm+73H0ZK0l/UawxF38e+iJZN/u1q2Qu35npI+Of3cHFnj7mH/nHdjqr8diGXDR/vF0bJmlb2Cpvm9jacHPFbk+s7wbUGoppnX+nT/ExsI/4fucj+WsX0bhpZmzrvov1GQLowUc6NcFHBrcymWofO54q3tgXUU8jGqIu2VeR3m54Y3+WEV9VkZp8htMOZ8/GQvIPeI3h7xoAQdZ9P5mHdWljUL9ikqksSHFcllLfUtAdZR5I2vAhthS9J4vINRHFxsJY7Bx9wO8CzJLl0QWXWxcHIYNq4332Mi3dElk0cXGxytYdP2n2LrsKkFVBgrGCSGLLoSQ0IUQEroQQkIXQkjoQggJXQghoQshJHQhJHQhhIQuhJDQhRASuhBCQhdCSOhCCAldCCGhCyGhCyEkdCGEhC6EkNCFEBK6EEJCF0JI6EIICV0ICV2XQAgJXQghoQshJHQhhIQuhJDQhRASuhBCQhdCSOhCSOhCCAldCCGhCyEkdCGEhC6EkNCFEBK6EEJCF0JCF0JI6EIICV0IIaELISR0IYSELoSQ0IUQEroQEroQQkIXQkjoQggJXQghoQshJHQhhIQuhJDQhRASuhASuhBCQhdCDCr+fwDBmXmooiJ3oQAAAABJRU5ErkJggg==;clipPath=inset(22% 24% 22.8% 22%);" vertex="1" parent="1">
          <mxGeometry x="8605.26" y="-1950" width="107.60869565217392" height="110" as="geometry" />
        </mxCell>
        <mxCell id="ZAm1KZqq0n68Q5Ix5wok-40" value="" style="shape=image;verticalLabelPosition=bottom;labelBackgroundColor=default;verticalAlign=top;aspect=fixed;imageAspect=0;image=data:image/svg+xml,PHN2ZyB4bWxuczp4bGluaz0iaHR0cDovL3d3dy53My5vcmcvMTk5OS94bGluayIgeG1sbnM9Imh0dHA6Ly93d3cudzMub3JnLzIwMDAvc3ZnIiBoZWlnaHQ9IjIwMCIgd2lkdGg9IjI1OC43ODkwNjI1IiB2ZXJzaW9uPSIxLjEiIHZpZXdCb3g9IjAgMCAxMzI1IDEwMjQiIGNsYXNzPSJpY29uIj48cGF0aCBmaWxsPSIjNUE5RUY3IiBkPSJNMjQwLjk0MTE3NiA1MTJjMCAyMzMuNDExNzY1IDE4OC4yMzUyOTQgNDIxLjY0NzA1OSA0MjEuNjQ3MDU5IDQyMS42NDcwNTlzNDIxLjY0NzA1OS0xODguMjM1Mjk0IDQyMS42NDcwNTktNDIxLjY0NzA1OVM4OTYgOTAuMzUyOTQxIDY2Mi41ODgyMzUgOTAuMzUyOTQxIDI0MC45NDExNzYgMjc4LjU4ODIzNSAyNDAuOTQxMTc2IDUxMnoiLz48cGF0aCBmaWxsPSIjRkZGRkZGIiBkPSJNNzUxLjQzNTI5NCA1NjQuNzA1ODgyczE1LjA1ODgyNC0yMS4wODIzNTMgMzAuMTE3NjQ3LTYzLjI0NzA1OGMxNi41NjQ3MDYtNDIuMTY0NzA2IDE4LjA3MDU4OC02Ni4yNTg4MjQgMTguMDcwNTg4LTY2LjI1ODgyNGwtMTIwLjQ3MDU4OC0xLjUwNTg4MnYtNDAuNjU4ODI0bDE0Ni4wNzA1ODgtMS41MDU4ODJ2LTMwLjExNzY0N0g2NzcuNjQ3MDU5di02Ni4yNTg4MjRoLTcyLjI4MjM1M1YzNjEuNDExNzY1SDQ2Ni44MjM1Mjl2MzAuMTE3NjQ3bDEzNy4wMzUyOTUtMS41MDU4ODN2NDUuMTc2NDcxaC0xMDguNDIzNTN2MjQuMDk0MTE4aDIyNS44ODIzNTNjLTEuNTA1ODgyIDE1LjA1ODgyNC02LjAyMzUyOSAyOC42MTE3NjUtMTAuNTQxMTc2IDQyLjE2NDcwNi05LjAzNTI5NCAyMi41ODgyMzUtMTguMDcwNTg4IDQzLjY3MDU4OC0xOC4wNzA1ODkgNDMuNjcwNTg4cy0xMDUuNDExNzY1LTM3LjY0NzA1OS0xNjIuNjM1Mjk0LTM3LjY0NzA1OWMtNTUuNzE3NjQ3IDAtMTIzLjQ4MjM1MyAyMi41ODgyMzUtMTMxLjAxMTc2NCA4Ny4zNDExNzYtNi4wMjM1MjkgNjQuNzUyOTQxIDMxLjYyMzUyOSAxMDAuODk0MTE4IDg1LjgzNTI5NCAxMTIuOTQxMTc3IDUyLjcwNTg4MiAxMi4wNDcwNTkgMTAyLjQgMCAxNDYuMDcwNTg4LTIxLjA4MjM1MyA0My42NzA1ODgtMjEuMDgyMzUzIDg1LjgzNTI5NC02OS4yNzA1ODggODUuODM1Mjk0LTY5LjI3MDU4OGwyMjQuMzc2NDcxIDEwOS45Mjk0MTFzMTMuNTUyOTQxLTIxLjA4MjM1MyAyNC4wOTQxMTctNDAuNjU4ODIzYzcuNTI5NDEyLTEzLjU1Mjk0MSAxMy41NTI5NDEtMjguNjExNzY1IDE5LjU3NjQ3MS00Mi4xNjQ3MDZsLTIzMy40MTE3NjUtNzkuODExNzY1eiBtLTIzMS45MDU4ODIgMTA2LjkxNzY0N2MtNzkuODExNzY1IDAtOTQuODcwNTg4LTM5LjE1Mjk0MS05NC44NzA1ODgtNjYuMjU4ODIzIDAtMjcuMTA1ODgyIDE2LjU2NDcwNi01OC43Mjk0MTIgODQuMzI5NDExLTYzLjI0NzA1OSA2Ni4yNTg4MjQtNC41MTc2NDcgMTU4LjExNzY0NyA0OC4xODgyMzUgMTU4LjExNzY0NyA0OC4xODgyMzVzLTY3Ljc2NDcwNiA4MS4zMTc2NDctMTQ3LjU3NjQ3IDgxLjMxNzY0N3oiLz48L3N2Zz4=;clipPath=inset(7.5% 16.02% 4.5% 16.02%);" vertex="1" parent="1">
          <mxGeometry x="8605.26" y="-2063.51" width="80.88" height="80.88" as="geometry" />
        </mxCell>
        <mxCell id="ZAm1KZqq0n68Q5Ix5wok-76" style="edgeStyle=orthogonalEdgeStyle;rounded=0;orthogonalLoop=1;jettySize=auto;html=1;" edge="1" parent="1" source="ZAm1KZqq0n68Q5Ix5wok-73" target="ZAm1KZqq0n68Q5Ix5wok-75">
          <mxGeometry relative="1" as="geometry" />
        </mxCell>
        <mxCell id="ZAm1KZqq0n68Q5Ix5wok-73" value="提交订单" style="rounded=0;whiteSpace=wrap;html=1;fillColor=none;" vertex="1" parent="1">
          <mxGeometry x="7550" y="-1590" width="80" height="40" as="geometry" />
        </mxCell>
        <mxCell id="ZAm1KZqq0n68Q5Ix5wok-79" style="edgeStyle=orthogonalEdgeStyle;rounded=0;orthogonalLoop=1;jettySize=auto;html=1;" edge="1" parent="1" source="ZAm1KZqq0n68Q5Ix5wok-75" target="ZAm1KZqq0n68Q5Ix5wok-78">
          <mxGeometry relative="1" as="geometry" />
        </mxCell>
        <mxCell id="ZAm1KZqq0n68Q5Ix5wok-75" value="根据（ip+类名+方法名）&lt;br&gt;生成key" style="rounded=0;whiteSpace=wrap;html=1;fillColor=none;" vertex="1" parent="1">
          <mxGeometry x="7662.5" y="-1590" width="155" height="40" as="geometry" />
        </mxCell>
        <mxCell id="ZAm1KZqq0n68Q5Ix5wok-82" value="Y" style="edgeStyle=orthogonalEdgeStyle;rounded=0;orthogonalLoop=1;jettySize=auto;html=1;entryX=0;entryY=0.5;entryDx=0;entryDy=0;" edge="1" parent="1" source="ZAm1KZqq0n68Q5Ix5wok-78" target="ZAm1KZqq0n68Q5Ix5wok-80">
          <mxGeometry relative="1" as="geometry">
            <Array as="points">
              <mxPoint x="7920" y="-1630" />
            </Array>
          </mxGeometry>
        </mxCell>
        <mxCell id="ZAm1KZqq0n68Q5Ix5wok-84" value="N" style="edgeStyle=orthogonalEdgeStyle;rounded=0;orthogonalLoop=1;jettySize=auto;html=1;entryX=0;entryY=0.5;entryDx=0;entryDy=0;" edge="1" parent="1" source="ZAm1KZqq0n68Q5Ix5wok-78" target="ZAm1KZqq0n68Q5Ix5wok-83">
          <mxGeometry relative="1" as="geometry" />
        </mxCell>
        <mxCell id="ZAm1KZqq0n68Q5Ix5wok-78" value="&lt;span style=&quot;font-size: 11px; text-wrap-mode: nowrap; background-color: rgb(255, 255, 255);&quot;&gt;&lt;span&gt;保存到Redis&lt;br&gt;过期时间 = 5s&lt;/span&gt;&lt;/span&gt;" style="rhombus;whiteSpace=wrap;html=1;fillColor=none;strokeColor=default;fontStyle=0" vertex="1" parent="1">
          <mxGeometry x="7860" y="-1610" width="120" height="80" as="geometry" />
        </mxCell>
        <mxCell id="ZAm1KZqq0n68Q5Ix5wok-85" style="edgeStyle=orthogonalEdgeStyle;rounded=0;orthogonalLoop=1;jettySize=auto;html=1;entryX=0;entryY=0.5;entryDx=0;entryDy=0;" edge="1" parent="1" source="ZAm1KZqq0n68Q5Ix5wok-80" target="ZAm1KZqq0n68Q5Ix5wok-81">
          <mxGeometry relative="1" as="geometry" />
        </mxCell>
        <mxCell id="ZAm1KZqq0n68Q5Ix5wok-80" value="保存订单到数据库" style="rounded=0;whiteSpace=wrap;html=1;fillColor=none;" vertex="1" parent="1">
          <mxGeometry x="8050" y="-1650" width="120" height="40" as="geometry" />
        </mxCell>
        <mxCell id="ZAm1KZqq0n68Q5Ix5wok-81" value="结束" style="rounded=0;whiteSpace=wrap;html=1;fillColor=none;" vertex="1" parent="1">
          <mxGeometry x="8220" y="-1590" width="80" height="40" as="geometry" />
        </mxCell>
        <mxCell id="ZAm1KZqq0n68Q5Ix5wok-86" style="edgeStyle=orthogonalEdgeStyle;rounded=0;orthogonalLoop=1;jettySize=auto;html=1;" edge="1" parent="1" source="ZAm1KZqq0n68Q5Ix5wok-83" target="ZAm1KZqq0n68Q5Ix5wok-81">
          <mxGeometry relative="1" as="geometry" />
        </mxCell>
        <mxCell id="ZAm1KZqq0n68Q5Ix5wok-83" value="重复提交" style="rounded=0;whiteSpace=wrap;html=1;fillColor=none;" vertex="1" parent="1">
          <mxGeometry x="8050" y="-1590" width="120" height="40" as="geometry" />
        </mxCell>
        <mxCell id="ZAm1KZqq0n68Q5Ix5wok-102" value="" style="edgeStyle=orthogonalEdgeStyle;rounded=0;orthogonalLoop=1;jettySize=auto;html=1;" edge="1" parent="1" source="ZAm1KZqq0n68Q5Ix5wok-99" target="ZAm1KZqq0n68Q5Ix5wok-101">
          <mxGeometry relative="1" as="geometry" />
        </mxCell>
        <mxCell id="ZAm1KZqq0n68Q5Ix5wok-99" value="订单页面" style="rounded=0;whiteSpace=wrap;html=1;fillColor=none;" vertex="1" parent="1">
          <mxGeometry x="7550" y="-1430" width="100" height="40" as="geometry" />
        </mxCell>
        <mxCell id="ZAm1KZqq0n68Q5Ix5wok-107" value="" style="edgeStyle=orthogonalEdgeStyle;rounded=0;orthogonalLoop=1;jettySize=auto;html=1;" edge="1" parent="1" source="ZAm1KZqq0n68Q5Ix5wok-101" target="ZAm1KZqq0n68Q5Ix5wok-105">
          <mxGeometry relative="1" as="geometry" />
        </mxCell>
        <mxCell id="ZAm1KZqq0n68Q5Ix5wok-101" value="根据（&lt;span style=&quot;background-color: initial;&quot;&gt;order:submit:[account_no]:[32 位随机数]&lt;/span&gt;）&lt;br&gt;生成token" style="rounded=0;whiteSpace=wrap;html=1;fillColor=none;" vertex="1" parent="1">
          <mxGeometry x="7692" y="-1430" width="298" height="40" as="geometry" />
        </mxCell>
        <mxCell id="ZAm1KZqq0n68Q5Ix5wok-117" style="edgeStyle=orthogonalEdgeStyle;rounded=0;orthogonalLoop=1;jettySize=auto;html=1;" edge="1" parent="1" source="ZAm1KZqq0n68Q5Ix5wok-105" target="ZAm1KZqq0n68Q5Ix5wok-116">
          <mxGeometry relative="1" as="geometry" />
        </mxCell>
        <mxCell id="ZAm1KZqq0n68Q5Ix5wok-105" value="保存到 Redis" style="rounded=0;whiteSpace=wrap;html=1;fillColor=none;" vertex="1" parent="1">
          <mxGeometry x="8020" y="-1430" width="100" height="40" as="geometry" />
        </mxCell>
        <mxCell id="ZAm1KZqq0n68Q5Ix5wok-111" style="edgeStyle=orthogonalEdgeStyle;rounded=0;orthogonalLoop=1;jettySize=auto;html=1;" edge="1" parent="1" source="ZAm1KZqq0n68Q5Ix5wok-108" target="ZAm1KZqq0n68Q5Ix5wok-109">
          <mxGeometry relative="1" as="geometry" />
        </mxCell>
        <mxCell id="ZAm1KZqq0n68Q5Ix5wok-113" style="edgeStyle=orthogonalEdgeStyle;rounded=0;orthogonalLoop=1;jettySize=auto;html=1;entryX=0;entryY=0.5;entryDx=0;entryDy=0;" edge="1" parent="1" source="ZAm1KZqq0n68Q5Ix5wok-108" target="ZAm1KZqq0n68Q5Ix5wok-99">
          <mxGeometry relative="1" as="geometry" />
        </mxCell>
        <mxCell id="ZAm1KZqq0n68Q5Ix5wok-108" value="用户" style="rounded=0;whiteSpace=wrap;html=1;fillColor=none;" vertex="1" parent="1">
          <mxGeometry x="7435" y="-1380" width="55" height="40" as="geometry" />
        </mxCell>
        <mxCell id="ZAm1KZqq0n68Q5Ix5wok-119" style="edgeStyle=orthogonalEdgeStyle;rounded=0;orthogonalLoop=1;jettySize=auto;html=1;" edge="1" parent="1" source="ZAm1KZqq0n68Q5Ix5wok-109" target="ZAm1KZqq0n68Q5Ix5wok-115">
          <mxGeometry relative="1" as="geometry" />
        </mxCell>
        <mxCell id="ZAm1KZqq0n68Q5Ix5wok-109" value="提交订单" style="rounded=0;whiteSpace=wrap;html=1;fillColor=none;" vertex="1" parent="1">
          <mxGeometry x="7550" y="-1340" width="100" height="40" as="geometry" />
        </mxCell>
        <mxCell id="ZAm1KZqq0n68Q5Ix5wok-123" value="Y" style="edgeStyle=orthogonalEdgeStyle;rounded=0;orthogonalLoop=1;jettySize=auto;html=1;" edge="1" parent="1" source="ZAm1KZqq0n68Q5Ix5wok-115" target="ZAm1KZqq0n68Q5Ix5wok-121">
          <mxGeometry relative="1" as="geometry" />
        </mxCell>
        <mxCell id="ZAm1KZqq0n68Q5Ix5wok-124" value="N" style="edgeStyle=orthogonalEdgeStyle;rounded=0;orthogonalLoop=1;jettySize=auto;html=1;entryX=0;entryY=0.5;entryDx=0;entryDy=0;" edge="1" parent="1" source="ZAm1KZqq0n68Q5Ix5wok-115" target="ZAm1KZqq0n68Q5Ix5wok-122">
          <mxGeometry relative="1" as="geometry">
            <Array as="points">
              <mxPoint x="7750" y="-1249" />
            </Array>
          </mxGeometry>
        </mxCell>
        <mxCell id="ZAm1KZqq0n68Q5Ix5wok-115" value="删除request-token" style="rhombus;whiteSpace=wrap;html=1;fillColor=none;strokeColor=default;fontStyle=0" vertex="1" parent="1">
          <mxGeometry x="7692" y="-1360" width="120" height="80" as="geometry" />
        </mxCell>
        <mxCell id="ZAm1KZqq0n68Q5Ix5wok-116" value="响应用户request-tioken = key" style="rounded=0;whiteSpace=wrap;html=1;fillColor=none;" vertex="1" parent="1">
          <mxGeometry x="8160" y="-1430" width="160" height="40" as="geometry" />
        </mxCell>
        <mxCell id="ZAm1KZqq0n68Q5Ix5wok-126" style="edgeStyle=orthogonalEdgeStyle;rounded=0;orthogonalLoop=1;jettySize=auto;html=1;entryX=0;entryY=0.5;entryDx=0;entryDy=0;" edge="1" parent="1" source="ZAm1KZqq0n68Q5Ix5wok-121" target="ZAm1KZqq0n68Q5Ix5wok-125">
          <mxGeometry relative="1" as="geometry" />
        </mxCell>
        <mxCell id="ZAm1KZqq0n68Q5Ix5wok-121" value="保存订单到数据库" style="rounded=0;whiteSpace=wrap;html=1;fillColor=none;" vertex="1" parent="1">
          <mxGeometry x="7870" y="-1340" width="120" height="40" as="geometry" />
        </mxCell>
        <mxCell id="ZAm1KZqq0n68Q5Ix5wok-127" style="edgeStyle=orthogonalEdgeStyle;rounded=0;orthogonalLoop=1;jettySize=auto;html=1;entryX=0;entryY=0.5;entryDx=0;entryDy=0;" edge="1" parent="1" source="ZAm1KZqq0n68Q5Ix5wok-122" target="ZAm1KZqq0n68Q5Ix5wok-125">
          <mxGeometry relative="1" as="geometry" />
        </mxCell>
        <mxCell id="ZAm1KZqq0n68Q5Ix5wok-122" value="重复提交" style="rounded=0;whiteSpace=wrap;html=1;fillColor=none;" vertex="1" parent="1">
          <mxGeometry x="7870" y="-1269.12" width="120" height="40" as="geometry" />
        </mxCell>
        <mxCell id="ZAm1KZqq0n68Q5Ix5wok-125" value="结束" style="rounded=0;whiteSpace=wrap;html=1;fillColor=none;" vertex="1" parent="1">
          <mxGeometry x="8090" y="-1340" width="80" height="40" as="geometry" />
        </mxCell>
      </root>
    </mxGraphModel>
  </diagram>
</mxfile>
